<svg xmlns="http://www.w3.org/2000/svg" width="86" height="58" fill="none" viewBox="0 0 86 58"><path fill="#fff" d="M32.778 16.13c-.55-1.734-.941-3.405-1.614-4.977-1.49-3.474-3.803-6.388-8.041-7.54C15.922 1.663 7.509 5.465 6.895 13.93c-.33 4.56 1.456 8.44 5.114 11.58 4.366 3.746 8.934 7.293 13.348 11.003 3.305 2.83 6.465 5.795 8.4 9.575.54 1.048 1.305.857 2.14.299l5.571-3.712c.465-.31.935-.608 1.403-.912l.298.215c-.45.574-.855 1.179-1.355 1.716a444 444 0 0 1-5.343 5.622c-1.018 1.048-1.352 1.048-2.263-.024-3.086-3.63-7.309-6.104-11.37-8.76-5.448-3.56-11.121-6.909-16.193-10.85-7.472-5.802-8.756-16.26-3.276-23.599C7.011 1.208 12.506-.55 18.855.147c8.229.9 13.241 6.55 15.299 12.562.465 1.333-.06 2.48-1.376 3.421M57.413 26.581a.3.3 0 0 1-.003-.146c.273-1.078 1.474-3.31 2.216-6.083.596-2.227 1.46-9.652-3.26-13.01C52.458 4.555 43.738 4.458 40.2 8.802c-.251.306-.604.547-.976.779-.45.28-1.081.135-1.382-.303-.336-.49-.65-.981-.65-1.466.04-.986.442-1.933 1.144-2.701 5.256-5.408 15.21-6.836 22.226-1.02 5.628 4.645 5.365 13.173 2.758 17.368-2.23 3.586-4.287 5.017-5.243 5.767-.18.14-.464.058-.526-.161z"/><mask id="a" width="53" height="14" x="29.848" y="25" fill="#000" maskUnits="userSpaceOnUse"><path fill="#fff" d="M29.848 25h53v14h-53z"/><path d="M39.062 35.646a8.8 8.8 0 0 1-1.053 1.41q-.573.603-1.224 1.052a1.7 1.7 0 0 1-.356.217 9 9 0 0 1-.433.186 3.9 3.9 0 0 1-1.038.294q-.495.062-.944-.015a2.4 2.4 0 0 1-.976-.45q-.403-.309-.635-.882a2.54 2.54 0 0 1-.201-1.146q.046-.62.325-.976a.86.86 0 0 1 .387-.325q.495-.186.681.124.125.218.062.434a.42.42 0 0 1-.278.294q-.28.124-.419-.062a.6.6 0 0 1-.093-.078q-.03-.046-.061-.015a.8.8 0 0 0-.202.34 2 2 0 0 0-.077.419q0 .201.015.387.03.17.078.279l.062.124q.03.046.062.123.758 1.116 2.369.465a6.3 6.3 0 0 0 1.394-.836 7 7 0 0 0 .604-.542q.31-.31.604-.65.294-.356.557-.713.279-.371.496-.728.123-.201.31-.51.185-.326.325-.543.65-.99 1.146-1.734t.882-1.255q1.007-1.331 2.246-2.199 1.053-.759 1.967-.944.155-.015.17.139.015.17-.248.248-.728.17-1.796.975-1.069.791-1.704 1.657-.31.42-.62.914-.293.48-.634 1.084 1.022-.913 2.044-1.192 1.021-.294 1.828 0 .804.278 1.27 1.1.465.82.371 2.105-.108.713-.48 1.394a5.9 5.9 0 0 1-.883 1.255q-.51.556-1.13.96a3.9 3.9 0 0 1-1.208.526 4.1 4.1 0 0 1-1.146.062 2.5 2.5 0 0 1-1.115-.34 1.8 1.8 0 0 1-.759-.852q-.263-.59-.046-1.564.046-.233.123-.372.093-.154.155-.186.078-.046.109.047.046.092-.016.325-.14 1.037.093 1.58.232.54.604.774.388.216.79.201.403 0 .588-.047a4 4 0 0 0 1.301-.604 4 4 0 0 0 1.053-1.099q.403-.604.635-1.254a9 9 0 0 0 .356-1.379q.124-.867-.077-1.409-.186-.542-.573-.805a1.7 1.7 0 0 0-.93-.279 3 3 0 0 0-1.13.201q-.588.202-1.177.62a5.2 5.2 0 0 0-1.053.96q-.31.558-.635 1.223-.325.666-.712 1.487m11.305-7.588q-.093.14-.263-.047-.59-.65-2.292-1.3-1.719-.65-4.305-.65-.945 0-1.983.092a36 36 0 0 0-2.168.263q-3.236.542-5.745 2.308-2.51 1.796-2.509 3.484 0 .263.062.45.387 1.548 2.71 1.548.914 0 1.75-.248 1.038-.31 2.06-1.13.417-.342.697-.604.278-.279.402-.496.202-.34.418-.279.186.016-.03.356-.202.295-.496.62a9 9 0 0 1-.697.65q-1.146.992-2.308 1.286-.929.248-1.889.248-3.128 0-3.546-2.618-.015-.109-.031-.201v-.217q0-1.92 2.447-3.624 2.554-1.796 6.473-2.276.836-.108 1.626-.155a21 21 0 0 1 1.595-.062q3.237 0 5.59.883 1.86.697 2.308 1.27.217.294.124.449m1.273 8.47q.325-.014.774-.17a3.4 3.4 0 0 0 .914-.48q.465-.34.681-.898.03-.077.062-.077h.078q.077 0 .108.093.046.077.015.108a8 8 0 0 1-.247.48q-.171.326-.573.635-.155.124-.465.263a7 7 0 0 1-.65.233 6 6 0 0 1-.744.139q-.248.015-.464 0a5 5 0 0 1-.48.34q-.403.248-.806.434a5 5 0 0 1-.774.264 2.6 2.6 0 0 1-.635.092q-.371.063-.62-.03a.9.9 0 0 1-.371-.31 1.15 1.15 0 0 1-.155-.48q-.015-.294.031-.62.077-.34.387-.882.325-.543.991-1.363l.527-.635q.31-.357.697-.775.712-.742.929-.898a1 1 0 0 1 .201-.062 1 1 0 0 1 .248 0q.093.031.047.093a50 50 0 0 0-.697.976q-.42.62-1.053 1.502-.218.341-.372.604-.154.247-.279.465l-.217.371a5 5 0 0 0-.278.604 1.7 1.7 0 0 0-.109.573q.016.248.294.264.203.015.434-.047.233-.078.45-.201.232-.124.433-.279.201-.17.356-.356-.403-.356-.465-.743a1.4 1.4 0 0 1 .078-.744 2 2 0 0 1 .464-.65q.31-.294.666-.465.371-.17.728-.186a.9.9 0 0 1 .62.186.72.72 0 0 1 .247.45q.046.278-.077.65a2.8 2.8 0 0 1-.403.774q-.248.371-.65.759zm-.945-.324q.03.015.186-.124a7 7 0 0 0 .34-.372q.202-.217.388-.48.2-.263.31-.496.123-.232.108-.402 0-.186-.201-.233-.248-.077-.635.109a1.5 1.5 0 0 0-.65.573q-.31.402-.264.836t.418.589m13.477-.744q-.403.698-1.41.96-.465.124-.805.124-.541 0-.93-.247-.448.433-.928.79-.465.355-.945.619-.465.247-.914.387t-.82.14q-1.146 0-1.146-1.116 0-.898.82-2.121 0-.015.031-.047-.294.093-.65.217a6 6 0 0 1-.666.17 1.9 1.9 0 0 1-.573.031q-.232-.03-.31-.232-.51.727-1.053 1.456-.525.713-1.1 1.44-.075.015-.232.016-.17.015-.34 0-.171 0-.294-.031-.124-.016-.124-.062 0 .03.185-.202.187-.232.496-.635.31-.417.712-.944.388-.543.79-1.115.419-.573.821-1.115.402-.558.712-.991.326-.45.527-.713a8 8 0 0 1 .217-.294q.03-.03.232-.047.217-.015.372-.015.294-.016.325.062.03.093-.65 1.007l-.96 1.316a.56.56 0 0 1 .185.294q-.216.294-.093.387.124.093.403.078.279-.031.635-.124t.604-.186a9.2 9.2 0 0 1 2.09-1.998q1.379-.96 2.416-.96 1.146 0 1.146 1.115 0 .898-.82 2.122-.171.248-.357.495-.186.233-.402.465.34.201.666.201.263 0 .68-.124.9-.279 1.131-.759.11-.108.217-.108.17 0 .17.155 0 .077-.061.14m-2.308-.929q.573-.96.573-1.642 0-.712-.635-.712-.696 0-1.719.79a8.3 8.3 0 0 0-1.78 1.905q-.806 1.176-.806 1.998 0 .712.65.712 1.038 0 2.51-1.518-.42-.34-.419-.759 0-.356.31-.62.371-.278.836-.278.31 0 .48.124m12.892.79q-.015.155-1.27 1.115Q71.44 38 70.652 38q-.45 0-.79-.248a.9.9 0 0 1-.372-.697q-.077-.929 1.286-2.075 2.183-1.811 2.183-2.462 0-.31-.403-.31-.465 0-1.409.62-.79.525-2.276 2.183-.45.495-1.41 1.735-.85 1.1-.975 1.207-.108.095-.48.17-.373.095-.604.078-.14-.015-.155-.093-.03-.092 2.493-3.205.48-.589.976-1.193.558-.743.557-1.115 0-.356-.433-.356-.666 0-2.013 1.069-1.239.975-1.905 1.889-.992 1.41-2.106 2.834a.66.66 0 0 1-.357-.047q-.232-.077-.216-.17.03-.248 2.183-3.144 1.89-2.57 2.075-2.725.078-.062.387-.062.31-.016.326.062l-.79 1.13q1.688-1.239 2.617-1.239.17 0 .356.031.527.094.527.682 0 .419-.263.867 2.013-1.564 2.973-1.564.882 0 .883.759 0 .728-.744 1.58-1.905 2.168-2.028 2.973a.27.27 0 0 0 .077.232q.093.078.31.047.588-.078 1.936-1.131 1.114-.882 1.378-1.192.123-.155.263-.155.108 0 .14.108.03.124-.093.248m6.95.124q.078.046-1.27 1.161-2.043 1.518-2.834 1.41-.82-.109-.836-.992-.51.434-1.115.713-.712.34-1.146.279-.836-.109-.836-1.007 0-.14.03-.279.14-.759 1.457-2.37 1.873-2.29 2.075-2.4a.54.54 0 0 1 .294-.077q.201-.015.201.108 0 .14-.573.976-.913 1.316-1.1 1.61a44 44 0 0 0-.851 1.363q-.31.59-.356 1.038-.062.51.279.511a.6.6 0 0 0 .278-.078q1.239-.526 3.051-2.91a99 99 0 0 1 1.874-2.54.54.54 0 0 1 .294-.078q.201-.015.201.108 0 .14-.572.976-.915 1.3-1.1 1.61-1.1 1.704-1.192 2.432-.078.465.263.465.588 0 2.168-1.286 1.332-1.177 1.069-1.022a.2.2 0 0 1 .17-.077q.186 0 .186.154 0 .093-.109.202"/></mask><path fill="#fff" d="M39.062 35.646a8.8 8.8 0 0 1-1.053 1.41q-.573.603-1.224 1.052a1.7 1.7 0 0 1-.356.217 9 9 0 0 1-.433.186 3.9 3.9 0 0 1-1.038.294q-.495.062-.944-.015a2.4 2.4 0 0 1-.976-.45q-.403-.309-.635-.882a2.54 2.54 0 0 1-.201-1.146q.046-.62.325-.976a.86.86 0 0 1 .387-.325q.495-.186.681.124.125.218.062.434a.42.42 0 0 1-.278.294q-.28.124-.419-.062a.6.6 0 0 1-.093-.078q-.03-.046-.061-.015a.8.8 0 0 0-.202.34 2 2 0 0 0-.077.419q0 .201.015.387.03.17.078.279l.062.124q.03.046.062.123.758 1.116 2.369.465a6.3 6.3 0 0 0 1.394-.836 7 7 0 0 0 .604-.542q.31-.31.604-.65.294-.356.557-.713.279-.371.496-.728.123-.201.31-.51.185-.326.325-.543.65-.99 1.146-1.734t.882-1.255q1.007-1.331 2.246-2.199 1.053-.759 1.967-.944.155-.015.17.139.015.17-.248.248-.728.17-1.796.975-1.069.791-1.704 1.657-.31.42-.62.914-.293.48-.634 1.084 1.022-.913 2.044-1.192 1.021-.294 1.828 0 .804.278 1.27 1.1.465.82.371 2.105-.108.713-.48 1.394a5.9 5.9 0 0 1-.883 1.255q-.51.556-1.13.96a3.9 3.9 0 0 1-1.208.526 4.1 4.1 0 0 1-1.146.062 2.5 2.5 0 0 1-1.115-.34 1.8 1.8 0 0 1-.759-.852q-.263-.59-.046-1.564.046-.233.123-.372.093-.154.155-.186.078-.046.109.047.046.092-.016.325-.14 1.037.093 1.58.232.54.604.774.388.216.79.201.403 0 .588-.047a4 4 0 0 0 1.301-.604 4 4 0 0 0 1.053-1.099q.403-.604.635-1.254a9 9 0 0 0 .356-1.379q.124-.867-.077-1.409-.186-.542-.573-.805a1.7 1.7 0 0 0-.93-.279 3 3 0 0 0-1.13.201q-.588.202-1.177.62a5.2 5.2 0 0 0-1.053.96q-.31.558-.635 1.223-.325.666-.712 1.487m11.305-7.588q-.093.14-.263-.047-.59-.65-2.292-1.3-1.719-.65-4.305-.65-.945 0-1.983.092a36 36 0 0 0-2.168.263q-3.236.542-5.745 2.308-2.51 1.796-2.509 3.484 0 .263.062.45.387 1.548 2.71 1.548.914 0 1.75-.248 1.038-.31 2.06-1.13.417-.342.697-.604.278-.279.402-.496.202-.34.418-.279.186.016-.03.356-.202.295-.496.62a9 9 0 0 1-.697.65q-1.146.992-2.308 1.286-.929.248-1.889.248-3.128 0-3.546-2.618-.015-.109-.031-.201v-.217q0-1.92 2.447-3.624 2.554-1.796 6.473-2.276.836-.108 1.626-.155a21 21 0 0 1 1.595-.062q3.237 0 5.59.883 1.86.697 2.308 1.27.217.294.124.449m1.273 8.47q.325-.014.774-.17a3.4 3.4 0 0 0 .914-.48q.465-.34.681-.898.03-.077.062-.077h.078q.077 0 .108.093.046.077.015.108a8 8 0 0 1-.247.48q-.171.326-.573.635-.155.124-.465.263a7 7 0 0 1-.65.233 6 6 0 0 1-.744.139q-.248.015-.464 0a5 5 0 0 1-.48.34q-.403.248-.806.434a5 5 0 0 1-.774.264 2.6 2.6 0 0 1-.635.092q-.371.063-.62-.03a.9.9 0 0 1-.371-.31 1.15 1.15 0 0 1-.155-.48q-.015-.294.031-.62.077-.34.387-.882.325-.543.991-1.363l.527-.635q.31-.357.697-.775.712-.742.929-.898a1 1 0 0 1 .201-.062 1 1 0 0 1 .248 0q.093.031.047.093a50 50 0 0 0-.697.976q-.42.62-1.053 1.502-.218.341-.372.604-.154.247-.279.465l-.217.371a5 5 0 0 0-.278.604 1.7 1.7 0 0 0-.109.573q.016.248.294.264.203.015.434-.047.233-.078.45-.201.232-.124.433-.279.201-.17.356-.356-.403-.356-.465-.743a1.4 1.4 0 0 1 .078-.744 2 2 0 0 1 .464-.65q.31-.294.666-.465.371-.17.728-.186a.9.9 0 0 1 .62.186.72.72 0 0 1 .247.45q.046.278-.077.65a2.8 2.8 0 0 1-.403.774q-.248.371-.65.759zm-.945-.324q.03.015.186-.124a7 7 0 0 0 .34-.372q.202-.217.388-.48.2-.263.31-.496.123-.232.108-.402 0-.186-.201-.233-.248-.077-.635.109a1.5 1.5 0 0 0-.65.573q-.31.402-.264.836t.418.589m13.477-.744q-.403.698-1.41.96-.465.124-.805.124-.541 0-.93-.247-.448.433-.928.79-.465.355-.945.619-.465.247-.914.387t-.82.14q-1.146 0-1.146-1.116 0-.898.82-2.121 0-.015.031-.047-.294.093-.65.217a6 6 0 0 1-.666.17 1.9 1.9 0 0 1-.573.031q-.232-.03-.31-.232-.51.727-1.053 1.456-.525.713-1.1 1.44-.075.015-.232.016-.17.015-.34 0-.171 0-.294-.031-.124-.016-.124-.062 0 .03.185-.202.187-.232.496-.635.31-.417.712-.944.388-.543.79-1.115.419-.573.821-1.115.402-.558.712-.991.326-.45.527-.713a8 8 0 0 1 .217-.294q.03-.03.232-.047.217-.015.372-.015.294-.016.325.062.03.093-.65 1.007l-.96 1.316a.56.56 0 0 1 .185.294q-.216.294-.093.387.124.093.403.078.279-.031.635-.124t.604-.186a9.2 9.2 0 0 1 2.09-1.998q1.379-.96 2.416-.96 1.146 0 1.146 1.115 0 .898-.82 2.122-.171.248-.357.495-.186.233-.402.465.34.201.666.201.263 0 .68-.124.9-.279 1.131-.759.11-.108.217-.108.17 0 .17.155 0 .077-.061.14m-2.308-.929q.573-.96.573-1.642 0-.712-.635-.712-.696 0-1.719.79a8.3 8.3 0 0 0-1.78 1.905q-.806 1.176-.806 1.998 0 .712.65.712 1.038 0 2.51-1.518-.42-.34-.419-.759 0-.356.31-.62.371-.278.836-.278.31 0 .48.124m12.892.79q-.015.155-1.27 1.115Q71.44 38 70.652 38q-.45 0-.79-.248a.9.9 0 0 1-.372-.697q-.077-.929 1.286-2.075 2.183-1.811 2.183-2.462 0-.31-.403-.31-.465 0-1.409.62-.79.525-2.276 2.183-.45.495-1.41 1.735-.85 1.1-.975 1.207-.108.095-.48.17-.373.095-.604.078-.14-.015-.155-.093-.03-.092 2.493-3.205.48-.589.976-1.193.558-.743.557-1.115 0-.356-.433-.356-.666 0-2.013 1.069-1.239.975-1.905 1.889-.992 1.41-2.106 2.834a.66.66 0 0 1-.357-.047q-.232-.077-.216-.17.03-.248 2.183-3.144 1.89-2.57 2.075-2.725.078-.062.387-.062.31-.016.326.062l-.79 1.13q1.688-1.239 2.617-1.239.17 0 .356.031.527.094.527.682 0 .419-.263.867 2.013-1.564 2.973-1.564.882 0 .883.759 0 .728-.744 1.58-1.905 2.168-2.028 2.973a.27.27 0 0 0 .077.232q.093.078.31.047.588-.078 1.936-1.131 1.114-.882 1.378-1.192.123-.155.263-.155.108 0 .14.108.03.124-.093.248m6.95.124q.078.046-1.27 1.161-2.043 1.518-2.834 1.41-.82-.109-.836-.992-.51.434-1.115.713-.712.34-1.146.279-.836-.109-.836-1.007 0-.14.03-.279.14-.759 1.457-2.37 1.873-2.29 2.075-2.4a.54.54 0 0 1 .294-.077q.201-.015.201.108 0 .14-.573.976-.913 1.316-1.1 1.61a44 44 0 0 0-.851 1.363q-.31.59-.356 1.038-.062.51.279.511a.6.6 0 0 0 .278-.078q1.239-.526 3.051-2.91a99 99 0 0 1 1.874-2.54.54.54 0 0 1 .294-.078q.201-.015.201.108 0 .14-.572.976-.915 1.3-1.1 1.61-1.1 1.704-1.192 2.432-.078.465.263.465.588 0 2.168-1.286 1.332-1.177 1.069-1.022a.2.2 0 0 1 .17-.077q.186 0 .186.154 0 .093-.109.202"/><path fill="#fff" d="m39.062 35.646.076.046.004-.008zm-1.053 1.41.064.06h.001zm-1.224 1.052-.05-.073-.005.004zm-.356.217-.037-.08zm-.433.186-.033-.082h-.002zm-1.983.279-.019.086.004.001zm-.975-.45.054-.07zm-.635-.882.082-.033v-.002zm-.201-1.146-.089-.007v.002zm.325-.976.07.055.004-.007zm.387-.325-.031-.083-.005.002zm.681.124.077-.044v-.002zm-.216.728-.03-.084-.006.003zm-.419-.062.071-.053-.009-.012-.012-.009zm-.093-.078-.073.05.005.007.006.006zm-.061-.015.062.063zm-.202.34-.084-.025zm-.077.419-.089-.006v.006zm.015.387-.089.007.002.009zm.078.279-.082.035.002.004zm.062.124-.08.04.006.009zm.062.123-.083.033.004.01.005.007zm2.369.465.033.082h.002zm.697-.356.045.076zm.697-.48.054.07zm.604-.542-.063-.063zm.604-.65.067.057.001-.001zm.557-.713-.07-.053H38.2zm.496-.728-.076-.046zm.31-.51.075.045.001-.002zm.325-.543-.074-.048zm1.146-1.734-.074-.05zm.882-1.255.071.054zm2.246-2.199.05.073h.002zm1.967-.944-.01-.09-.008.003zm.17.139.088-.008zm-.248.248.02.086.005-.001zm-1.796.975.052.072h.001zm-1.704 1.657.072.053zm-.62.914-.074-.047zm-.634 1.084-.077-.043.136.11zm2.044-1.192.023.085h.002zm1.828 0-.03.083zm1.27 1.1.077-.044zm.371 2.105.088.014v-.007zm-.48 1.394-.078-.042v.001zm-.883 1.255-.065-.06zm-1.13.96.048.074zm-1.208.526.018.087h.002zm-1.146.062.006-.088zm-1.115-.34.045-.077h-.002zm-.759-.852-.08.036zm-.046-1.564.086.019v-.002zm.123-.372-.076-.046-.001.003zm.155-.186.04.08.006-.004zm.109.047-.085.028.005.011zm-.016.325-.086-.023-.002.01zm.093 1.58-.081.034zm.604.774-.047.075.004.002zm.79.201v-.089h-.003zm.588-.047.022.087zm1.301-.604-.05-.072h-.001zm1.053-1.099-.073-.05v.001zm.635-1.254.084.03v-.001zm.356-1.379.088.016v-.003zm-.077-1.409-.084.029v.002zm-.573-.805.05-.074zm-.93-.279.003-.088zm-1.13.201.029.084h.002zm-1.177.62.05.073h.002zm-1.053.96-.068-.057-.005.007-.004.007zm-.635 1.223-.08-.038zm10.593-6.101.074.049.002-.004zm-.263-.047-.066.06zm-2.292-1.3.031-.083zm-6.288-.558-.008-.088zm-2.168.263-.013-.087h-.001zm-5.745 2.308-.051-.073zm-2.447 3.933.086-.021-.002-.007zm4.46 1.301.025.085zm2.06-1.13.055.069zm.697-.604.06.064.002-.002zm.402-.496-.076-.045v.001zm.418-.279-.024.085.008.003h.009zm-.03.356.073.05.001-.002zm-.496.62.064.061.002-.002zm-.697.65-.057-.067h-.001zm-2.308 1.286-.021-.086h-.001zm-5.435-2.37-.088.013v.001zm-.031-.201h-.089v.007l.001.008zm2.447-3.84.05.072zm6.473-2.277.01.088h.001zm1.626-.155.005.089h.002zm7.186.82.03-.082zm2.307 1.27.072-.052-.002-.002zm-11.181 8.038-.076-.046a8.7 8.7 0 0 1-1.042 1.395l.065.06.065.06q.579-.626 1.064-1.423zm-1.053 1.41-.064-.062a7.7 7.7 0 0 1-1.21 1.041l.05.073.05.073a8 8 0 0 0 1.238-1.065zm-1.224 1.052-.055-.069q-.146.117-.338.206l.037.08.038.08q.21-.096.374-.227zm-.356.217-.037-.08a9 9 0 0 1-.43.184l.034.082.033.082q.234-.093.438-.187zm-.433.186-.035-.081a3.8 3.8 0 0 1-1.014.287l.011.088.011.088a4 4 0 0 0 1.062-.3zm-1.038.294-.01-.088q-.485.06-.92-.015l-.014.088-.016.087q.465.08.971.016zm-.944-.015.019-.087a2.3 2.3 0 0 1-.94-.432l-.055.07-.055.07q.436.337 1.011.465zm-.976-.45.054-.07q-.381-.291-.607-.845l-.082.033-.082.033q.24.592.663.92zm-.635-.882.081-.035a2.45 2.45 0 0 1-.194-1.107l-.088-.004-.089-.005a2.6 2.6 0 0 0 .208 1.186zm-.201-1.146.088.007q.047-.601.307-.928l-.07-.055-.07-.054c-.2.255-.312.6-.344 1.023zm.325-.976.074.048a.77.77 0 0 1 .349-.292l-.036-.08-.036-.082a.94.94 0 0 0-.426.358zm.387-.325.031.083c.158-.059.28-.074.371-.058a.29.29 0 0 1 .203.145l.076-.046.076-.046a.46.46 0 0 0-.323-.227.9.9 0 0 0-.465.066zm.681.124-.077.044a.46.46 0 0 1 .054.365l.085.025.086.024a.63.63 0 0 0-.07-.502zm.062.434-.085-.025a.33.33 0 0 1-.223.235l.03.084.03.083a.51.51 0 0 0 .334-.353zm-.278.294-.036-.081a.36.36 0 0 1-.195.04.17.17 0 0 1-.117-.074l-.07.053-.072.053a.35.35 0 0 0 .233.143.53.53 0 0 0 .292-.053zm-.419-.062.05-.074a.5.5 0 0 1-.08-.066l-.062.063-.063.062q.052.052.106.089zm-.093-.078.074-.049a.14.14 0 0 0-.083-.064.12.12 0 0 0-.115.035l.063.063.062.063-.016.01a.06.06 0 0 1-.037.001.1.1 0 0 1-.021-.01q-.004-.004 0 0zm-.061-.015-.063-.063a.9.9 0 0 0-.224.378l.085.026.085.026a.7.7 0 0 1 .18-.304zm-.202.34-.084-.025a2 2 0 0 0-.082.438l.089.006.088.006q.015-.206.074-.398zm-.077.419h-.089q0 .205.016.394l.088-.007.089-.007a5 5 0 0 1-.016-.38zm.015.387-.087.016q.032.176.083.298l.082-.035.081-.035a1.2 1.2 0 0 1-.072-.26zm.078.279-.08.04.008.015.008.015.008.016.007.015.004.008.004.008.004.008.004.007.004.008.004.008.004.008.003.007.08-.04.079-.039-.008-.015-.008-.016-.007-.015-.008-.016-.004-.008-.004-.007-.004-.008-.004-.008-.003-.008-.004-.007-.004-.008-.004-.008zm.062.124-.074.049q.024.035.053.108l.083-.034.082-.032a1 1 0 0 0-.07-.14zm.062.123-.074.05c.265.389.608.629 1.028.711.418.082.902.007 1.448-.214l-.033-.082-.033-.082c-.528.213-.975.277-1.348.204q-.553-.106-.915-.636zm2.369.465.035.081q.362-.157.707-.36l-.045-.077-.045-.076q-.336.199-.687.35zm.697-.356.045.076a7 7 0 0 0 .706-.486l-.054-.07-.055-.07a6 6 0 0 1-.687.474zm.697-.48.055.07q.299-.236.611-.55l-.062-.062-.063-.063a7 7 0 0 1-.596.535zm.604-.542.062.063q.313-.313.609-.656l-.067-.058-.067-.058q-.293.339-.6.646zm.604-.65.068.056q.296-.358.56-.716l-.07-.053-.072-.053q-.262.355-.555.709zm.557-.713.071.053q.282-.374.5-.735l-.075-.046-.076-.046a9 9 0 0 1-.49.72zm.496-.728.075.047q.124-.203.31-.512l-.075-.046L39 33.82q-.184.309-.309.51zm.31-.51.076.043q.185-.324.323-.538l-.074-.048-.075-.048q-.14.22-.328.546zm.325-.543.074.049q.65-.99 1.145-1.734l-.073-.05-.074-.049q-.496.744-1.146 1.736zm1.146-1.734.073.049q.495-.742.88-1.25l-.07-.054-.071-.053q-.39.513-.886 1.259zm.882-1.255.071.054a10 10 0 0 1 2.226-2.18l-.051-.073-.05-.072a10.1 10.1 0 0 0-2.266 2.218zm2.246-2.199.052.072q1.043-.75 1.932-.93l-.017-.086-.018-.087q-.938.192-2 .96zm1.967-.944.009.088c.038-.004.05.004.055.007.003.003.014.015.018.053l.088-.009.088-.009a.25.25 0 0 0-.082-.172.25.25 0 0 0-.185-.047zm.17.139-.088.008a.09.09 0 0 1-.029.076.4.4 0 0 1-.156.079l.025.085.025.085a.54.54 0 0 0 .231-.123.27.27 0 0 0 .08-.218zm-.248.248-.02-.087c-.503.118-1.114.452-1.83.992l.054.07.053.071c.71-.534 1.296-.85 1.763-.96zm-1.796.975-.053-.07q-1.077.795-1.722 1.675l.071.052.072.053q.625-.855 1.685-1.638zm-1.704 1.657-.07-.052q-.314.42-.624.92l.075.046.075.047q.307-.493.616-.908zm-.62.914-.075-.046q-.295.48-.636 1.087l.077.043.077.044q.34-.603.633-1.082zm-.634 1.084.059.066q1.012-.902 2.008-1.173l-.023-.085-.023-.086q-1.047.287-2.08 1.212zm2.044-1.192.025.085q1-.286 1.772-.002l.03-.083.03-.084q-.837-.304-1.881-.002zm1.828 0-.03.084q.772.264 1.222 1.059l.077-.044.078-.044q-.48-.846-1.319-1.14zm1.27 1.1-.078.043c.299.527.422 1.21.36 2.056l.09.006.087.007c.063-.868-.061-1.59-.382-2.157zm.371 2.105-.088-.013q-.105.696-.47 1.365l.078.042.078.043q.379-.694.49-1.423zm-.48 1.394-.079-.041q-.35.671-.869 1.236l.065.06.066.06q.534-.582.895-1.274zm-.883 1.255-.065-.06a5.8 5.8 0 0 1-1.114.945l.049.075.048.074q.63-.41 1.148-.975zm-1.13.96-.048-.075a3.8 3.8 0 0 1-1.18.515l.02.086.02.087a4 4 0 0 0 1.236-.539zm-1.208.526-.018-.087q-.512.106-1.122.06l-.006.09-.007.088q.63.047 1.17-.064zm-1.146.062.006-.088q-.6-.045-1.076-.329l-.045.076-.045.077q.515.304 1.153.352zm-1.115-.34.043-.078a1.72 1.72 0 0 1-.721-.811l-.081.037-.08.037q.273.597.795.892zm-.759-.852.08-.036c-.164-.368-.182-.868-.04-1.51l-.086-.018-.087-.02c-.146.66-.134 1.203.052 1.62zm-.046-1.564.087.017q.045-.224.114-.346l-.078-.043-.077-.043a1.4 1.4 0 0 0-.133.397zm.123-.372.077.046a1 1 0 0 1 .077-.113.2.2 0 0 1 .04-.04l-.039-.079-.04-.08a.3.3 0 0 0-.097.085q-.045.054-.094.135zm.155-.186.046.076.006-.003h-.009a.04.04 0 0 1-.024-.012l.002.003.004.01.084-.027.084-.029c-.013-.04-.04-.088-.092-.111-.056-.024-.11-.005-.146.017zm.109.047-.08.04a.2.2 0 0 1 .01.083 1 1 0 0 1-.031.179l.085.023.086.023q.032-.122.038-.217a.35.35 0 0 0-.029-.171zm-.016.325-.088-.012c-.093.697-.065 1.243.1 1.626l.081-.035.082-.035c-.146-.339-.18-.846-.087-1.533zm.093 1.58-.081.034c.16.373.37.648.638.815l.047-.075.047-.075c-.228-.143-.42-.384-.57-.735zm.604.774-.043.077q.406.229.836.213l-.003-.089-.003-.089a1.4 1.4 0 0 1-.744-.19zm.79.201v.089q.406 0 .61-.05l-.022-.086-.021-.086q-.168.044-.567.044zm.588-.047.023.086a4 4 0 0 0 1.33-.617l-.052-.073-.051-.072q-.575.41-1.272.59zm1.301-.604.05.073q.62-.429 1.077-1.123l-.074-.049-.074-.049a3.9 3.9 0 0 1-1.03 1.076zm1.053-1.099.074.05q.408-.614.645-1.275l-.084-.03-.083-.03q-.228.64-.625 1.236zm.635-1.254.084.029q.234-.673.36-1.392l-.088-.016-.087-.015q-.123.705-.352 1.364zm.356-1.379.088.013c.084-.586.06-1.072-.082-1.453l-.083.031-.083.031c.127.342.154.795.073 1.366zm-.077-1.409.084-.029c-.129-.375-.33-.661-.607-.85l-.05.074-.05.073c.24.163.42.413.54.76zm-.573-.805.05-.074a1.8 1.8 0 0 0-.977-.293l-.002.088-.003.089q.52.016.882.263zm-.93-.279.003-.088a3.1 3.1 0 0 0-1.163.206l.03.083.031.084a2.9 2.9 0 0 1 1.097-.196zm-1.13.201-.028-.084a4.7 4.7 0 0 0-1.2.632l.051.072.052.072a4.5 4.5 0 0 1 1.154-.608zm-1.177.62-.05-.073q-.599.41-1.07.976l.067.057.068.057q.458-.549 1.035-.944zm-1.053.96-.077-.043q-.312.56-.637 1.227l.08.04.079.038q.324-.664.633-1.219zm-.635 1.223-.08-.038q-.325.666-.712 1.487l.08.038.08.038q.387-.82.712-1.486zm10.593-6.101-.074-.05q-.015.021-.018.02h-.005c-.014-.002-.047-.018-.1-.076l-.066.06-.066.06c.06.065.127.118.201.131q.06.011.117-.017a.23.23 0 0 0 .085-.079zm-.263-.047.065-.06c-.407-.45-1.188-.889-2.326-1.323l-.031.082-.032.083c1.134.433 1.88.86 2.258 1.278zm-2.292-1.3.031-.083q-1.74-.658-4.336-.657v.178q2.574.001 4.273.644zm-4.305-.65v-.09q-.95 0-1.99.094l.007.088.008.088q1.035-.092 1.975-.092zm-1.983.092-.008-.088q-1.04.093-2.173.264l.013.087.013.088q1.128-.169 2.163-.263zm-2.168.263-.014-.087q-3.255.544-5.782 2.322l.05.073.052.072q2.49-1.754 5.709-2.292zm-5.745 2.308-.052-.072c-1.677 1.2-2.546 2.385-2.546 3.556h.178c0-1.08.804-2.218 2.471-3.412zm-2.509 3.484h-.089q0 .274.067.477l.084-.028.084-.028a1.3 1.3 0 0 1-.057-.42zm.062.45-.086.02q.203.81.913 1.218.707.4 1.883.398v-.177c-.766 0-1.362-.128-1.795-.375a1.7 1.7 0 0 1-.829-1.106zm2.71 1.548v.088q.926 0 1.775-.25l-.025-.086-.025-.085a6 6 0 0 1-1.725.244zm1.75-.248.025.085q1.058-.316 2.09-1.146l-.055-.07-.056-.069q-1.01.812-2.03 1.115zm2.06-1.13.056.068q.42-.341.701-.608l-.06-.064-.061-.065q-.276.261-.692.6zm.697-.604.062.062q.285-.282.417-.514l-.077-.044-.077-.044a2.4 2.4 0 0 1-.388.477zm.402-.496.077.045a.64.64 0 0 1 .178-.211c.05-.034.095-.04.139-.027l.024-.086.025-.085a.34.34 0 0 0-.287.05.8.8 0 0 0-.232.269zm.418-.279-.007.089c.018.001.015.005.009-.002-.008-.008-.004-.013-.005.002a.6.6 0 0 1-.102.22l.074.047.075.048a.74.74 0 0 0 .13-.3.18.18 0 0 0-.04-.134.19.19 0 0 0-.126-.058zm-.03.356-.074-.05a6 6 0 0 1-.488.61l.066.06.066.06q.297-.33.503-.63zm-.496.62-.064-.061a9 9 0 0 1-.69.644l.057.067.057.068q.405-.343.704-.657zm-.697.65-.058-.067q-1.134.98-2.271 1.267l.021.086.022.086q1.186-.301 2.344-1.305zm-2.308 1.286-.022-.086a7.2 7.2 0 0 1-1.867.245v.178q.972 0 1.912-.252zm-1.889.248v-.09c-1.031 0-1.827-.215-2.398-.636-.569-.42-.924-1.051-1.06-1.906l-.088.014-.088.014c.143.89.517 1.568 1.13 2.02s1.45.672 2.504.672zm-3.546-2.618.088-.012q-.015-.109-.032-.204l-.087.015-.088.015.031.199zm-.031-.201h.088v-.216h-.177v.216zm0-.217h.088c0-1.238.788-2.422 2.41-3.55l-.051-.074-.051-.072c-1.641 1.142-2.485 2.374-2.485 3.696zm2.447-3.624.05.073q2.533-1.782 6.434-2.261l-.011-.088-.01-.088q-3.937.48-6.514 2.292zm6.473-2.276.011.088a23 23 0 0 1 1.62-.154l-.005-.089-.005-.088q-.793.045-1.633.155zm1.626-.155.007.088a21 21 0 0 1 1.588-.061v-.177q-.794 0-1.602.062zm1.595-.062v.089q3.225 0 5.56.877l.03-.083.032-.083q-2.373-.89-5.622-.889zm5.59.883-.03.083q.925.347 1.494.66c.381.21.636.405.774.581l.07-.054.07-.055q-.244-.307-.829-.627-.585-.321-1.517-.671zm2.308 1.27-.071.052c.069.094.108.17.125.23.016.06.01.096-.006.121l.076.046.076.045a.32.32 0 0 0 .025-.259.9.9 0 0 0-.154-.288zm1.397 8.92v.088h.004zm.774-.17-.028-.085zm.914-.48.052.071zm.681-.899-.082-.033v.001zm.248.016-.084.028.003.009.005.008zm.015.108-.062-.063-.012.012-.007.015zm-.247.48-.078-.042v.001zm-.573.635-.054-.07h-.002zm-.465.263.035.082h.001zm-.65.233.022.085h.003zm-.744.139.006.089.005-.001zm-.464 0 .006-.088-.035-.003-.027.022zm-.48.34.046.076zm-.806.434.035.082.002-.001zm-.774.264-.022-.086zm-.635.092v-.088h-.007l-.008.001zm-.62-.03-.037.08.006.002zm-.371-.31-.076.046.003.004zm-.155-.48-.089.004.001.005zm.031-.62-.087-.02v.008zm.387-.882-.076-.046v.002zm.991-1.363-.068-.057zm.527-.635-.067-.058-.001.001zm.697-.775-.064-.06h-.001zm.929-.898-.04-.08-.012.008zm.201-.062-.009-.088-.01.002zm.248 0 .028-.085-.013-.002zm.047.093-.071-.053zm-.697.976-.073-.05zM49.596 34.5l-.072-.052-.003.005zm-.372.604.075.047.001-.002zm-.279.465.076.045.001-.001zm-.217.371-.076-.044-.001.001zm-.278.604-.083-.031-.001.002zm-.109.573h-.089v.006zm.294.264.007-.089h-.002zm.434-.047.023.086.005-.002zm.45-.201-.043-.079-.002.002zm.433-.279.054.07.003-.002zm.356-.356.068.057.055-.066-.064-.058zm-.465-.743.088-.015zm.078-.744-.082-.035v.003zm.464-.65-.06-.064zm.666-.465-.037-.08h-.001zm.728-.186-.004-.088zm.62.186.057-.068h-.002zm.247.45.088-.015zm-.077.65-.084-.028v.002zm-.403.774-.072-.051-.002.002zm-.65.759-.062-.064-.158.152h.22zm-.82-.325.039-.08-.006-.002zm.185-.124.06.066.003-.004zm.34-.372-.064-.06-.003.002zm.388-.48-.07-.054-.003.003zm.31-.496-.079-.041-.002.004zm.108-.402h-.09l.002.008zm-.201-.233-.027.085.007.002zm-.635.109.035.081.003-.001zm-.65.573.07.054.003-.006zm-.264.836-.088.01zm1.363.914.004.088q.342-.016.799-.175l-.029-.084-.029-.083a2.8 2.8 0 0 1-.75.165zm.774-.17.028.084q.48-.16.938-.493l-.052-.072-.052-.071q-.44.318-.89.467zm.914-.48.052.07q.486-.356.712-.937l-.083-.032-.083-.032a1.9 1.9 0 0 1-.65.859zm.681-.899.083.033.017-.035-.006.005a.1.1 0 0 1-.032.008v-.177a.13.13 0 0 0-.1.053.3.3 0 0 0-.044.08zm.062-.077v.088h.078v-.177h-.078zm.078 0v.088l.006.001.002.001q.004.002.016.03l.084-.027.084-.028a.24.24 0 0 0-.069-.11.2.2 0 0 0-.123-.044zm.108.093-.076.045.012.024.003.009.002-.012a.1.1 0 0 1 .012-.02l.062.062.063.063a.14.14 0 0 0 .037-.118.3.3 0 0 0-.04-.099zm.015.108-.08-.036q-.06.134-.245.474l.078.042.078.043q.185-.341.25-.487zm-.247.48-.079-.041c-.106.202-.286.404-.548.606l.054.07.054.07q.414-.316.597-.664zm-.573.635-.056-.07q-.142.115-.445.252l.036.081.036.081a2.3 2.3 0 0 0 .484-.275zm-.465.263-.034-.081a7 7 0 0 1-.642.229l.026.085.025.084q.36-.11.66-.235zm-.65.233-.023-.086q-.35.091-.731.137l.01.088.01.088q.394-.047.756-.142zm-.744.139-.005-.088q-.243.015-.453 0l-.006.088-.007.088q.224.017.477 0zm-.464 0-.056-.07q-.229.184-.471.336l.047.075.047.075q.252-.157.488-.347zm-.48.34-.047-.075a8 8 0 0 1-.796.429l.037.08.037.08q.408-.187.815-.438zm-.806.434-.034-.081a5 5 0 0 1-.761.259l.021.086.021.086q.38-.096.788-.268zm-.774.264-.022-.086q-.35.09-.613.09v.178q.293 0 .657-.097zm-.635.092-.014-.087c-.24.04-.428.028-.574-.026l-.031.082-.032.083c.185.07.409.079.666.036zm-.62-.03.038-.08a.8.8 0 0 1-.336-.28l-.073.05-.073.05a1 1 0 0 0 .407.34zm-.371-.31.076-.047a1.06 1.06 0 0 1-.143-.443l-.088.01-.088.01q.032.295.167.516zm-.155-.48.089-.005q-.015-.285.03-.602l-.088-.013-.088-.012q-.047.333-.031.636zm.031-.62.087.02q.07-.322.377-.858l-.077-.044-.077-.044q-.314.547-.396.907zm.387-.882.076.045q.32-.534.984-1.352l-.069-.056-.069-.056q-.668.822-.998 1.373zm.991-1.363.069.056.526-.635-.068-.056-.068-.057q-.295.357-.527.635zm.527-.635.067.058q.309-.355.695-.772l-.065-.06-.065-.06q-.388.418-.699.776zm.697-.775.064.062c.477-.498.78-.79.916-.888l-.051-.072-.052-.072q-.23.167-.941.91zm.929-.898.04.08a1 1 0 0 1 .18-.055l-.019-.087-.019-.086q-.142.03-.222.069zm.201-.062.01.089q.148-.015.224-.001l.014-.088.015-.087a1 1 0 0 0-.272 0zm.248 0-.028.085q.014.005.017.007-.001.001-.01-.013a.05.05 0 0 1-.005-.033q.005-.012.002-.006l.07.053.071.053c.025-.032.05-.088.02-.147-.024-.048-.073-.07-.109-.083zm.047.093-.072-.052q-.264.357-.698.977l.073.05.072.052a49 49 0 0 1 .696-.974zm-.697.976-.074-.05q-.417.618-1.051 1.5l.072.052.072.052q.635-.883 1.054-1.505zM49.596 34.5l-.075-.047q-.218.341-.373.606l.076.045.076.045q.154-.261.37-.601zm-.372.604-.075-.047q-.156.249-.28.468l.076.044.077.044q.123-.216.277-.462zm-.279.465-.076-.046-.217.373.076.044.077.045.216-.37zm-.217.371-.077-.043q-.159.285-.284.616l.083.031.082.032a4.6 4.6 0 0 1 .274-.593zm-.278.604-.084-.029a1.8 1.8 0 0 0-.114.602h.178q0-.245.103-.543zm-.109.573-.088.006c.006.1.04.187.11.25.07.062.163.09.267.096l.005-.089.005-.088c-.08-.005-.13-.025-.158-.051s-.048-.064-.052-.13zm.294.264-.006.088q.219.016.463-.05l-.023-.085-.023-.086a1.2 1.2 0 0 1-.404.044zm.434-.047.028.084q.24-.08.465-.208l-.044-.077-.044-.077q-.21.12-.433.194zm.45-.201.04.078q.24-.127.447-.287l-.054-.07-.054-.07q-.195.15-.422.27zm.433-.279.057.068q.207-.176.367-.367l-.068-.057-.068-.057q-.15.18-.346.345zm.356-.356.059-.067c-.26-.228-.4-.46-.436-.69l-.088.014-.087.014c.045.284.215.55.493.795zm-.465-.743.088-.015a1.3 1.3 0 0 1 .072-.697l-.082-.032-.083-.032a1.5 1.5 0 0 0-.082.79zm.078-.744.081.035q.147-.337.444-.621l-.06-.064-.062-.064q-.321.305-.484.679zm.464-.65.061.064q.3-.285.644-.449l-.039-.08-.038-.08a2.7 2.7 0 0 0-.689.48zm.666-.465.037.08q.359-.163.695-.177l-.004-.089-.004-.088q-.376.016-.76.194zm.728-.186.004.089a.8.8 0 0 1 .56.166l.056-.069.056-.069a.98.98 0 0 0-.68-.205zm.62.186-.058.068q.176.148.218.396l.087-.015.088-.014a.8.8 0 0 0-.278-.503zm.247.45-.087.014c.028.167.006.368-.074.608l.084.028.084.028q.13-.386.08-.693zm-.077.65-.085-.026a2.7 2.7 0 0 1-.39.749l.072.051.073.051q.3-.425.415-.8zm-.403.774-.073-.05q-.242.363-.639.745l.062.064.061.064q.409-.393.663-.774zm-.65.759v.088h.124v-.177h-.124zm-.82-.325-.04.079c.04.02.079.007.093.002a.3.3 0 0 0 .057-.03q.056-.038.134-.11l-.06-.065-.058-.066a1 1 0 0 1-.129.102l-.004.002h-.002.003l.007-.001a.1.1 0 0 1 .038.007zm.185-.124.063.062q.157-.157.345-.376l-.067-.058-.068-.058a7 7 0 0 1-.336.367zm.34-.372.066.06a5 5 0 0 0 .394-.489l-.072-.051-.073-.051q-.182.259-.38.47zm.388-.48.07.054q.206-.27.32-.512l-.08-.038-.08-.037a2.6 2.6 0 0 1-.3.48zm.31-.496.078.042c.086-.162.13-.315.118-.452l-.088.008-.088.008c.008.09-.02.205-.099.353zm.108-.402h.089a.3.3 0 0 0-.072-.21.36.36 0 0 0-.198-.109l-.02.086-.02.087a.2.2 0 0 1 .104.053c.016.02.028.047.028.093zm-.201-.233.026-.084c-.197-.062-.434-.015-.7.113l.039.08.038.08c.25-.12.437-.146.57-.104zm-.635.109-.036-.081a1.6 1.6 0 0 0-.689.605l.074.049.074.048q.252-.383.612-.54zm-.65.573-.071-.054c-.218.283-.315.584-.281.9l.088-.01.088-.01c-.028-.262.05-.518.245-.772zm-.264.836-.088.01a.84.84 0 0 0 .144.405q.12.17.328.255l.034-.081.034-.082a.57.57 0 0 1-.252-.194.67.67 0 0 1-.112-.322zm13.895-.155-.063-.062-.008.008-.006.01zm-1.41.96-.022-.085zm-1.734-.123.048-.075-.06-.038-.05.049zm-.93.79-.052-.072-.001.001zm-.944.619.042.078zm-.914.387-.026-.085zm-1.146-3.097.074.049.015-.022v-.027zm.031-.047.063.063-.09-.147zm-.65.217.027.085.002-.001zm-.666.17.017.087zm-.573.031-.012.088h.001zm-.31-.232.083-.032-.06-.155-.095.136zm-1.053 1.456-.07-.053h-.001zm-1.1 1.44.018.087.032-.007.02-.025zm-.232.016v-.09l-.008.001zm-.34 0 .008-.09H52.2zm-.294-.031.021-.087-.01-.002zm.062-.264.069.056zm.495-.635.07.054.001-.001zm.712-.944.07.053.002-.002zm.79-1.115-.071-.053-.001.002zm.821-1.115.071.053v-.002zm.712-.991-.072-.052zm.527-.713.07.054.002-.002zm.217-.294-.063-.063zm.232-.047-.006-.088zm.372-.015v.089h.004zm.325.062.084-.028-.002-.005zm-.65 1.007-.072-.053zm-.96 1.316-.072-.052-.052.07.07.053zm.185.294.072.053.026-.036-.013-.043zm.31.465.005.088h.005zm.635-.124.022.086zm.604-.186.03.083.025-.01.016-.02zm2.09-1.998-.05-.073zm2.741 2.277.073.05.001-.001zm-.356.495.07.056.001-.003zm-.402.465-.065-.06-.076.08.096.056zm1.347.077.025.085h.001zm1.13-.759-.062-.062-.01.01-.007.014zm-1.982-.743-.052.072.079.057.05-.083zm-1.78-1.564.053.07zm-1.782 1.905-.073-.05zm2.354 1.192.064.062.067-.07-.075-.06zm-.108-1.378-.053-.071-.005.003zm3.624.774-.077-.044c-.253.439-.7.747-1.355.919l.022.085.023.086c.687-.18 1.18-.51 1.463-1.001zm-1.41.96-.022-.085q-.458.12-.783.12v.178q.356 0 .828-.127zm-.805.124v-.088q-.52-.002-.881-.234l-.048.075-.048.074q.413.263.977.262zm-.93-.247-.06-.064a9 9 0 0 1-.921.782l.053.071.053.072q.485-.36.938-.798zm-.928.79-.054-.071a7 7 0 0 1-.934.612l.043.078.043.077q.486-.266.956-.626zm-.945.619-.042-.079a5 5 0 0 1-.898.381l.026.085.027.085q.458-.142.929-.394zm-.914.387-.026-.085q-.439.136-.794.136v.177q.387 0 .847-.143zm-.82.14v-.09c-.37 0-.63-.09-.798-.253s-.26-.415-.26-.773h-.177c0 .386.1.692.313.9.214.208.527.304.922.304zm-1.146-1.116h.088c0-.573.263-1.262.806-2.072l-.074-.05-.073-.049c-.552.822-.836 1.547-.836 2.171zm.82-2.121h.09q-.002.017-.005.024l-.003.005.003-.004.01-.01-.064-.062-.062-.062a.3.3 0 0 0-.035.04.13.13 0 0 0-.022.069zm.031-.047-.026-.084q-.296.093-.653.217l.029.084.03.084q.354-.124.647-.216zm-.65.217-.027-.084a6 6 0 0 1-.656.167l.017.087.017.087q.33-.064.676-.172zm-.666.17-.017-.087q-.314.06-.545.03l-.01.088-.012.088q.266.032.6-.032zm-.573.031.012-.087a.3.3 0 0 1-.152-.057.26.26 0 0 1-.087-.12l-.083.032-.082.032a.44.44 0 0 0 .38.288zm-.31-.232-.072-.05q-.51.726-1.052 1.453l.071.053.071.053q.543-.729 1.055-1.458zm-1.053 1.456-.071-.053q-.525.712-1.098 1.438l.07.055.07.055q.573-.729 1.1-1.443zm-1.1 1.44-.017-.087a1 1 0 0 1-.215.014v.177q.159 0 .25-.017zm-.232.016-.008-.089q-.162.015-.324 0l-.008.089-.008.088q.178.015.357 0zm-.34 0v-.09q-.163 0-.273-.028l-.021.087-.022.086q.138.033.316.033zm-.294-.031.01-.088a.4.4 0 0 1-.064-.015l.007.007q.01.013.011.033h-.177c0 .065.046.101.08.118a.4.4 0 0 0 .121.032zm-.124-.062h-.089a.091.091 0 0 0 .099.092.1.1 0 0 0 .038-.012l.016-.01a.4.4 0 0 0 .047-.045q.051-.055.144-.171l-.07-.056-.069-.055a3 3 0 0 1-.152.18l-.006.005.007-.005a.1.1 0 0 1 .03-.008.086.086 0 0 1 .093.084zm.185-.202.07.056q.187-.234.496-.637l-.07-.054-.07-.054q-.31.403-.495.634zm.496-.635.071.053q.31-.417.712-.944l-.07-.053-.071-.054q-.403.526-.713.946zm.712-.944.072.051q.388-.542.79-1.115l-.072-.051-.072-.051q-.403.573-.79 1.114zm.79-1.115.072.052q.417-.573.82-1.114l-.071-.053-.071-.053q-.404.542-.821 1.115zm.821-1.115.072.052q.403-.558.712-.992l-.072-.051-.072-.052q-.31.434-.712.99zm.712-.991.072.052q.326-.45.525-.711l-.07-.054-.07-.054q-.203.265-.529.715zm.527-.713.072.052.196-.268c.012-.016.014-.018.011-.016l-.062-.062-.063-.063a5.178 5.178 0 0 0-.07.091l-.156.214zm.217-.294.062.063c-.008.008-.014.009-.005.005l.034-.008q.05-.01.148-.018l-.007-.089-.007-.088a2 2 0 0 0-.17.02.4.4 0 0 0-.06.017.2.2 0 0 0-.058.035zm.232-.047.006.089q.215-.015.366-.015v-.178q-.16 0-.378.016zm.372-.015.004.088a1 1 0 0 1 .208.007.1.1 0 0 1 .038.011c.004.003-.003 0-.007-.011l.082-.033.082-.033a.16.16 0 0 0-.07-.077.3.3 0 0 0-.092-.031 1 1 0 0 0-.25-.01zm.325.062-.084.028c-.007-.02 0-.031-.005-.017l-.02.047q-.033.067-.113.192-.16.248-.5.703l.071.053.072.053q.34-.457.506-.713a2 2 0 0 0 .123-.21 1 1 0 0 0 .031-.075.15.15 0 0 0 .003-.09zm-.65 1.007-.072-.053-.96 1.317.071.052.072.052.96-1.316zm-.96 1.316-.054.07a.47.47 0 0 1 .154.25l.085-.026.085-.026a.65.65 0 0 0-.218-.34zm.185.294-.071-.052a.8.8 0 0 0-.147.275.26.26 0 0 0-.001.128q.019.066.073.107l.053-.07.053-.072q-.007-.005-.008-.011a.1.1 0 0 1 .003-.04.7.7 0 0 1 .117-.212zm-.093.387-.053.071c.108.081.269.106.46.095l-.004-.088-.005-.089c-.18.01-.288-.017-.345-.06zm.403.078.01.088a5 5 0 0 0 .647-.127l-.022-.085-.023-.086a4.5 4.5 0 0 1-.622.121zm.635-.124.022.086q.36-.094.613-.19l-.031-.082-.031-.083q-.242.09-.596.183zm.604-.186.07.053a9.1 9.1 0 0 1 2.071-1.978l-.05-.073-.051-.072a9.3 9.3 0 0 0-2.111 2.017zm2.09-1.998.051.073c.913-.636 1.7-.944 2.365-.944v-.178c-.718 0-1.541.332-2.466.976zm2.416-.96v.089c.37 0 .63.09.798.253.168.164.26.416.26.773h.177c0-.386-.1-.692-.313-.9-.214-.207-.527-.304-.922-.304zm1.146 1.115h-.088c0 .573-.263 1.263-.806 2.072l.073.05.074.049c.551-.822.836-1.547.836-2.171zm-.82 2.122-.074-.05q-.168.246-.354.492l.071.053.071.053q.187-.249.358-.498zm-.357.495-.069-.055a8 8 0 0 1-.398.46l.065.06.064.06a8 8 0 0 0 .407-.47zm-.402.465-.045.076q.357.212.71.214v-.177q-.296.001-.62-.19zm.666.201v.089a2.6 2.6 0 0 0 .706-.128l-.025-.085-.025-.085q-.412.121-.657.12zm.68-.124.027.085c.606-.188 1.013-.45 1.184-.805l-.08-.039-.08-.038c-.138.286-.484.529-1.076.713zm1.131-.759.063.063c.063-.062.114-.082.154-.082v-.178a.4.4 0 0 0-.28.135zm.217-.108v.089c.045 0 .063.01.068.015.004.004.014.015.014.05h.177a.24.24 0 0 0-.071-.18.27.27 0 0 0-.188-.063zm.17.155h-.088c0 .025-.009.05-.036.077l.063.062.062.063a.28.28 0 0 0 .088-.202zm-2.369-.79.076.046c.386-.646.586-1.21.586-1.687h-.177c0 .43-.182.961-.56 1.596zm.573-1.642h.089c0-.248-.055-.451-.181-.593-.128-.143-.315-.207-.543-.207v.177c.195 0 .326.054.41.148.086.096.136.25.136.475zm-.635-.712v-.088c-.495 0-1.087.278-1.773.808l.054.07.055.07c.677-.523 1.23-.771 1.664-.771zm-1.719.79-.054-.07a8.4 8.4 0 0 0-1.8 1.925l.073.05.074.05a8.2 8.2 0 0 1 1.761-1.885zm-1.78 1.905-.074-.05c-.54.79-.82 1.474-.82 2.047h.177c0-.52.256-1.168.79-1.947zm-.806 1.998h-.089c0 .249.057.452.186.594.13.142.32.206.553.206v-.177c-.2 0-.335-.054-.422-.149-.088-.096-.14-.249-.14-.474zm.65.712v.088c.731 0 1.59-.53 2.573-1.544l-.064-.062-.063-.062c-.98 1.01-1.793 1.491-2.446 1.491zm2.51-1.518.055-.069c-.264-.215-.385-.445-.385-.69h-.177c0 .313.157.59.45.828zm-.419-.759h.089c0-.207.089-.39.278-.551l-.057-.068-.058-.068c-.223.19-.34.42-.34.687zm.31-.62.053.072a1.27 1.27 0 0 1 .783-.261v-.177q-.494 0-.89.296zm.836-.278v.089c.196 0 .335.04.428.107l.052-.072.052-.072c-.134-.097-.315-.14-.532-.14zm13.372.914-.063-.063-.022.023-.004.031zm-1.27 1.115.053.07zm-3.624 1.316-.052.072zm-.372-.697.089-.006v-.001zm1.286-2.075-.057-.068zm.371-2.152-.048-.075zm-2.276 2.183.066.06zm-1.41 1.735-.07-.055zm-.975 1.207.058.068zm-.48.17-.018-.086h-.004zm-.604.078-.01.088h.004zm-.155-.093.088-.017-.004-.01zm2.493-3.205-.068-.056zm.976-1.193.069.057.002-.004zm-1.89-.402.055.07zm-1.904 1.889-.072-.052v.001zm-2.106 2.834.019.087.03-.007.02-.025zm-.357-.047.03-.083h-.002zm-.216-.17.087.015v-.004zm2.183-3.144.071.053zm2.075-2.725-.055-.07-.001.002zm.387-.062v.089h.005zm.326.062.073.05.021-.03-.007-.038zm-.79 1.13-.073-.05.125.122zm2.973-1.208.016-.087h-.001zm.264 1.55-.077-.046.131.115zm3.112.773.067.059zm-2.028 2.974-.088-.014v.004zm.077.232-.063.063.006.005zm.31.047-.012-.088zm1.936-1.131.054.07zm1.378-1.192.067.057.002-.002zm.403-.047.085-.021v-.003zm-.093.248-.089-.009c.001-.01.004-.008-.008.011a1 1 0 0 1-.054.066q-.076.084-.233.221-.314.276-.94.755l.054.07.054.071q.627-.48.949-.762.161-.141.247-.236a1 1 0 0 0 .07-.087.2.2 0 0 0 .038-.091zm-1.27 1.115-.054-.07q-1.02.78-1.72 1.165c-.47.26-.821.38-1.06.38v.178c.287 0 .671-.14 1.146-.402q.716-.397 1.742-1.18zM70.652 38v-.089q-.422 0-.738-.23l-.052.071-.052.072q.365.265.842.265zm-.79-.248.052-.072a.8.8 0 0 1-.335-.63l-.089.005-.088.006c.022.324.158.581.408.763zm-.372-.697.089-.007c-.048-.573.348-1.239 1.254-2l-.057-.068-.057-.068c-.912.767-1.373 1.485-1.317 2.15zm1.286-2.075.056.068q1.096-.907 1.648-1.53a3.6 3.6 0 0 0 .42-.558c.093-.162.148-.31.148-.442h-.177c0 .085-.037.202-.125.353q-.13.225-.4.529-.538.608-1.627 1.512zm2.183-2.462h.089a.36.36 0 0 0-.136-.303.58.58 0 0 0-.356-.096v.178c.126 0 .204.024.248.059.04.031.067.08.067.162zm-.403-.31v-.088q-.259.002-.62.162-.36.159-.837.472l.048.074.049.074q.468-.307.812-.458c.23-.101.411-.147.549-.147zm-1.409.62-.049-.074q-.806.539-2.293 2.198l.066.06.066.058c.99-1.104 1.743-1.824 2.26-2.169zm-2.276 2.183-.066-.06q-.453.501-1.414 1.74l.07.055.07.054q.96-1.238 1.405-1.73zm-1.41 1.735-.07-.055q-.425.55-.668.85-.122.151-.197.239-.076.089-.099.107l.059.066.058.067q.04-.035.117-.125t.2-.242q.245-.303.67-.853zm-.975 1.207-.058-.067a.5.5 0 0 1-.146.073 2 2 0 0 1-.294.078l.018.087.018.087q.19-.04.317-.085a.7.7 0 0 0 .203-.105zm-.48.17-.022-.085q-.365.09-.576.075l-.006.088-.006.089q.253.016.631-.08zm-.604.078.01-.088a.2.2 0 0 1-.073-.019q-.007-.004-.006-.004v.001l-.086.017-.087.018c.023.114.134.153.232.163zm-.155-.093.084-.028a.1.1 0 0 1 .002.042q0 .005 0 0l.022-.038q.033-.054.108-.16.15-.209.462-.609.623-.8 1.884-2.356l-.069-.056-.069-.056a163 163 0 0 0-1.886 2.36q-.312.4-.466.615-.076.106-.115.17a1 1 0 0 0-.042.085.1.1 0 0 0 0 .06zm2.493-3.205.069.056.975-1.193-.068-.056-.069-.056-.975 1.193zm.976-1.193.07.053q.283-.375.427-.663c.096-.191.15-.36.15-.505h-.178c0 .104-.04.244-.13.425q-.135.27-.41.637zm.557-1.115h.09a.41.41 0 0 0-.142-.335c-.095-.078-.227-.11-.381-.11v.178c.134 0 .219.028.269.069.046.038.076.098.076.198zm-.433-.356v-.088c-.244 0-.538.096-.878.277q-.514.272-1.19.81l.055.07.055.07a8 8 0 0 1 1.163-.794c.33-.175.594-.256.795-.256zm-2.013 1.069-.055-.07q-1.246.981-1.922 1.907l.072.052.071.052q.657-.9 1.888-1.872zm-1.905 1.889-.073-.051a69 69 0 0 1-2.103 2.83l.07.055.07.055a69 69 0 0 0 2.108-2.838zm-2.106 2.834-.02-.087c-.069.016-.17.006-.307-.043l-.03.083-.03.084a.75.75 0 0 0 .406.05zm-.357-.047.028-.084a.5.5 0 0 1-.143-.066c-.024-.02-.011-.02-.014-.005l-.087-.015-.088-.014c-.013.076.03.135.08.173a.7.7 0 0 0 .196.096zm-.216-.17.088.011q-.002.001.006-.02l.025-.054q.035-.067.104-.18.14-.225.41-.616.546-.785 1.621-2.232l-.07-.053-.072-.052a93 93 0 0 0-1.624 2.236q-.273.393-.416.624a3 3 0 0 0-.11.192.5.5 0 0 0-.05.133zm2.183-3.144.072.053q.945-1.285 1.462-1.966.26-.339.411-.528c.104-.13.164-.197.187-.216l-.057-.068-.056-.068a2 2 0 0 0-.212.24q-.154.192-.414.533-.519.682-1.464 1.968zm2.075-2.725.056.07a.2.2 0 0 1 .094-.03 2 2 0 0 1 .237-.013v-.178q-.158 0-.265.017a.4.4 0 0 0-.177.065zm.387-.062.005.088a1 1 0 0 1 .215.007.1.1 0 0 1 .033.01c.001 0-.01-.007-.014-.026l.087-.017.087-.018a.14.14 0 0 0-.067-.09.3.3 0 0 0-.093-.033 1.2 1.2 0 0 0-.257-.01zm.326.062-.073-.05-.79 1.13.073.05.073.051.79-1.13zm-.79 1.13.052.072q.84-.616 1.484-.92c.43-.204.79-.302 1.081-.302v-.178c-.328 0-.715.11-1.157.32q-.664.314-1.513.937zm2.617-1.239v.09q.162 0 .342.029l.014-.088.015-.087a2 2 0 0 0-.37-.032zm.356.031-.015.088c.16.028.269.091.34.183.072.094.113.227.113.41h.177c0-.208-.046-.384-.15-.518a.7.7 0 0 0-.45-.25zm.527.682h-.089q.002.39-.25.822l.076.045.076.045q.275-.465.276-.912zm-.263.867.054.07q1.004-.779 1.737-1.165c.49-.258.883-.38 1.182-.38v-.178c-.342 0-.765.138-1.265.401q-.753.397-1.763 1.182zm2.973-1.564v.089c.284 0 .48.06.604.168.122.105.19.266.19.502h.177c0-.27-.079-.488-.251-.637-.17-.146-.415-.21-.72-.21zm.883.759h-.089c0 .455-.233.96-.721 1.521l.066.058.067.059c.502-.576.765-1.122.765-1.638zm-.744 1.58-.066-.06q-.954 1.087-1.466 1.837c-.34.496-.54.892-.584 1.182l.088.014.087.013c.038-.247.217-.614.555-1.11q.503-.736 1.453-1.818zm-2.028 2.973-.089-.01a.36.36 0 0 0 .103.305l.063-.063.063-.063a.18.18 0 0 1-.052-.16zm.077.232-.057.068c.092.077.229.088.38.066l-.013-.087-.013-.088c-.138.02-.208 0-.24-.027zm.31.047.011.087c.214-.028.486-.142.812-.332q.49-.287 1.167-.816l-.054-.07-.055-.07q-.67.525-1.148.803c-.32.186-.567.286-.745.31zm1.936-1.131.055.07c.741-.587 1.208-.99 1.39-1.205l-.067-.057-.068-.058c-.168.199-.62.59-1.365 1.18zm1.378-1.192.069.055c.073-.092.138-.122.194-.122v-.177c-.13 0-.24.073-.332.188zm.263-.155v.088c.021 0 .03.005.035.009.004.003.013.012.02.035l.085-.024.085-.024a.24.24 0 0 0-.081-.127.23.23 0 0 0-.144-.046zm.14.108-.087.022c.01.041 0 .093-.07.163l.064.063.062.063c.096-.096.147-.209.117-.332zm6.857.372-.062-.063-.08.08.097.059zm-1.27 1.161.053.072.004-.003zm-2.834 1.41.012-.088zm-.836-.992.089-.001-.004-.187-.142.12zm-1.115.713-.037-.08h-.001zm-1.146.279.013-.088h-.002zM73.7 36.73l.086.02.001-.004zm1.456-2.37-.07-.055zm2.075-2.4.042.079.005-.004zm.294-.077v.089h.007zm-.372 1.084.073.05zm-1.1 1.61.075.048zm-.851 1.363-.077-.043-.001.002zm-.356 1.038.088.01v-.001zm.557.433-.034-.081-.005.002zm3.051-2.91.07.053.002-.003zm1.874-2.54-.047-.076-.014.009-.01.013zm.294-.078v.089h.007zm-.371 1.084.072.05zm-1.1 1.61.075.049.001-.003zm-1.192 2.432.087.014v-.003zm2.43-.82.057.068.003-.002zm1.07-1.023-.07-.055.114.131zm.247.279-.045.076a.08.08 0 0 1-.039-.075c.002-.014.006-.02.004-.016a.3.3 0 0 1-.036.046q-.065.072-.222.217-.316.288-.988.845l.056.068.057.069q.675-.558.994-.851.161-.146.235-.23a.5.5 0 0 0 .059-.078.14.14 0 0 0 .017-.052.1.1 0 0 0-.006-.05.1.1 0 0 0-.04-.045zm-1.27 1.161-.053-.07q-1.018.754-1.717 1.102c-.47.233-.816.322-1.052.29l-.012.088-.012.087c.292.04.68-.07 1.155-.306q.719-.358 1.744-1.12zm-2.834 1.41.012-.088c-.258-.034-.442-.128-.563-.272-.123-.145-.191-.352-.196-.633l-.089.001-.089.002c.006.307.082.56.238.745.157.186.387.294.676.332zm-.836-.992-.057-.067q-.502.426-1.095.7l.037.08.037.08a5 5 0 0 0 1.135-.725zm-1.115.713-.038-.08c-.47.225-.833.308-1.095.27l-.013.089-.012.087c.315.045.717-.057 1.196-.286zm-1.146.279.011-.088c-.263-.034-.449-.129-.57-.275-.122-.147-.189-.358-.189-.644h-.177c0 .312.073.569.23.757.157.19.39.3.684.337zm-.836-1.007h.088q0-.13.03-.26l-.087-.019-.087-.02q-.033.15-.033.299zm.03-.279.088.016c.043-.237.181-.55.422-.941q.36-.585 1.015-1.388l-.069-.056-.068-.056q-.66.808-1.03 1.407c-.244.398-.395.733-.444 1.002zm1.457-2.37.068.057a89 89 0 0 1 1.454-1.744q.26-.3.412-.461.075-.081.125-.126a.4.4 0 0 1 .058-.048l-.042-.078-.042-.078a.5.5 0 0 0-.095.075 3 3 0 0 0-.133.133q-.158.165-.417.467-.52.6-1.457 1.748zm2.075-2.4.047.075a.46.46 0 0 1 .247-.063v-.178a.63.63 0 0 0-.341.091zm.294-.077.007.088c.061-.004.09.003.102.01q.005.002.002 0 .001-.001.002.01h.177a.18.18 0 0 0-.097-.167.37.37 0 0 0-.2-.03zm.201.108h-.088l-.005.02-.023.057a2 2 0 0 1-.103.192q-.14.24-.427.657l.073.05.073.05q.288-.42.433-.667.073-.124.112-.209a.4.4 0 0 0 .044-.15zm-.573.976-.073-.05a69 69 0 0 0-1.101 1.613l.075.047.075.048q.182-.291 1.097-1.608zm-1.1 1.61-.074-.047a44 44 0 0 0-.854 1.367l.077.043.077.044q.137-.243.85-1.359zm-.851 1.363-.078-.041q-.317.597-.366 1.07l.088.009.088.009q.043-.426.346-1.005zm-.356 1.038-.088-.01c-.022.175-.011.326.049.436.065.119.178.174.318.174V37.4c-.088 0-.135-.03-.163-.081-.033-.06-.048-.166-.028-.33zm.279.511v.089c.1 0 .207-.032.318-.087l-.04-.08-.04-.079a.55.55 0 0 1-.238.068zm.278-.078.035.082c.85-.36 1.878-1.349 3.087-2.94l-.07-.053-.072-.053c-1.207 1.589-2.212 2.542-3.014 2.883zm3.051-2.91.072.05a98 98 0 0 1 1.873-2.537l-.071-.054-.07-.053a99 99 0 0 0-1.876 2.542zm1.874-2.54.047.075a.46.46 0 0 1 .247-.064v-.178a.63.63 0 0 0-.341.091zm.294-.078.007.088c.061-.004.091.003.102.01q.005.002.003 0v.01h.178a.181.181 0 0 0-.097-.167.37.37 0 0 0-.2-.03zm.201.108h-.088l-.005.02-.023.057a2 2 0 0 1-.103.192q-.14.24-.427.657l.073.05.074.05q.287-.42.433-.667.073-.124.111-.209a.4.4 0 0 0 .044-.15zm-.572.976-.073-.051q-.913 1.3-1.103 1.616l.076.046.076.045q.182-.304 1.096-1.605zm-1.1 1.61-.075-.047q-.551.854-.852 1.468-.302.612-.353 1l.088.01.087.012q.043-.34.337-.944.294-.6.843-1.45zm-1.192 2.432-.088-.015c-.027.162-.022.303.038.407.064.113.178.161.313.161v-.178c-.092 0-.136-.029-.16-.07-.028-.051-.04-.142-.016-.29zm.263.465v.088c.222 0 .519-.119.881-.334q.55-.326 1.343-.971l-.056-.069-.056-.069q-.787.641-1.321.957c-.36.213-.62.309-.791.309zm2.168-1.286.059.066q.666-.588.935-.846c.088-.084.15-.146.177-.183a.2.2 0 0 0 .023-.039.1.1 0 0 0 .004-.059.09.09 0 0 0-.073-.066.1.1 0 0 0-.044.002l-.021.008-.037.019.046.076.044.076.018-.009-.005.001c-.001 0-.015.005-.032.001a.09.09 0 0 1-.068-.062c-.007-.027.001-.047.002-.05q.008-.015.002-.005a2 2 0 0 1-.158.162q-.266.255-.93.842zm1.069-1.022.069.055q.031-.043.1-.044V35a.3.3 0 0 0-.239.112zm.17-.077v.088c.052 0 .074.011.082.018.006.005.015.015.015.048h.177a.23.23 0 0 0-.078-.184.3.3 0 0 0-.196-.06zm.186.154h-.089c0 .027-.016.073-.082.14l.062.062.063.062c.078-.078.134-.167.134-.264z" mask="url(#a)"/><mask id="b" width="33" height="14" x="52.895" y="38.779" fill="#000" maskUnits="userSpaceOnUse"><path fill="#fff" d="M52.895 38.779h33v14h-33z"/><path d="M63.597 39.297q.65.232 1.022 1.069.387.82.387 1.998 0 3.066-2.153 5.884-1.47 1.92-3.283 3.067-1.796 1.13-3.36 1.13-1.13 0-1.952-.62-1.161-.866-1.161-2.74 0-2.571 1.905-5.142 2.508-3.406 5.048-4.258.248-.078.34 0 .156.108-.247.247-.666.217-1.765 1.084a11.8 11.8 0 0 0-2.71 2.927q-1.38 2.122-1.379 4.398 0 2.23 1.332 2.958.62.34 1.394.34 2.648 0 5.374-3.468 2.214-2.819 2.214-5.807 0-1.069-.325-1.797-.31-.743-.852-.913a1.8 1.8 0 0 0-.62-.109q-1.548 0-3.205 2.462-.883 1.333-.883 2.463.001.68.356.883.217.108.465.108 1.022 0 1.92-1.394.249-.372.372-.294.201.092 0 .449-.31.573-1.022 1.1-.805.603-1.533.603-.403 0-.728-.2-.681-.404-.681-1.503 0-1.007.557-1.967a6.8 6.8 0 0 1 2.013-2.199q1.256-.883 2.4-.883.404 0 .76.124m7.922 10.005q-.263.418-1.626 1.47-1.347 1.054-2.54 1.054a.9.9 0 0 1-.62-.217q-.246-.217-.247-.589 0-.325.186-.526.542-.542.542-.82 0-.11-.062-.202-.123-.154-.433-.186-.528.248-.883.294a.45.45 0 0 1-.356-.077.33.33 0 0 1-.109-.279q.047-.232.558-.279.155-.015.449-.015a6 6 0 0 0 1.688-.93q1.533-1.191 1.533-1.78 0-.217-.279-.217-.635 0-1.858.852-.558.371-1.595 1.347-1.1 1.022-1.533 1.595A52 52 0 0 1 62.8 51.81a.67.67 0 0 1-.356-.046q-.232-.078-.217-.17.032-.249 2.184-3.144.743-1.007 2.927-4.15 1.828-2.617 2.973-4.089.899-1.146 1.642-1.146.51 0 .51.542 0 .635-.712 1.797a10 10 0 0 1-1.393 1.811q-1.41 1.425-2.757 2.03-.34.48-1.719 2.4.387-.325.759-.651a7.6 7.6 0 0 1 1.038-.728q1.3-.774 2.292-.774.743 0 .743.495 0 .883-2.122 2.292-.65.434-1.316.744.573.108.712.402a.9.9 0 0 1 .062.326q0 .217-.124.495-.108.201-.2.387-.126.264-.125.387 0 .233.356.217.852-.046 2.37-1.3.48-.356.867-.806.14-.17.294-.17.124 0 .124.124 0 .093-.093.216m.279-9.617q-.542 0-2.4 2.849l-1.317 1.967q.914-.465 2.044-1.58a8.2 8.2 0 0 0 1.27-1.626q.573-.946.573-1.378 0-.233-.17-.233m1.377 11.243q-.03-.62 1.192-2.215l-.65.217q-.356.108-.697.186a2.4 2.4 0 0 1-.588.046q-.249-.03-.326-.248-.51.728-1.053 1.456-.525.712-1.1 1.44a.5.5 0 0 1-.17 0 1 1 0 0 1-.185-.046.5.5 0 0 1-.155-.078q-.062-.046-.062-.093.015-.231 2.183-3.143.945-1.3 1.456-1.967.527-.681.62-.759.06-.062.387-.062.294-.016.325.062.03.093-.65 1.007l-.96 1.316q.123.093.185.294-.233.31-.093.403.14.078.434.062a4 4 0 0 0 .681-.14q.373-.108.604-.2a23 23 0 0 1 .279-.342q.806-1.083 1.796-2.384a.54.54 0 0 1 .295-.078q.2-.015.2.109 0 .14-.572.975-.915 1.3-1.1 1.61-1.1 1.704-1.192 2.432-.078.465.263.465.588 0 2.168-1.286 1.41-1.13 1.146-.975a.2.2 0 0 1 .17-.078q.186 0 .186.155 0 .094-.108.201.078.047-1.347 1.115-2.045 1.518-2.834 1.41-.82-.11-.728-.867m12.243-1.626q.171.015-1.254 1.084-2.045 1.517-2.834 1.409-.837-.109-.836-.96 0-.202.062-.419-1.24 1.425-2.153 1.379-.96-.047-.96-1.177 0-1.053.99-2.308a8.7 8.7 0 0 1 2.355-2.075q1.254-.728 2.121-.728.372 0 .589.17.216.171.17.527a9 9 0 0 1 .434-.418.4.4 0 0 1 .217-.077.5.5 0 0 1 .248 0q.093.015.046.093-.51.728-1.734 2.555-1.1 1.704-1.193 2.431-.078.465.263.465.589 0 2.168-1.286 1.41-1.13 1.053-.944a.2.2 0 0 1 .17-.078q.187 0 .078.356m-2.292-2.447a.84.84 0 0 0 .186-.542q0-.465-.449-.465-.48 0-1.223.48a7.2 7.2 0 0 0-1.549 1.363q-1.672 1.89-1.672 3.128 0 .527.356.527.402 0 1.27-.837.728-.697 1.316-1.486a39 39 0 0 1 1.765-2.168"/></mask><path fill="#fff" d="M63.597 39.297q.65.232 1.022 1.069.387.82.387 1.998 0 3.066-2.153 5.884-1.47 1.92-3.283 3.067-1.796 1.13-3.36 1.13-1.13 0-1.952-.62-1.161-.866-1.161-2.74 0-2.571 1.905-5.142 2.508-3.406 5.048-4.258.248-.078.34 0 .156.108-.247.247-.666.217-1.765 1.084a11.8 11.8 0 0 0-2.71 2.927q-1.38 2.122-1.379 4.398 0 2.23 1.332 2.958.62.34 1.394.34 2.648 0 5.374-3.468 2.214-2.819 2.214-5.807 0-1.069-.325-1.797-.31-.743-.852-.913a1.8 1.8 0 0 0-.62-.109q-1.548 0-3.205 2.462-.883 1.333-.883 2.463.001.68.356.883.217.108.465.108 1.022 0 1.92-1.394.249-.372.372-.294.201.092 0 .449-.31.573-1.022 1.1-.805.603-1.533.603-.403 0-.728-.2-.681-.404-.681-1.503 0-1.007.557-1.967a6.8 6.8 0 0 1 2.013-2.199q1.256-.883 2.4-.883.404 0 .76.124m7.922 10.005q-.263.418-1.626 1.47-1.347 1.054-2.54 1.054a.9.9 0 0 1-.62-.217q-.246-.217-.247-.589 0-.325.186-.526.542-.542.542-.82 0-.11-.062-.202-.123-.154-.433-.186-.528.248-.883.294a.45.45 0 0 1-.356-.077.33.33 0 0 1-.109-.279q.047-.232.558-.279.155-.015.449-.015a6 6 0 0 0 1.688-.93q1.533-1.191 1.533-1.78 0-.217-.279-.217-.635 0-1.858.852-.558.371-1.595 1.347-1.1 1.022-1.533 1.595A52 52 0 0 1 62.8 51.81a.67.67 0 0 1-.356-.046q-.232-.078-.217-.17.032-.249 2.184-3.144.743-1.007 2.927-4.15 1.828-2.617 2.973-4.089.899-1.146 1.642-1.146.51 0 .51.542 0 .635-.712 1.797a10 10 0 0 1-1.393 1.811q-1.41 1.425-2.757 2.03-.34.48-1.719 2.4.387-.325.759-.651a7.6 7.6 0 0 1 1.038-.728q1.3-.774 2.292-.774.743 0 .743.495 0 .883-2.122 2.292-.65.434-1.316.744.573.108.712.402a.9.9 0 0 1 .062.326q0 .217-.124.495-.108.201-.2.387-.126.264-.125.387 0 .233.356.217.852-.046 2.37-1.3.48-.356.867-.806.14-.17.294-.17.124 0 .124.124 0 .093-.093.216m.279-9.617q-.542 0-2.4 2.849l-1.317 1.967q.914-.465 2.044-1.58a8.2 8.2 0 0 0 1.27-1.626q.573-.946.573-1.378 0-.233-.17-.233m1.377 11.243q-.03-.62 1.192-2.215l-.65.217q-.356.108-.697.186a2.4 2.4 0 0 1-.588.046q-.249-.03-.326-.248-.51.728-1.053 1.456-.525.712-1.1 1.44a.5.5 0 0 1-.17 0 1 1 0 0 1-.185-.046.5.5 0 0 1-.155-.078q-.062-.046-.062-.093.015-.231 2.183-3.143.945-1.3 1.456-1.967.527-.681.62-.759.06-.062.387-.062.294-.016.325.062.03.093-.65 1.007l-.96 1.316q.123.093.185.294-.233.31-.093.403.14.078.434.062a4 4 0 0 0 .681-.14q.373-.108.604-.2a23 23 0 0 1 .279-.342q.806-1.083 1.796-2.384a.54.54 0 0 1 .295-.078q.2-.015.2.109 0 .14-.572.975-.915 1.3-1.1 1.61-1.1 1.704-1.192 2.432-.078.465.263.465.588 0 2.168-1.286 1.41-1.13 1.146-.975a.2.2 0 0 1 .17-.078q.186 0 .186.155 0 .094-.108.201.078.047-1.347 1.115-2.045 1.518-2.834 1.41-.82-.11-.728-.867m12.243-1.626q.171.015-1.254 1.084-2.045 1.517-2.834 1.409-.837-.109-.836-.96 0-.202.062-.419-1.24 1.425-2.153 1.379-.96-.047-.96-1.177 0-1.053.99-2.308a8.7 8.7 0 0 1 2.355-2.075q1.254-.728 2.121-.728.372 0 .589.17.216.171.17.527a9 9 0 0 1 .434-.418.4.4 0 0 1 .217-.077.5.5 0 0 1 .248 0q.093.015.046.093-.51.728-1.734 2.555-1.1 1.704-1.193 2.431-.078.465.263.465.589 0 2.168-1.286 1.41-1.13 1.053-.944a.2.2 0 0 1 .17-.078q.187 0 .078.356m-2.292-2.447a.84.84 0 0 0 .186-.542q0-.465-.449-.465-.48 0-1.223.48a7.2 7.2 0 0 0-1.549 1.363q-1.672 1.89-1.672 3.128 0 .527.356.527.402 0 1.27-.837.728-.697 1.316-1.486a39 39 0 0 1 1.765-2.168"/><path fill="#fff" d="m63.597 39.297.03-.083h-.001zm1.022 1.069-.081.036v.002zm-1.766 7.882.07.054zm-3.283 3.067.047.075zm-5.312.51.054-.07zm.744-7.882.07.053h.001zm5.048-4.258-.026-.085h-.002zm.34 0-.056.068.006.004zm-.247.247.027.085h.002zm-1.765 1.084.054.07zm-2.71 2.927-.075-.048zM55.62 51.3l.043-.078zm6.768-3.128.07.055zm1.889-7.604-.082.034.001.002zm-.852-.913-.03.083.004.001zm-3.825 2.353-.073-.049zm-.526 3.346-.044.077.004.002zm2.384-1.286-.073-.049-.001.001zm.372-.294-.047.076.01.004zm0 .449-.077-.044v.002zm-1.022 1.1-.053-.072zm-2.261.402.047-.075-.002-.001zm-.124-3.469.077.045zm5.172-2.958-.03.084c.405.144.73.478.972 1.02l.08-.035.082-.036c-.255-.572-.61-.95-1.074-1.116zm1.023 1.069-.08.038q.376.797.378 1.96h.177q.001-1.192-.395-2.036zm.387 1.998h-.089q.001 3.032-2.134 5.83l.07.054.07.054q2.17-2.839 2.171-5.938zm-2.153 5.884-.07-.053q-1.463 1.909-3.26 3.045l.047.075.047.075q1.827-1.156 3.307-3.088zm-3.283 3.067-.047-.075q-1.782 1.119-3.313 1.117v.177c1.064 0 2.2-.385 3.407-1.144zm-3.36 1.13v-.088q-1.104-.001-1.898-.602l-.054.07-.053.072q.847.637 2.005.637zm-1.952-.62.053-.07c-.745-.557-1.126-1.44-1.126-2.67h-.177c0 1.268.394 2.212 1.197 2.812zm-1.161-2.74h.088q-.002-2.535 1.888-5.089l-.071-.053-.072-.052c-1.278 1.725-1.922 3.457-1.922 5.194zm1.905-5.142.071.053c1.667-2.265 3.337-3.668 5.005-4.227l-.028-.084-.028-.085c-1.718.577-3.414 2.012-5.092 4.29zm5.048-4.258.027.084a.6.6 0 0 1 .182-.035c.045 0 .066.01.075.019l.057-.069.057-.068a.3.3 0 0 0-.189-.059.8.8 0 0 0-.235.043zm.34 0-.05.072c.018.013.008.012.006-.005-.003-.02.009-.025-.002-.014a.3.3 0 0 1-.074.047q-.06.03-.156.064l.03.083.028.084q.105-.036.177-.072a.5.5 0 0 0 .12-.08.16.16 0 0 0 .052-.135.18.18 0 0 0-.08-.117zm-.247.247-.027-.084c-.46.15-1.059.52-1.793 1.099l.055.07.054.069c.732-.577 1.31-.93 1.738-1.07zm-1.765 1.084-.054-.07a11.9 11.9 0 0 0-2.73 2.949l.074.048.074.049a11.7 11.7 0 0 1 2.69-2.905zm-2.71 2.927-.075-.048q-1.391 2.141-1.392 4.446h.177q-.001-2.247 1.364-4.35zm-1.379 4.398h-.088c0 1.503.449 2.529 1.378 3.036l.042-.078.043-.078c-.848-.463-1.286-1.408-1.286-2.88zm1.332 2.958-.043.078q.642.352 1.437.352v-.178q-.754 0-1.351-.33zm1.394.34v.09c1.806 0 3.62-1.183 5.443-3.503l-.07-.055-.07-.055c-1.81 2.306-3.579 3.435-5.303 3.435zm5.374-3.468.07.055c1.485-1.892 2.233-3.846 2.233-5.862h-.177q.001 2.953-2.196 5.752zm2.214-5.807h.089q0-1.082-.333-1.833l-.081.036-.081.036q.316.706.317 1.76zm-.325-1.797.082-.034c-.212-.51-.512-.84-.907-.964l-.027.084-.026.085c.327.103.595.381.796.863zm-.852-.913.03-.084a1.9 1.9 0 0 0-.65-.114v.178q.311 0 .59.103zm-.62-.109v-.089c-1.08 0-2.172.857-3.278 2.502l.073.05.074.049c1.102-1.638 2.148-2.423 3.132-2.423zm-3.205 2.462-.074-.048c-.594.896-.897 1.734-.897 2.51h.177c0-.73.285-1.534.868-2.413zm-.883 2.463h-.088c0 .464.12.801.4.96l.044-.078.044-.077c-.194-.11-.311-.36-.311-.805zm.356.883-.04.079q.238.117.505.117v-.177a.94.94 0 0 1-.425-.099zm.465.108v.089c.727 0 1.39-.497 1.995-1.435l-.075-.048-.074-.048c-.593.92-1.21 1.353-1.846 1.353zm1.92-1.394.074.05q.121-.182.198-.24a.14.14 0 0 1 .05-.028h.004q-.001 0 0 0l.046-.076.047-.075c-.09-.057-.186-.016-.257.04a1.2 1.2 0 0 0-.235.28zm.372-.294-.037.08q.03.015.038.03.01.014.011.049a.56.56 0 0 1-.09.246l.078.044.077.044a.7.7 0 0 0 .112-.334q.002-.077-.039-.144a.26.26 0 0 0-.113-.096zm0 .449-.078-.042q-.296.55-.997 1.07l.053.072.053.07c.481-.355.833-.731 1.047-1.128zm-1.022 1.1-.053-.071c-.528.395-1.02.586-1.48.586v.178c.51 0 1.04-.213 1.586-.623zm-1.533.603v-.088q-.38 0-.681-.188l-.047.075-.047.076q.348.214.775.214zm-.728-.2.045-.077c-.417-.247-.638-.71-.638-1.426h-.177c0 .75.234 1.288.725 1.578zm-.681-1.503h.088q0-.98.546-1.922l-.077-.045-.077-.044q-.568.978-.569 2.011zm.557-1.967.077.044a6.74 6.74 0 0 1 1.987-2.17l-.05-.073-.052-.072a6.9 6.9 0 0 0-2.039 2.227zm2.013-2.199.051.073c.827-.582 1.61-.867 2.35-.867v-.177c-.788 0-1.605.303-2.452.899zm2.4-.883v.09q.39 0 .73.118l.03-.084.029-.083a2.4 2.4 0 0 0-.788-.13zm8.682 10.128-.07-.053-.005.006zm-1.626 1.472-.054-.07zm-3.16.836.06-.067zm-.061-1.115-.063-.063-.002.003zm.48-1.022.074-.05-.005-.005zm-.433-.186.008-.088-.024-.003-.022.01zm-.883.294-.012-.088zm-.356-.077-.064.063.01.007zm-.109-.279-.087-.017-.001.008zm.558-.279.008.089zm.449-.015v.089h.015l.014-.005zm1.688-.93.054.07zm-.604-1.145.049.073h.002zm-1.595 1.347.06.065zm-1.533 1.595-.071-.053-.001.001zM62.8 51.81l.02.087.03-.007.02-.024zm-.356-.046.03-.084h-.002zm-.217-.17.088.014v-.003zm2.184-3.144.071.053zm2.927-4.15-.073-.051zm2.973-4.089-.07-.055zm1.44 1.193-.075-.047zm-1.393 1.811.063.063zm-2.757 2.03-.036-.082-.022.01-.014.02zm-1.719 2.4-.072-.052.13.12zm.759-.651-.056-.068-.002.001zm1.038-.728.044.077zm.913 2.013-.049-.073zm-1.316.744-.037-.08-.25.116.27.05zm.712.402.083-.033-.003-.005zm-.062.821.079.042.002-.006zm-.2.387-.08-.04-.001.003zm.231.604.004.089h.001zm2.37-1.3-.053-.072-.004.003zm.867-.806.067.058.002-.002zm-1.796-6.597.073.05v-.002zm-1.317 1.967-.073-.05-.19.283.303-.154zm2.044-1.58-.061-.063zm1.394 6.38-.075-.047q-.118.193-.522.559-.404.365-1.083.89l.054.07.054.07q.684-.528 1.093-.899c.272-.246.46-.445.554-.595zm-1.626 1.472-.054-.07c-.89.695-1.717 1.034-2.486 1.034v.177c.822 0 1.688-.362 2.595-1.072zm-2.54 1.053v-.089a.82.82 0 0 1-.56-.195l-.06.067-.057.067q.276.239.677.238zm-.62-.217.06-.067c-.144-.125-.218-.296-.218-.522h-.178c0 .27.091.492.279.656zm-.247-.589h.089c0-.199.056-.351.162-.466l-.065-.06-.065-.06a.83.83 0 0 0-.21.587zm.186-.526.063.063q.275-.275.418-.49c.093-.142.15-.275.15-.394h-.178c0 .067-.033.164-.12.296q-.128.195-.396.462zm.542-.82h.089a.44.44 0 0 0-.077-.251l-.074.049-.074.049a.27.27 0 0 1 .047.152zm-.062-.202.07-.056c-.105-.13-.278-.197-.495-.218l-.008.088-.01.088c.197.02.313.077.374.153zm-.433-.186-.038-.08q-.52.243-.857.286l.012.088.011.088q.376-.05.91-.302zm-.883.294-.013-.087c-.127.018-.22-.006-.289-.06l-.054.07-.055.07a.54.54 0 0 0 .423.095zm-.356-.077.062-.063c-.066-.066-.09-.134-.083-.207l-.088-.009-.088-.009a.42.42 0 0 0 .134.35zm-.109-.279.087.017c.009-.042.039-.085.115-.123.08-.04.198-.07.364-.084l-.008-.089-.008-.088q-.264.023-.427.102c-.109.054-.187.135-.21.248zm.558-.279.008.088a5 5 0 0 1 .44-.014v-.178q-.295 0-.457.016zm.449-.015.03.084a6.1 6.1 0 0 0 1.712-.943l-.054-.07-.054-.07a6 6 0 0 1-1.664.915zm1.688-.93.054.07q.77-.598 1.163-1.053c.257-.3.405-.567.405-.797h-.178c0 .162-.108.387-.362.681q-.374.436-1.137 1.03zm1.533-1.78h.089a.28.28 0 0 0-.104-.233.42.42 0 0 0-.264-.073v.178c.084 0 .13.016.155.035.02.016.035.04.035.093zm-.279-.217v-.089c-.23 0-.504.077-.819.221a7.3 7.3 0 0 0-1.09.647l.05.073.052.072q.608-.423 1.062-.63c.304-.14.552-.205.745-.205zm-1.858.852-.05-.074q-.568.38-1.606 1.356l.06.065.061.065q1.037-.974 1.584-1.339zm-1.595 1.347-.06-.065q-1.102 1.023-1.544 1.607l.07.053.071.053q.425-.562 1.523-1.583zm-1.533 1.595-.072-.052q-.727 1.005-1.53 2.01l.068.055.07.056a52 52 0 0 0 1.535-2.017zM62.8 51.81l-.019-.086c-.07.015-.17.006-.307-.044l-.03.084-.03.083a.75.75 0 0 0 .406.05zm-.356-.046.028-.084a.5.5 0 0 1-.143-.067c-.024-.019-.012-.02-.014-.005l-.088-.014-.087-.015c-.013.076.03.135.08.173a.7.7 0 0 0 .196.096zm-.217-.17.088.01.007-.02.025-.053q.035-.068.104-.18.138-.224.41-.617a93 93 0 0 1 1.621-2.231l-.071-.053-.071-.053a93 93 0 0 0-1.624 2.236q-.273.393-.416.624a3 3 0 0 0-.11.193.5.5 0 0 0-.05.133zm2.184-3.144.071.052q.745-1.008 2.929-4.152l-.073-.05-.073-.051q-2.183 3.143-2.925 4.148zm2.927-4.15.073.05q1.827-2.616 2.97-4.084l-.07-.055-.07-.054q-1.148 1.473-2.976 4.092zm2.973-4.089.07.055c.597-.761 1.12-1.112 1.572-1.112v-.178c-.54 0-1.11.414-1.712 1.18zm1.642-1.146v.089c.155 0 .256.04.319.107.063.068.103.178.103.346h.177c0-.193-.045-.354-.151-.467-.108-.114-.263-.164-.448-.164zm.51.542h-.088c0 .397-.225.977-.7 1.75l.076.047.076.046c.476-.776.725-1.393.725-1.843zm-.712 1.797-.075-.047q-.63 1.03-1.382 1.796l.064.062.063.062q.767-.782 1.406-1.827zm-1.393 1.811-.063-.062q-1.403 1.416-2.73 2.01l.036.081.036.081q1.368-.613 2.784-2.047zm-2.757 2.03-.072-.052q-.34.48-1.719 2.4l.072.051.072.052a789 789 0 0 0 1.72-2.4zm-1.719 2.4.057.067q.388-.325.76-.651l-.058-.067-.058-.067q-.371.325-.758.65zm.759-.651.056.069q.522-.43 1.026-.72l-.044-.077-.045-.077a8 8 0 0 0-1.05.737zm1.038-.728.045.076c.86-.512 1.608-.761 2.247-.761v-.178c-.683 0-1.464.267-2.338.787zm2.292-.774v.089c.24 0 .405.04.508.108.096.065.146.16.146.298h.178a.5.5 0 0 0-.226-.445c-.145-.097-.352-.139-.606-.139zm.743.495h-.089c0 .26-.157.578-.507.955q-.518.562-1.575 1.264l.05.073.048.074q1.066-.707 1.608-1.291c.358-.387.554-.746.554-1.075zm-2.122 2.292-.049-.073q-.645.43-1.304.736l.037.08.037.081a10 10 0 0 0 1.328-.75zm-1.316.744-.016.087c.375.07.574.197.648.353l.08-.038.08-.038c-.112-.236-.387-.378-.776-.451zm.712.402-.082.033a.8.8 0 0 1 .056.293h.177a1 1 0 0 0-.068-.358zm.062.326h-.088q.001.191-.117.46l.081.035.081.036q.13-.29.132-.531zm-.124.495-.078-.042q-.109.203-.202.39l.08.04.078.039q.093-.184.2-.385zm-.2.387-.081-.037c-.083.175-.132.32-.132.425h.177c0-.061.033-.174.115-.35zm-.125.387h-.088c0 .105.042.192.131.246.082.05.192.065.317.06l-.004-.089-.003-.088c-.113.005-.18-.011-.218-.034-.03-.018-.046-.044-.046-.095zm.356.217.005.089c.303-.017.656-.14 1.056-.36q.603-.33 1.365-.961l-.056-.069-.057-.068q-.755.624-1.337.943c-.39.214-.715.323-.98.338zm2.37-1.3.053.07q.488-.361.881-.818l-.067-.058-.067-.058a5.3 5.3 0 0 1-.853.792zm.867-.806.069.056c.083-.102.158-.138.225-.138v-.177c-.14 0-.26.078-.363.203zm.294-.17v.088c.028 0 .032.007.03.005-.001-.001.005.003.005.03h.178a.21.21 0 0 0-.057-.155.21.21 0 0 0-.156-.057zm.124.124h-.088c0 .033-.018.087-.076.163l.071.053.071.054a.47.47 0 0 0 .11-.27zm.186-9.4v-.09c-.124 0-.263.079-.41.199a4.3 4.3 0 0 0-.529.546q-.605.719-1.536 2.146l.075.048.074.048q.928-1.422 1.523-2.128.297-.353.506-.523c.143-.117.24-.158.297-.158zm-2.4 2.849-.074-.05-1.316 1.967.073.05.074.05 1.316-1.968zm-1.317 1.967.04.079q.93-.476 2.067-1.596l-.063-.063-.062-.063q-1.125 1.109-2.022 1.564zm2.044-1.58.062.063q.707-.69 1.284-1.643l-.076-.046-.075-.046a8.1 8.1 0 0 1-1.256 1.609zm1.27-1.626.076.046q.288-.475.436-.829c.097-.234.15-.433.15-.595h-.177q.002.19-.137.527a6 6 0 0 1-.423.805zm.573-1.378h.089a.4.4 0 0 0-.06-.227.24.24 0 0 0-.199-.094v.177c.034 0 .048.01.056.022.013.017.026.053.026.122zm1.207 11.01.088.011v-.015zm1.192-2.214.07.054.177-.23-.275.092zm-.65.217.026.085.002-.001zm-.697.186.017.087h.003zm-.588.046-.011.088h.005zm-.326-.248.084-.03-.058-.16-.098.14zm-1.053 1.456-.07-.053h-.001zm-1.1 1.44.018.087.032-.006.02-.026zm-.17 0-.014.088zm-.185-.046.028-.084zm-.155-.078-.053.071zm-.062-.093-.089-.005v.005zm2.183-3.143.071.053.001-.001zm1.456-1.967-.07-.054zm.62-.759.056.069.006-.006zm.387-.062v.089h.004zm.325.062.084-.028-.002-.005zm-.65 1.007-.072-.053zm-.96 1.316-.072-.052-.052.07.07.053zm.185.294.071.053.027-.036-.013-.043zm-.093.403-.05.074.007.004zm.434.062.004.089h.005zm.681-.14.025.086zm.604-.2.033.081.022-.008.014-.018zm.279-.342.068.057.003-.004zm1.796-2.384-.047-.076-.013.01-.01.012zm.295-.078v.09l.006-.001zm-.372 1.084.073.051zm-1.1 1.61.075.049.001-.003zm-1.192 2.432.087.015v-.004zm2.431-.82-.055-.07zm1.146-.976-.069-.056.114.132zm.248.279-.063-.063-.08.08.097.059zm-1.347 1.114.053.072zm-2.834 1.41.012-.088zm-.728-.867.088-.005c-.009-.18.075-.45.273-.817q.292-.545.902-1.339l-.07-.054-.071-.054q-.615.8-.918 1.363c-.2.372-.304.678-.293.91zm1.192-2.215-.028-.084-.65.217.028.084.028.084.65-.217zm-.65.217-.026-.085a10 10 0 0 1-.69.184l.019.087.02.086q.343-.078.703-.187zm-.697.186-.016-.087q-.317.06-.567.045l-.005.088-.006.089q.277.015.61-.048zm-.588.046.01-.088a.33.33 0 0 1-.162-.06.27.27 0 0 1-.09-.13l-.084.03-.083.03a.45.45 0 0 0 .398.306zm-.326-.248-.072-.05q-.51.727-1.052 1.453l.071.053.071.053q.543-.729 1.055-1.458zm-1.053 1.456-.071-.053q-.525.711-1.098 1.438l.07.055.07.055q.573-.73 1.1-1.442zm-1.1 1.44-.017-.087a.4.4 0 0 1-.138 0l-.015.087-.014.088q.106.017.202 0zm-.17 0 .015-.087a1 1 0 0 1-.172-.043l-.028.084-.028.084q.099.033.199.05zm-.185-.046.028-.084a.5.5 0 0 1-.13-.065l-.053.071-.053.071a.6.6 0 0 0 .18.09zm-.155-.078.053-.07a.1.1 0 0 1-.026-.025c-.003-.004 0-.003 0 .002h-.178c0 .074.049.128.097.164zm-.062-.093.088.006q-.001.007.005-.014l.023-.052q.034-.065.102-.177.136-.221.408-.614.545-.785 1.628-2.24l-.07-.052-.072-.053a91 91 0 0 0-1.631 2.244q-.274.393-.414.623-.071.115-.109.19l-.03.069a.2.2 0 0 0-.017.065zm2.183-3.143.072.052a99 99 0 0 1 1.454-1.965l-.07-.054-.07-.054q-.513.667-1.457 1.969zm1.456-1.967.07.054q.262-.34.417-.528c.105-.13.166-.198.19-.217l-.058-.068-.056-.068a2 2 0 0 0-.213.24q-.157.192-.42.533zm.62-.759.062.063.015-.007a.4.4 0 0 1 .064-.015q.087-.014.246-.014v-.177q-.166 0-.274.016a.5.5 0 0 0-.096.024.2.2 0 0 0-.08.047zm.387-.062.004.089a1 1 0 0 1 .207.006.1.1 0 0 1 .039.012c.004.002-.003 0-.007-.012l.082-.033.082-.033a.16.16 0 0 0-.07-.077.3.3 0 0 0-.092-.031 1 1 0 0 0-.25-.01zm.325.062-.084.028c-.007-.02 0-.031-.005-.017a.3.3 0 0 1-.02.048 2 2 0 0 1-.113.191q-.16.248-.5.704l.071.053.072.053q.34-.458.506-.714.083-.127.123-.209a1 1 0 0 0 .031-.075.15.15 0 0 0 .003-.09zm-.65 1.007-.072-.053-.96 1.317.071.052.072.052.96-1.316zm-.96 1.316-.054.071a.47.47 0 0 1 .154.25l.085-.027.085-.026a.65.65 0 0 0-.218-.339zm.185.294-.07-.053a.8.8 0 0 0-.156.289.25.25 0 0 0 .002.134.2.2 0 0 0 .082.107l.05-.074.048-.074q-.011-.008-.01-.013a.1.1 0 0 1 .001-.04.7.7 0 0 1 .124-.222zm-.093.403-.043.078c.115.063.28.083.481.072l-.004-.088-.005-.089c-.191.01-.315-.011-.386-.05zm.434.062.009.088q.32-.032.697-.142l-.025-.085-.025-.086a3.7 3.7 0 0 1-.665.137zm.681-.14.025.086q.375-.11.612-.205l-.033-.082-.033-.082q-.226.09-.596.198zm.604-.2.07.055q.123-.154.277-.34l-.068-.056-.068-.057q-.156.186-.28.342zm.279-.342.071.053q.805-1.083 1.796-2.384l-.07-.053-.071-.054q-.992 1.301-1.797 2.386zm1.796-2.384.047.075a.46.46 0 0 1 .248-.064v-.177a.63.63 0 0 0-.342.09zm.295-.078.006.089c.062-.005.091.003.102.009l.003.001.001.01h.178a.181.181 0 0 0-.097-.167.37.37 0 0 0-.2-.03zm.2.109h-.088l-.005.019-.023.057a2 2 0 0 1-.103.192q-.141.24-.426.657l.073.05.073.05q.287-.419.433-.667.073-.123.112-.208a.4.4 0 0 0 .044-.15zm-.572.975-.073-.05q-.913 1.299-1.103 1.615l.076.046.076.045q.182-.303 1.097-1.605zm-1.1 1.61-.074-.047q-.552.855-.853 1.468-.302.613-.353 1l.088.011.088.011q.042-.34.336-.944.295-.6.843-1.45zm-1.192 2.432-.088-.014c-.026.16-.021.302.038.406.064.113.178.161.313.161v-.177c-.092 0-.135-.03-.159-.071-.028-.05-.041-.142-.017-.29zm.263.465v.088c.222 0 .519-.118.882-.333q.55-.327 1.342-.972l-.056-.069-.056-.068q-.788.64-1.32.956c-.36.214-.621.31-.792.31zm2.168-1.286.056.07q.704-.566.993-.811c.094-.08.16-.139.19-.171a.2.2 0 0 0 .024-.031c.001-.003.014-.024.013-.053a.09.09 0 0 0-.08-.086.1.1 0 0 0-.042.005l-.019.007-.034.018.045.077.045.076.02-.01h-.003q-.002.001-.009.002l-.022.001a.087.087 0 0 1-.073-.115l.006-.012q.006-.008-.001 0a3 3 0 0 1-.175.157q-.285.242-.99.807zm1.146-.975.07.055c.022-.028.052-.044.1-.044v-.177a.3.3 0 0 0-.239.11zm.17-.078v.089c.052 0 .075.011.083.018.006.005.015.015.015.048h.178a.23.23 0 0 0-.08-.184.3.3 0 0 0-.195-.06zm.186.155h-.088c0 .027-.017.073-.083.139l.063.063.063.062c.078-.078.134-.167.134-.264zm-.108.201-.046.076a.08.08 0 0 1-.038-.079c.002-.014.008-.02.005-.016a.4.4 0 0 1-.04.044 4 4 0 0 1-.236.21q-.333.276-1.045.81l.053.07.053.071q.713-.534 1.052-.815.17-.14.25-.221a.5.5 0 0 0 .063-.075.13.13 0 0 0 .02-.052.096.096 0 0 0-.046-.099zm-1.347 1.115-.053-.07q-1.02.755-1.717 1.102c-.47.234-.817.322-1.052.29l-.012.088-.012.088c.291.04.68-.07 1.155-.307q.718-.357 1.744-1.12zm-2.834 1.41.011-.088c-.261-.035-.434-.12-.536-.24-.1-.12-.144-.291-.115-.529l-.088-.01-.088-.011c-.033.268.013.494.156.664.14.168.363.264.648.302zM85.418 49.3l-.085-.025-.031.104.108.01zm-1.254 1.084.053.072zm-2.834 1.41.012-.088zm-.774-1.379.085.025-.152-.083zm-2.153 1.379.004-.089zm.03-3.485-.069-.055zm2.355-2.075-.045-.077v.001zm2.88-.03-.088-.012-.033.258.184-.184zm.65-.496.01.088.008-.001zm.249 0-.029.085.014.002zm.046.093.073.05.003-.005zm-1.734 2.555-.074-.05-.001.002zm-1.193 2.431.088.015v-.004zm2.431-.82-.055-.07zm1.053-.945-.069-.056.11.134zm-2.044-2.168.067.058.002-.003zm-1.486-.527.047.075zm-1.549 1.363.066.059zm-.046 2.818-.062-.064zm1.316-1.486-.071-.053zm4.057.278-.008.089c-.003 0-.025-.003-.044-.024a.07.07 0 0 1-.017-.061q.004-.014.001-.007l-.015.02q-.048.06-.203.195-.31.268-1.021.802l.053.07.053.071q.714-.534 1.03-.809.16-.136.225-.216l.03-.04a.2.2 0 0 0 .02-.052.1.1 0 0 0-.022-.09.1.1 0 0 0-.074-.036zm-1.254 1.084-.053-.07q-1.02.755-1.717 1.102c-.47.234-.817.322-1.052.29l-.012.088-.012.088c.291.04.68-.07 1.155-.307q.718-.357 1.744-1.12zm-2.834 1.41.011-.088c-.264-.034-.45-.126-.572-.265-.12-.139-.187-.337-.187-.607h-.177c0 .298.073.543.23.724s.39.286.683.324zm-.836-.96h.088q0-.188.059-.394l-.085-.025-.086-.024q-.065.228-.065.443zm.062-.419-.067-.058q-.615.707-1.139 1.04c-.349.224-.662.322-.942.308l-.005.089-.005.088c.33.017.68-.1 1.048-.335q.552-.355 1.177-1.073zm-2.153 1.379.004-.089c-.302-.014-.515-.113-.655-.285-.143-.174-.22-.437-.22-.803h-.178c0 .387.082.697.26.915.18.22.447.334.785.35zm-.96-1.177h.088c0-.674.318-1.424.972-2.253l-.07-.055-.069-.055c-.667.845-1.01 1.633-1.01 2.363zm.99-2.308.07.055a8.6 8.6 0 0 1 2.33-2.054l-.045-.076-.046-.076a8.8 8.8 0 0 0-2.378 2.096zm2.355-2.075.044.077c.831-.482 1.522-.716 2.078-.716v-.177c-.602 0-1.325.251-2.167.74zm2.121-.728v.089c.235 0 .41.054.534.151l.055-.07.055-.069c-.165-.13-.383-.19-.644-.19zm.589.17-.055.07c.113.089.166.229.137.446l.088.011.088.012c.034-.258-.027-.47-.203-.608zm.17.527.063.063c.24-.24.38-.374.426-.412l-.055-.069-.056-.07a9 9 0 0 0-.44.426zm.434-.418.055.07a.33.33 0 0 1 .172-.06l-.01-.087-.01-.088a.5.5 0 0 0-.263.096zm.217-.077.017.087a.4.4 0 0 1 .203-.003l.028-.084.028-.084a.6.6 0 0 0-.294-.003zm.248 0-.015.087.01.002a.05.05 0 0 1-.017-.019.05.05 0 0 1-.005-.029l-.003.006.076.046.076.045c.02-.032.044-.09.015-.147s-.086-.073-.123-.079zm.046.093-.073-.051q-.511.729-1.735 2.557l.073.049.074.05q1.224-1.829 1.734-2.554zm-1.734 2.555-.075-.048q-.552.855-.853 1.468-.302.613-.353 1l.088.011.088.011c.03-.228.139-.541.336-.944q.295-.6.843-1.45zm-1.193 2.431-.087-.014c-.027.16-.022.302.037.406.064.113.178.161.313.161v-.177c-.091 0-.135-.03-.159-.071-.028-.05-.041-.142-.017-.29zm.263.465v.088c.222 0 .52-.118.882-.333q.55-.327 1.342-.972l-.056-.069-.056-.068q-.788.64-1.32.956c-.36.214-.621.31-.792.31zm2.168-1.286.056.07q.705-.566.971-.805.067-.06.108-.101a.4.4 0 0 0 .062-.074l.013-.028a.093.093 0 0 0-.067-.119.1.1 0 0 0-.042 0 .2.2 0 0 0-.044.013l-.045.021.041.079.041.078.032-.015q.011-.003.003-.002a.1.1 0 0 1-.029-.001.09.09 0 0 1-.057-.05.1.1 0 0 1-.003-.054l.005-.012-.008.01-.028.029-.1.094q-.26.233-.964.798zm1.053-.944.07.055c.023-.028.053-.044.1-.044v-.177a.3.3 0 0 0-.239.11zm.17-.078v.089q.014 0 .017.002h.003v.001l.002.002.005.014a.5.5 0 0 1-.034.223l.085.025.085.026a.66.66 0 0 0 .037-.311.2.2 0 0 0-.07-.118.2.2 0 0 0-.13-.041zm-2.214-2.09.07.055a.93.93 0 0 0 .205-.597h-.177a.75.75 0 0 1-.167.486zm.186-.542h.089c0-.168-.04-.31-.137-.41-.098-.101-.237-.144-.401-.144v.178c.135 0 .22.035.273.089.053.055.088.145.088.287zm-.449-.465v-.089c-.346 0-.772.172-1.272.495l.049.074.048.075c.491-.318.881-.466 1.175-.466zm-1.223.48-.048-.075a7.3 7.3 0 0 0-1.568 1.38l.067.058.067.058q.735-.843 1.53-1.346zm-1.549 1.363-.066-.059c-1.117 1.262-1.695 2.326-1.695 3.187h.178c0-.79.536-1.812 1.65-3.07zm-1.672 3.128h-.09c0 .183.031.335.105.445a.39.39 0 0 0 .34.17v-.177c-.093 0-.152-.032-.193-.093-.045-.066-.074-.177-.074-.345zm.356.527v.088c.16 0 .352-.082.567-.223q.327-.216.764-.638l-.061-.064-.062-.063a5.4 5.4 0 0 1-.738.617c-.208.137-.363.194-.47.194zm1.27-.837.06.065q.735-.703 1.327-1.498l-.071-.053-.071-.053a12 12 0 0 1-1.307 1.475zm1.316-1.486.07.053a39 39 0 0 1 1.762-2.163l-.067-.058-.067-.058a40 40 0 0 0-1.77 2.173z" mask="url(#b)"/></svg>