<svg xmlns="http://www.w3.org/2000/svg" width="72" height="47" fill="none" viewBox="0 0 72 47"><path fill="#cc0004" d="M27.413 13.121c-.46-1.41-.787-2.77-1.35-4.05-1.245-2.825-3.18-5.195-6.725-6.132C13.316 1.353 6.28 4.445 5.767 11.33c-.277 3.71 1.218 6.866 4.276 9.42 3.651 3.047 7.472 5.932 11.163 8.95 2.765 2.302 5.407 4.714 7.027 7.79.45.852 1.09.696 1.788.242l4.66-3.02c.388-.251.782-.494 1.173-.741l.249.174c-.376.467-.715.96-1.133 1.396a365 365 0 0 1-4.468 4.574c-.852.852-1.131.852-1.893-.02-2.58-2.953-6.113-4.965-9.51-7.126-4.555-2.896-9.3-5.62-13.542-8.825-6.249-4.72-7.322-13.227-2.74-19.197C5.865.982 10.46-.448 15.77.12c6.882.733 11.074 5.328 12.795 10.219.388 1.085-.05 2.018-1.15 2.783M48.017 21.625a.23.23 0 0 1-.003-.125c.23-.878 1.233-2.693 1.853-4.946.498-1.811 1.22-7.85-2.727-10.583-3.268-2.265-10.56-2.344-13.52 1.19-.213.252-.512.45-.829.64-.373.226-.888.108-1.14-.249-.282-.4-.546-.801-.546-1.197.034-.802.37-1.572.956-2.197 4.396-4.399 12.72-5.56 18.588-.83 4.708 3.78 4.487 10.716 2.307 14.128-1.869 2.923-3.592 4.086-4.39 4.695-.149.114-.382.046-.435-.135z"/><mask id="a" width="44" height="12" x="24.962" y="19.895" fill="#000" maskUnits="userSpaceOnUse"><path fill="#fff" d="M24.962 19.895h44v12h-44z"/><path d="M32.659 28.93q-.401.66-.88 1.176-.48.505-1.022.88-.129.104-.298.181a8 8 0 0 1-.362.155q-.453.195-.866.246-.414.052-.79-.013a2 2 0 0 1-.814-.375q-.337-.258-.53-.737a2.1 2.1 0 0 1-.169-.958q.038-.517.272-.814a.7.7 0 0 1 .323-.272q.414-.156.57.103.103.181.051.363a.35.35 0 0 1-.233.245q-.232.104-.349-.051a.5.5 0 0 1-.078-.065q-.026-.039-.051-.013a.7.7 0 0 0-.169.285 1.6 1.6 0 0 0-.064.349q0 .168.013.323.025.143.064.233l.052.104q.026.039.052.103.633.931 1.979.388a5.3 5.3 0 0 0 1.669-1.151q.258-.26.504-.543.246-.298.466-.595.233-.31.414-.608l.259-.427q.155-.271.271-.453.543-.828.957-1.449.414-.62.738-1.048a8.4 8.4 0 0 1 1.875-1.837q.88-.633 1.643-.789.13-.013.142.117.014.142-.206.207-.609.142-1.501.815-.893.66-1.423 1.384-.259.35-.517.763-.246.401-.53.906.853-.764 1.707-.996.854-.246 1.526 0 .673.232 1.06.918.39.685.311 1.76a3.5 3.5 0 0 1-.4 1.163q-.299.57-.738 1.048a5 5 0 0 1-.944.802 3.2 3.2 0 0 1-1.01.44 3.5 3.5 0 0 1-.957.052 2.1 2.1 0 0 1-.93-.285 1.5 1.5 0 0 1-.635-.711q-.22-.492-.038-1.307.038-.195.103-.31.078-.13.13-.155.065-.039.09.038.038.078-.013.272-.117.867.078 1.32.194.452.504.646.324.18.66.168.336 0 .491-.038a3.322 3.322 0 0 0 1.966-1.423 4.8 4.8 0 0 0 .53-1.048q.195-.556.298-1.151.104-.725-.064-1.177-.155-.453-.479-.673a1.4 1.4 0 0 0-.776-.233 2.5 2.5 0 0 0-.944.168 3.9 3.9 0 0 0-.983.518q-.492.336-.88.802-.259.465-.53 1.021-.272.556-.595 1.242m9.443-6.34q-.078.118-.22-.038-.492-.543-1.915-1.087-1.436-.543-3.596-.543-.789 0-1.656.078t-1.81.22q-2.704.453-4.8 1.927-2.095 1.5-2.095 2.91 0 .22.051.376.324 1.293 2.264 1.293.763 0 1.462-.207.867-.258 1.72-.944.35-.285.582-.505.234-.233.337-.413.168-.285.349-.233.156.013-.026.297-.168.246-.414.518a7 7 0 0 1-.582.543q-.957.828-1.927 1.074a6 6 0 0 1-1.578.207q-2.613-.001-2.963-2.186l-.026-.169v-.18q0-1.605 2.044-3.028Q29.438 21 32.71 20.6q.699-.09 1.359-.13.672-.051 1.332-.051 2.703 0 4.67.737 1.552.582 1.927 1.06.18.247.104.376m1.063 7.077q.27-.013.647-.143.388-.13.763-.4.387-.285.569-.75.025-.066.052-.066h.064q.065 0 .09.078.04.064.014.09a7 7 0 0 1-.207.402q-.143.27-.479.53a2 2 0 0 1-.388.22 6 6 0 0 1-.543.194q-.298.078-.621.116a3 3 0 0 1-.388 0q-.194.156-.401.285a6 6 0 0 1-.673.362q-.336.142-.647.22a2.1 2.1 0 0 1-.53.078q-.311.05-.517-.026a.76.76 0 0 1-.31-.259.96.96 0 0 1-.13-.401q-.013-.246.026-.517.064-.285.323-.738.271-.453.828-1.138.195-.233.44-.53.258-.298.582-.647.595-.621.776-.75a.8.8 0 0 1 .168-.052.8.8 0 0 1 .207 0q.078.026.039.077-.22.298-.582.815a53 53 0 0 1-.88 1.255q-.18.285-.31.505-.13.206-.233.388l-.181.31a4 4 0 0 0-.233.505q-.09.258-.09.478.012.207.245.22.168.013.362-.039.195-.065.375-.168.194-.103.363-.233.168-.142.297-.297-.336-.299-.388-.621a1.17 1.17 0 0 1 .065-.621q.129-.298.388-.543a2.2 2.2 0 0 1 .556-.388q.31-.142.608-.156a.74.74 0 0 1 .518.156q.168.142.206.375.04.233-.064.543-.09.297-.337.647a4 4 0 0 1-.543.634zm-.79-.272q.027.013.156-.104.129-.13.285-.31.168-.18.323-.401.168-.22.259-.414.103-.194.09-.336 0-.155-.168-.194-.207-.065-.53.09a1.25 1.25 0 0 0-.544.479q-.258.336-.22.698.04.363.35.492m11.258-.62q-.337.581-1.178.801a2.7 2.7 0 0 1-.672.104 1.4 1.4 0 0 1-.776-.207q-.376.361-.776.66-.389.297-.79.517a4.4 4.4 0 0 1-.763.323q-.375.117-.685.117-.958 0-.958-.932 0-.75.686-1.772 0-.013.026-.039-.246.078-.543.181-.285.09-.557.143-.27.051-.478.026-.195-.026-.259-.195-.427.609-.88 1.216-.44.595-.918 1.203a1 1 0 0 1-.194.013q-.142.014-.285 0a1 1 0 0 1-.245-.026q-.105-.012-.104-.051 0 .025.155-.168.156-.195.414-.53.26-.35.595-.79.324-.453.66-.931.349-.48.686-.932.336-.465.595-.828.27-.375.44-.594.167-.234.18-.246.026-.026.195-.04a5 5 0 0 1 .31-.012q.245-.013.272.052.026.077-.544.84l-.802 1.1q.104.078.156.246-.181.245-.078.323t.336.065q.233-.026.53-.104.298-.077.505-.155a7.7 7.7 0 0 1 1.746-1.668q1.151-.802 2.018-.802.958 0 .958.93 0 .752-.686 1.773a12 12 0 0 1-.297.414 7 7 0 0 1-.337.388q.285.168.556.168.22 0 .57-.103.75-.233.944-.634.09-.09.181-.09.142 0 .142.129a.16.16 0 0 1-.051.116m-1.928-.777q.48-.803.479-1.371 0-.595-.53-.595-.583 0-1.436.66a6.9 6.9 0 0 0-1.488 1.59q-.672.983-.673 1.67 0 .594.544.594.866 0 2.095-1.267-.35-.285-.35-.634 0-.298.26-.518.31-.233.698-.233.259 0 .401.104m10.768.66q-.012.129-1.06.931-1.708 1.306-2.368 1.306-.375 0-.66-.206a.75.75 0 0 1-.31-.583q-.065-.776 1.074-1.733 1.824-1.514 1.824-2.057 0-.258-.337-.258-.387 0-1.177.517-.66.44-1.901 1.824-.376.414-1.177 1.449-.712.918-.815 1.009-.09.077-.401.142a1.7 1.7 0 0 1-.505.065q-.115-.013-.13-.078-.025-.078 2.083-2.678l.815-.996q.465-.62.466-.931 0-.297-.362-.297-.556 0-1.682.892-1.035.815-1.59 1.578a58 58 0 0 1-1.76 2.367.56.56 0 0 1-.298-.038q-.194-.065-.18-.143.026-.207 1.823-2.626 1.578-2.147 1.733-2.276.065-.052.324-.052.258-.013.272.052l-.66.944q1.41-1.035 2.186-1.035.142 0 .297.026.44.078.44.57 0 .349-.22.724 1.683-1.307 2.484-1.307.738 0 .737.634 0 .607-.62 1.32-1.592 1.81-1.695 2.483a.23.23 0 0 0 .065.194q.077.064.258.039.492-.064 1.617-.945.932-.737 1.151-.995.105-.13.22-.13.09 0 .117.09.026.105-.078.208m5.806.103q.065.04-1.06.97Q65.51 31 64.85 30.908q-.686-.09-.698-.827a4 4 0 0 1-.932.595q-.594.285-.957.232-.699-.09-.699-.84.001-.117.026-.233.117-.634 1.216-1.98 1.566-1.914 1.734-2.004a.45.45 0 0 1 .246-.065q.168-.013.168.09 0 .117-.479.815a58 58 0 0 0-.918 1.346q-.595.93-.712 1.138-.258.492-.297.867-.052.426.232.427a.5.5 0 0 0 .233-.065q1.035-.44 2.549-2.432a83 83 0 0 1 1.565-2.121.45.45 0 0 1 .246-.065q.168-.013.168.09 0 .117-.479.815a34 34 0 0 0-.918 1.346q-.92 1.422-.996 2.03-.065.39.22.389.49 0 1.81-1.074 1.113-.983.893-.854a.17.17 0 0 1 .142-.064q.156 0 .156.129 0 .078-.09.168"/></mask><path fill="#000" d="M32.659 28.93q-.401.66-.88 1.176-.48.505-1.022.88-.129.104-.298.181a8 8 0 0 1-.362.155q-.453.195-.866.246-.414.052-.79-.013a2 2 0 0 1-.814-.375q-.337-.258-.53-.737a2.1 2.1 0 0 1-.169-.958q.038-.517.272-.814a.7.7 0 0 1 .323-.272q.414-.156.57.103.103.181.051.363a.35.35 0 0 1-.233.245q-.232.104-.349-.051a.5.5 0 0 1-.078-.065q-.026-.039-.051-.013a.7.7 0 0 0-.169.285 1.6 1.6 0 0 0-.064.349q0 .168.013.323.025.143.064.233l.052.104q.026.039.052.103.633.931 1.979.388a5.3 5.3 0 0 0 1.669-1.151q.258-.26.504-.543.246-.298.466-.595.233-.31.414-.608l.259-.427q.155-.271.271-.453.543-.828.957-1.449.414-.62.738-1.048a8.4 8.4 0 0 1 1.875-1.837q.88-.633 1.643-.789.13-.013.142.117.014.142-.206.207-.609.142-1.501.815-.893.66-1.423 1.384-.259.35-.517.763-.246.401-.53.906.853-.764 1.707-.996.854-.246 1.526 0 .673.232 1.06.918.39.685.311 1.76a3.5 3.5 0 0 1-.4 1.163q-.299.57-.738 1.048a5 5 0 0 1-.944.802 3.2 3.2 0 0 1-1.01.44 3.5 3.5 0 0 1-.957.052 2.1 2.1 0 0 1-.93-.285 1.5 1.5 0 0 1-.635-.711q-.22-.492-.038-1.307.038-.195.103-.31.078-.13.13-.155.065-.039.09.038.038.078-.013.272-.117.867.078 1.32.194.452.504.646.324.18.66.168.336 0 .491-.038a3.322 3.322 0 0 0 1.966-1.423 4.8 4.8 0 0 0 .53-1.048q.195-.556.298-1.151.104-.725-.064-1.177-.155-.453-.479-.673a1.4 1.4 0 0 0-.776-.233 2.5 2.5 0 0 0-.944.168 3.9 3.9 0 0 0-.983.518q-.492.336-.88.802-.259.465-.53 1.021-.272.556-.595 1.242m9.443-6.34q-.078.118-.22-.038-.492-.543-1.915-1.087-1.436-.543-3.596-.543-.789 0-1.656.078t-1.81.22q-2.704.453-4.8 1.927-2.095 1.5-2.095 2.91 0 .22.051.376.324 1.293 2.264 1.293.763 0 1.462-.207.867-.258 1.72-.944.35-.285.582-.505.234-.233.337-.413.168-.285.349-.233.156.013-.026.297-.168.246-.414.518a7 7 0 0 1-.582.543q-.957.828-1.927 1.074a6 6 0 0 1-1.578.207q-2.613-.001-2.963-2.186l-.026-.169v-.18q0-1.605 2.044-3.028Q29.438 21 32.71 20.6q.699-.09 1.359-.13.672-.051 1.332-.051 2.703 0 4.67.737 1.552.582 1.927 1.06.18.247.104.376m1.063 7.077q.27-.013.647-.143.388-.13.763-.4.387-.285.569-.75.025-.066.052-.066h.064q.065 0 .09.078.04.064.014.09a7 7 0 0 1-.207.402q-.143.27-.479.53a2 2 0 0 1-.388.22 6 6 0 0 1-.543.194q-.298.078-.621.116a3 3 0 0 1-.388 0q-.194.156-.401.285a6 6 0 0 1-.673.362q-.336.142-.647.22a2.1 2.1 0 0 1-.53.078q-.311.05-.517-.026a.76.76 0 0 1-.31-.259.96.96 0 0 1-.13-.401q-.013-.246.026-.517.064-.285.323-.738.271-.453.828-1.138.195-.233.44-.53.258-.298.582-.647.595-.621.776-.75a.8.8 0 0 1 .168-.052.8.8 0 0 1 .207 0q.078.026.039.077-.22.298-.582.815a53 53 0 0 1-.88 1.255q-.18.285-.31.505-.13.206-.233.388l-.181.31a4 4 0 0 0-.233.505q-.09.258-.09.478.012.207.245.22.168.013.362-.039.195-.065.375-.168.194-.103.363-.233.168-.142.297-.297-.336-.299-.388-.621a1.17 1.17 0 0 1 .065-.621q.129-.298.388-.543a2.2 2.2 0 0 1 .556-.388q.31-.142.608-.156a.74.74 0 0 1 .518.156q.168.142.206.375.04.233-.064.543-.09.297-.337.647a4 4 0 0 1-.543.634zm-.79-.272q.027.013.156-.104.129-.13.285-.31.168-.18.323-.401.168-.22.259-.414.103-.194.09-.336 0-.155-.168-.194-.207-.065-.53.09a1.25 1.25 0 0 0-.544.479q-.258.336-.22.698.04.363.35.492m11.258-.62q-.337.581-1.178.801a2.7 2.7 0 0 1-.672.104 1.4 1.4 0 0 1-.776-.207q-.376.361-.776.66-.389.297-.79.517a4.4 4.4 0 0 1-.763.323q-.375.117-.685.117-.958 0-.958-.932 0-.75.686-1.772 0-.013.026-.039-.246.078-.543.181-.285.09-.557.143-.27.051-.478.026-.195-.026-.259-.195-.427.609-.88 1.216-.44.595-.918 1.203a1 1 0 0 1-.194.013q-.142.014-.285 0a1 1 0 0 1-.245-.026q-.105-.012-.104-.051 0 .025.155-.168.156-.195.414-.53.26-.35.595-.79.324-.453.66-.931.349-.48.686-.932.336-.465.595-.828.27-.375.44-.594.167-.234.18-.246.026-.026.195-.04a5 5 0 0 1 .31-.012q.245-.013.272.052.026.077-.544.84l-.802 1.1q.104.078.156.246-.181.245-.078.323t.336.065q.233-.026.53-.104.298-.077.505-.155a7.7 7.7 0 0 1 1.746-1.668q1.151-.802 2.018-.802.958 0 .958.93 0 .752-.686 1.773a12 12 0 0 1-.297.414 7 7 0 0 1-.337.388q.285.168.556.168.22 0 .57-.103.75-.233.944-.634.09-.09.181-.09.142 0 .142.129a.16.16 0 0 1-.051.116m-1.928-.777q.48-.803.479-1.371 0-.595-.53-.595-.583 0-1.436.66a6.9 6.9 0 0 0-1.488 1.59q-.672.983-.673 1.67 0 .594.544.594.866 0 2.095-1.267-.35-.285-.35-.634 0-.298.26-.518.31-.233.698-.233.259 0 .401.104m10.768.66q-.012.129-1.06.931-1.708 1.306-2.368 1.306-.375 0-.66-.206a.75.75 0 0 1-.31-.583q-.065-.776 1.074-1.733 1.824-1.514 1.824-2.057 0-.258-.337-.258-.387 0-1.177.517-.66.44-1.901 1.824-.376.414-1.177 1.449-.712.918-.815 1.009-.09.077-.401.142a1.7 1.7 0 0 1-.505.065q-.115-.013-.13-.078-.025-.078 2.083-2.678l.815-.996q.465-.62.466-.931 0-.297-.362-.297-.556 0-1.682.892-1.035.815-1.59 1.578a58 58 0 0 1-1.76 2.367.56.56 0 0 1-.298-.038q-.194-.065-.18-.143.026-.207 1.823-2.626 1.578-2.147 1.733-2.276.065-.052.324-.052.258-.013.272.052l-.66.944q1.41-1.035 2.186-1.035.142 0 .297.026.44.078.44.57 0 .349-.22.724 1.683-1.307 2.484-1.307.738 0 .737.634 0 .607-.62 1.32-1.592 1.81-1.695 2.483a.23.23 0 0 0 .065.194q.077.064.258.039.492-.064 1.617-.945.932-.737 1.151-.995.105-.13.22-.13.09 0 .117.09.026.105-.078.208m5.806.103q.065.04-1.06.97Q65.51 31 64.85 30.908q-.686-.09-.698-.827a4 4 0 0 1-.932.595q-.594.285-.957.232-.699-.09-.699-.84.001-.117.026-.233.117-.634 1.216-1.98 1.566-1.914 1.734-2.004a.45.45 0 0 1 .246-.065q.168-.013.168.09 0 .117-.479.815a58 58 0 0 0-.918 1.346q-.595.93-.712 1.138-.258.492-.297.867-.052.426.232.427a.5.5 0 0 0 .233-.065q1.035-.44 2.549-2.432a83 83 0 0 1 1.565-2.121.45.45 0 0 1 .246-.065q.168-.013.168.09 0 .117-.479.815a34 34 0 0 0-.918 1.346q-.92 1.422-.996 2.03-.065.39.22.389.49 0 1.81-1.074 1.113-.983.893-.854a.17.17 0 0 1 .142-.064q.156 0 .156.129 0 .078-.09.168"/><path fill="#000" d="m32.659 28.93.063.038.004-.007zm-.88 1.176.054.051zm-1.022.88-.042-.061-.004.003zm-.298.181-.03-.067zm-.362.155-.027-.068h-.002zm-1.655.233-.017.073h.004zm-.815-.375.045-.058zm-.53-.737.068-.028v-.001zm-.169-.958-.074-.005v.002zm.272-.814.058.045.004-.005zm.323-.272-.026-.07-.003.002zm.57.103.064-.036-.001-.002zm.051.363-.071-.02zm-.233.245-.025-.07-.005.003zm-.349-.051.06-.045-.008-.01-.011-.007zm-.078-.065-.061.041.004.006.005.005zm-.051-.013.052.052zm-.169.285-.07-.022zm-.064.349-.074-.005v.005zm.013.323-.074.007v.006zm.064.233-.068.03.002.003zm.052.104-.067.033.005.008zm.052.103-.069.028.003.007.005.007zm1.979.388.028.069h.002zm.582-.297.038.063zm.582-.401.046.058zm.505-.453-.053-.052zm.504-.543.056.048.001-.001zm.466-.595-.06-.045zm.414-.608-.063-.04v.001zm.259-.427.063.038v-.002zm.271-.453-.062-.04zm.957-1.449-.061-.04zm.738-1.048.059.045zm1.875-1.837.043.061zm1.643-.789-.007-.074-.008.002zm.142.117.074-.007zm-.206.207.016.072.004-.001zm-1.501.815.044.06v-.001zm-1.423 1.384.06.044zm-.517.763-.063-.04v.001zm-.53.906-.065-.037.114.092zm1.707-.996.02.071zm1.526 0-.025.07h.001zm1.06.918.065-.037zm.311 1.76.074.01v-.005zm-.4 1.163-.066-.035v.001zm-.738 1.048-.055-.05zm-.944.802.04.063zm-1.01.44.016.073h.001zm-.957.052.006-.074zm-.93-.285.037-.064h-.002zm-.635-.711-.067.03zm-.038-1.307.072.016v-.001zm.103-.31-.064-.038v.002zm.13-.155.033.066.005-.003zm.09.038-.071.024.005.01zm-.013.272-.072-.02-.001.01zm.078 1.32-.069.029zm.504.646-.04.063.004.002zm.66.168v-.074h-.003zm.491-.038.018.071h.001zm1.087-.505-.042-.06zm.88-.918-.062-.041zm.53-1.048.07.025zm.297-1.151.073.012v-.002zm-.064-1.177-.07.024v.001zm-.479-.673.042-.061zm-.776-.233.002-.074zm-.944.168.024.07h.001zm-.983.518.041.06h.002zm-.88.802-.058-.049-.007.013zm8.318-4.075.061.041.002-.003zm-.22-.039-.055.05zm-1.915-1.087.027-.069zM34.715 21l-.006-.074zm-1.81.22-.012-.073zm-4.8 1.927-.042-.06zm-2.044 3.286.073-.018-.002-.006zm3.726 1.086.02.071h.001zm1.72-.944.047.058zm.582-.505.051.054.002-.001zm.337-.413-.064-.038zm.349-.233-.02.07.007.003h.007zm-.026.297.061.042.002-.002zm-.414.518.054.05h.001zm-.582.543-.048-.056zm-1.927 1.074-.018-.072h-.001zm-4.54-1.98-.074.011v.001zm-.027-.168h-.075l.002.013zm2.044-3.208.043.061zM32.71 20.6l.01.073zm1.359-.13.004.074h.001zm6.002.686.026-.07zm1.927 1.06.06-.043-.002-.002zm-9.34 6.714-.063-.038a7.3 7.3 0 0 1-.87 1.165l.054.05.054.05q.485-.523.889-1.188zm-.879 1.177-.054-.05a6.4 6.4 0 0 1-1.01.87l.042.06.042.061q.55-.38 1.034-.89zm-1.022.88-.046-.058a1.4 1.4 0 0 1-.282.172l.03.067.032.067q.175-.08.312-.19zm-.298.181-.03-.067q-.166.076-.36.154l.028.068.028.07a8 8 0 0 0 .366-.158zm-.362.155-.029-.068a3.2 3.2 0 0 1-.847.24l.01.074.009.074q.426-.054.887-.252zm-.866.246-.01-.073q-.404.05-.767-.013l-.012.073-.013.073q.387.067.81.014zm-.79-.013.017-.072a1.95 1.95 0 0 1-.786-.361l-.045.058-.046.058q.363.283.845.39zm-.814-.375.045-.059q-.319-.242-.507-.706l-.069.028-.068.028q.2.493.553.768zm-.53-.737.067-.03a2.05 2.05 0 0 1-.162-.924l-.074-.004-.074-.003q-.027.52.174.99zm-.169-.958.074.006c.025-.336.113-.591.256-.775l-.058-.045-.058-.046c-.168.213-.261.5-.288.855zm.272-.814.062.04a.64.64 0 0 1 .29-.244l-.029-.068-.03-.068a.8.8 0 0 0-.355.3zm.323-.272.026.07a.6.6 0 0 1 .31-.049.24.24 0 0 1 .17.12l.063-.038.064-.038a.39.39 0 0 0-.27-.19.75.75 0 0 0-.389.056zm.57.103-.065.037a.38.38 0 0 1 .045.305l.071.02.071.021a.53.53 0 0 0-.058-.42zm.051.363-.071-.02a.28.28 0 0 1-.187.196l.025.07.025.07a.43.43 0 0 0 .28-.296zm-.233.245-.03-.067a.3.3 0 0 1-.163.033.14.14 0 0 1-.097-.062l-.059.045-.06.044q.075.1.195.12a.45.45 0 0 0 .244-.045zm-.349-.051.041-.062a.4.4 0 0 1-.066-.055l-.053.052-.052.052a.6.6 0 0 0 .089.074zm-.078-.065.062-.041a.12.12 0 0 0-.07-.053.1.1 0 0 0-.096.029l.053.052.052.052q0 .003-.014.008a.05.05 0 0 1-.03.002.04.04 0 0 1-.018-.009q-.003-.003 0 .001zm-.051-.013-.053-.052a.75.75 0 0 0-.186.315l.07.022.071.021a.6.6 0 0 1 .15-.254zm-.169.285-.07-.022q-.056.176-.068.366l.074.005.074.005a1.5 1.5 0 0 1 .061-.333zm-.064.349h-.074q0 .171.013.33l.074-.007.073-.006a4 4 0 0 1-.012-.317zm.013.323-.073.014q.026.147.07.248l.067-.029.068-.03a1 1 0 0 1-.06-.216zm.064.233-.066.033v.001h.001v.002h.001v.002h.001v.002h.001v.002h.001v.002l.001.001v.001l.001.001v.001l.001.001v.001h.001v.002h.001v.002h.001v.002h.001v.002h.001v.002h.001v.002h.001v.002l.001.001v.001l.001.001v.001l.001.001v.001h.001v.002h.001v.002h.001v.002h.001v.002h.001v.002h.001v.002h.001v.002l.001.001v.001l.001.001v.001l.001.001v.001h.001v.002h.001v.002h.001v.002h.001v.002h.001v.002h.001v.002l.001.001v.001l.001.001v.001l.001.001v.001h.001v.002h.001v.002h.001v.002h.001v.002h.001v.002h.001v.002h.001v.002l.001.001v.001l.001.001v.001l.001.001v.001h.001v.002h.001v.002h.001v.002h.001v.002l.067-.032.066-.034v-.001l-.001-.001v-.002h-.001v-.002h-.001v-.002h-.001v-.002h-.001v-.002h-.001v-.002h-.001v-.002h-.001v-.002h-.001v-.001l-.001-.001v-.001l-.001-.001v-.002h-.001v-.002h-.001v-.002h-.001v-.002h-.001v-.002h-.001v-.002h-.001v-.002h-.001v-.002h-.001v-.001l-.001-.001v-.002h-.001v-.002h-.001v-.002h-.001v-.002h-.001v-.002h-.001v-.002h-.001v-.002h-.001v-.002h-.001v-.001l-.001-.001v-.001l-.001-.001v-.002h-.001v-.002h-.001v-.002h-.001v-.002h-.001v-.002h-.001v-.002h-.001v-.002h-.001v-.002h-.001v-.001l-.001-.001v-.002h-.001v-.002h-.001v-.002h-.001v-.002h-.001v-.002h-.001v-.002h-.001v-.002h-.001v-.002h-.001v-.001l-.001-.001v-.001l-.001-.001v-.002h-.001v-.002h-.001v-.001zm.052.104-.062.04q.021.03.045.09l.069-.027.069-.027a.7.7 0 0 0-.06-.117zm.052.103-.061.042c.22.324.507.525.858.593.35.069.754.006 1.21-.178l-.028-.069-.028-.068q-.66.264-1.125.17-.463-.088-.765-.532zm1.979.388.03.068q.301-.13.59-.302l-.038-.063-.038-.064q-.28.165-.573.293zm.582-.297.038.063q.29-.171.59-.406l-.046-.058-.045-.059a5 5 0 0 1-.575.396zm.582-.401.046.058q.25-.198.511-.459l-.052-.052-.053-.052q-.255.256-.498.447zm.505-.453.052.052q.26-.26.508-.547l-.056-.048-.056-.049q-.245.283-.5.54zm.504-.543.057.047q.247-.3.468-.598l-.06-.044-.059-.044q-.218.295-.463.591zm.466-.595.06.044a8 8 0 0 0 .417-.614l-.063-.038-.063-.039q-.18.294-.41.602zm.414-.608.063.038q.105-.168.259-.427l-.063-.038-.064-.038-.258.426zm.259-.427.064.036q.154-.27.27-.449l-.063-.04-.062-.04q-.118.183-.274.456zm.271-.453.062.04q.543-.827.957-1.448l-.062-.04-.061-.042q-.415.62-.958 1.45zm.957-1.449.062.041q.413-.619.735-1.044l-.06-.045-.058-.044q-.326.429-.74 1.051zm.738-1.048.059.045a8.3 8.3 0 0 1 1.859-1.82l-.043-.061-.042-.061a8.5 8.5 0 0 0-1.892 1.853zm1.875-1.837.044.06q.87-.626 1.614-.776l-.015-.073-.014-.072q-.784.16-1.672.802zm1.643-.789.008.074c.031-.003.042.004.046.006.003.003.012.012.015.044l.073-.007.074-.008a.2.2 0 0 0-.069-.143.2.2 0 0 0-.154-.04zm.142.117-.073.007a.07.07 0 0 1-.024.063.3.3 0 0 1-.13.066l.02.07.021.072a.45.45 0 0 0 .194-.103.22.22 0 0 0 .066-.182zm-.206.207-.017-.072c-.42.098-.93.377-1.529.828l.045.059.045.059c.592-.446 1.082-.71 1.472-.802zm-1.501.815-.044-.06q-.9.666-1.439 1.4l.06.044.06.044q.522-.714 1.407-1.369zm-1.423 1.384-.06-.044q-.26.351-.52.768l.063.04.063.038a12 12 0 0 1 .514-.758zm-.517.763-.064-.039q-.246.403-.531.908l.064.037.065.036q.284-.504.529-.903zm-.53.906.049.055q.845-.754 1.677-.98l-.02-.071-.019-.072q-.874.24-1.737 1.012zm1.707-.996.02.07q.836-.239 1.48 0l.026-.07.026-.07q-.701-.254-1.573-.002zm1.526 0-.024.07q.645.22 1.02.884l.065-.036.064-.037c-.266-.47-.633-.79-1.1-.951zm1.06.918-.064.037c.25.44.353 1.01.301 1.717l.074.005.074.006c.053-.726-.051-1.328-.32-1.802zm.311 1.76-.073-.012q-.088.581-.393 1.14l.065.035.065.036q.317-.58.41-1.189zm-.4 1.163-.066-.034a4.8 4.8 0 0 1-.727 1.032l.055.05.055.05q.446-.486.748-1.063zm-.738 1.048-.055-.05q-.42.46-.93.79l.04.062.041.062q.525-.341.959-.814zm-.944.802-.04-.062a3.1 3.1 0 0 1-.986.43l.017.072.016.072q.519-.12 1.033-.45zm-1.01.44-.014-.073a3.4 3.4 0 0 1-.937.05l-.006.075-.005.074q.526.04.978-.053zm-.957.052.006-.074a2 2 0 0 1-.899-.274l-.038.063-.038.064q.431.255.964.295zm-.93-.285.035-.064a1.44 1.44 0 0 1-.602-.678l-.068.03-.067.032q.228.498.665.745zm-.635-.711.068-.03c-.138-.308-.153-.725-.034-1.26l-.073-.017-.072-.016c-.122.551-.112 1.005.044 1.353zm-.038-1.307.072.015a1 1 0 0 1 .096-.29l-.065-.035-.065-.036a1.2 1.2 0 0 0-.111.332zm.103-.31.063.038a1 1 0 0 1 .065-.094.1.1 0 0 1 .035-.033l-.034-.066-.033-.067a.3.3 0 0 0-.082.07 1 1 0 0 0-.078.114zm.13-.155.038.063q.007-.004.004-.003a.03.03 0 0 1-.017-.002l-.01-.007.001.002.004.009.07-.024.07-.023c-.01-.033-.032-.074-.077-.093-.046-.02-.091-.004-.122.014zm.09.038-.066.034c.005.01.01.03.008.07a.7.7 0 0 1-.027.149l.072.019.072.02a1 1 0 0 0 .031-.181.3.3 0 0 0-.024-.144zm-.013.272-.073-.01c-.079.582-.055 1.038.082 1.359l.069-.03.068-.029c-.122-.283-.15-.707-.073-1.28zm.078 1.32-.069.029c.134.31.31.54.534.68l.04-.063.038-.063c-.19-.119-.35-.32-.475-.613zm.504.646-.036.065q.34.191.699.177l-.003-.074-.003-.074a1.16 1.16 0 0 1-.62-.158zm.66.168v.074q.339.001.51-.04l-.019-.072-.018-.072q-.14.035-.473.036zm.491-.038.019.071a3.4 3.4 0 0 0 1.11-.516l-.042-.06-.043-.06a3.2 3.2 0 0 1-1.062.493zm1.087-.505.042.061q.517-.358.9-.939l-.062-.04-.062-.041a3.3 3.3 0 0 1-.86.898zm.88-.918.061.04q.341-.51.539-1.063l-.07-.025-.07-.025q-.19.534-.522 1.032zm.53-1.048.07.024q.195-.562.3-1.163l-.073-.012-.072-.013a7 7 0 0 1-.295 1.14zm.297-1.151.074.01c.07-.49.05-.896-.069-1.213l-.07.026-.069.025c.106.286.13.665.061 1.141zm-.064-1.177.07-.024q-.161-.473-.507-.71l-.042.06-.041.062c.2.136.35.345.45.636zm-.479-.673.042-.061a1.5 1.5 0 0 0-.816-.246l-.002.074-.002.074q.434.013.736.22zm-.776-.233.002-.074a2.6 2.6 0 0 0-.972.173l.026.07.025.069q.48-.176.917-.164zm-.944.168-.024-.07q-.504.172-1.002.527l.043.06.042.06q.485-.342.965-.507zm-.983.518-.042-.062a4.4 4.4 0 0 0-.895.816l.057.048.057.047q.381-.458.864-.788zm-.88.802-.065-.036q-.26.467-.532 1.025l.067.032.066.033q.27-.555.529-1.018zm-.53 1.021-.067-.032q-.272.556-.595 1.243l.067.031.067.032q.322-.685.594-1.241zm8.848-5.096-.062-.041q-.013.017-.015.016h-.004c-.012-.002-.04-.015-.085-.064l-.054.05-.055.05c.05.055.106.1.168.11a.15.15 0 0 0 .098-.014.2.2 0 0 0 .07-.066zm-.22-.039.055-.05c-.34-.376-.993-.743-1.943-1.106l-.027.07-.026.069c.947.361 1.57.718 1.886 1.067zm-1.915-1.087.026-.069q-1.452-.549-3.622-.548v.148q2.152 0 3.57.539zm-3.596-.543v-.074q-.793 0-1.662.078l.006.074.007.073a19 19 0 0 1 1.65-.077zM34.715 21l-.006-.074q-.87.078-1.816.22l.011.074.011.073q.942-.142 1.807-.22zm-1.81.22-.013-.073q-2.719.455-4.83 1.94l.043.06.043.06q2.08-1.464 4.769-1.914zm-4.8 1.927-.043-.06c-1.4 1.003-2.126 1.993-2.126 2.97h.148c0-.901.671-1.852 2.064-2.85zm-2.095 2.91h-.074q-.001.23.055.4l.07-.024.07-.024a1.1 1.1 0 0 1-.047-.351zm.051.376-.071.018q.169.676.762 1.016c.393.225.92.333 1.573.333v-.148c-.64 0-1.137-.107-1.5-.313a1.41 1.41 0 0 1-.692-.924zm2.264 1.293v.074q.774 0 1.483-.21l-.021-.07-.021-.072a5 5 0 0 1-1.44.204zm1.462-.207.021.071q.883-.263 1.746-.957l-.047-.058-.046-.058q-.844.678-1.695.931zm1.72-.944.047.057q.352-.286.586-.508l-.05-.053-.051-.054a11 11 0 0 1-.578.5zm.582-.505.053.053q.236-.236.348-.43l-.064-.036-.065-.037a2 2 0 0 1-.324.398zm.337-.413.063.037a.5.5 0 0 1 .15-.176c.042-.029.079-.034.116-.023l.02-.071.02-.071a.28.28 0 0 0-.239.041.7.7 0 0 0-.194.225zm.349-.233-.006.073c.015.002.013.005.007 0-.006-.008-.003-.011-.004.001a.5.5 0 0 1-.085.183l.062.04.063.04a.6.6 0 0 0 .108-.25.15.15 0 0 0-.033-.113.15.15 0 0 0-.106-.048zm-.026.297-.061-.041q-.165.24-.408.509l.055.05.055.05q.249-.276.42-.526zm-.414.518-.053-.051q-.243.256-.577.538l.048.056.048.056q.339-.285.588-.548zm-.582.543-.048-.056q-.948.819-1.897 1.058l.018.072.018.071q.99-.252 1.957-1.089zm-1.927 1.074-.02-.072a6 6 0 0 1-1.558.205v.148q.81 0 1.597-.21zm-1.578.207v-.074c-.862 0-1.527-.18-2.004-.533q-.713-.523-.886-1.591l-.073.012-.073.011c.119.744.432 1.31.945 1.688.51.377 1.21.56 2.09.56zm-2.963-2.186.074-.011-.027-.17-.073.012-.073.013q.013.076.026.166zm-.026-.169h.075v-.18h-.149v.18zm0-.18h.075c0-1.035.657-2.024 2.012-2.967l-.043-.06-.042-.062c-1.371.955-2.076 1.983-2.076 3.088zm2.044-3.028.043.06q2.114-1.486 5.373-1.888l-.009-.073-.009-.074q-3.286.402-5.44 1.915zM32.71 20.6l.01.073q.696-.09 1.353-.129l-.004-.074-.005-.074q-.662.04-1.363.13zm1.359-.13.005.074q.671-.051 1.327-.051v-.148q-.663 0-1.338.052zm1.332-.051v.074q2.693 0 4.644.732l.026-.069.026-.07q-1.982-.742-4.696-.741zm4.67.737-.026.07q.773.29 1.248.551.475.264.647.485l.058-.045.058-.046c-.134-.171-.368-.345-.692-.524a10 10 0 0 0-1.267-.56zm1.927 1.06-.06.045q.086.117.105.192c.014.049.008.08-.005.1l.064.039.063.038a.27.27 0 0 0 .02-.216.8.8 0 0 0-.127-.241zm1.167 7.452v.074h.003zm.647-.143-.024-.07zm.763-.4.043.06v-.001zm.569-.75-.069-.028zm.207.012-.07.023.002.008.004.007zm.013.09-.053-.052-.01.01-.005.012zm-.207.402-.065-.036v.001zm-.479.53-.045-.059-.001.001zm-.388.22.029.068h.002zm-.543.194.019.072.002-.001zm-.621.116.005.074h.004zm-.388 0 .005-.074-.029-.002-.022.019zm-.401.285.039.063zm-.673.362.03.068h.001zm-.647.22L41 30.733zm-.53.078v-.075l-.012.002zm-.517-.026-.032.067.006.002zm-.31-.259-.064.039.002.003zm-.13-.401-.074.004v.004zm.026-.517-.073-.017v.006zm.323-.738-.063-.038-.001.002zm.828-1.138-.057-.047zm.44-.53-.056-.05-.001.002zm.582-.647-.054-.051zm.776-.75-.034-.068-.009.007zm.168-.052-.007-.074-.009.002zm.207 0 .024-.071-.012-.002zm.039.077-.06-.044zm-.582.815-.06-.042h-.002zm-.88 1.255-.06-.043-.002.003zm-.31.505.063.039v-.002zm-.233.388.063.038.001-.002zm-.181.31-.064-.037v.001zm-.233.505-.07-.027v.002zm-.09.478h-.075v.005zm.245.22.006-.074h-.002zm.362-.039.02.072.004-.002zm.375-.168-.034-.065h-.002zm.363-.233.045.059.003-.002zm.297-.297.057.047.046-.055-.054-.048zm-.388-.621.073-.012zm.065-.621-.068-.03-.001.003zm.388-.543-.051-.054zm.556-.388-.03-.068h-.002zm.608-.156-.003-.074zm.518.156.047-.057zm.206.375.074-.012zm-.064.543-.07-.023-.001.001zm-.337.647-.06-.043-.001.002zm-.543.634-.051-.054-.133.128h.184zm-.685-.272.033-.066-.005-.002zm.155-.104.05.056.002-.003zm.285-.31-.055-.05-.002.002zm.323-.401-.059-.045-.002.002zm.259-.414-.066-.035-.002.004zm.09-.336h-.074v.007zm-.168-.194-.022.07.005.002zm-.53.09.03.068.002-.001zm-.544.479.06.045.002-.005zm-.22.698-.073.008zm1.139.764.003.074q.286-.016.668-.147l-.024-.07-.025-.07q-.369.127-.626.139zm.647-.143.023.07q.4-.133.783-.41l-.043-.06-.044-.06a2.8 2.8 0 0 1-.743.39zm.763-.4.043.059q.407-.298.595-.783l-.07-.027-.068-.027a1.58 1.58 0 0 1-.544.718zm.569-.75.069.027.015-.03-.006.004a.1.1 0 0 1-.026.007v-.148a.1.1 0 0 0-.084.044.3.3 0 0 0-.037.068zm.052-.066v.074h.064v-.148h-.064zm.064 0v.074l.006.001.001.001q.004.001.014.025l.07-.023.07-.023a.2.2 0 0 0-.057-.091.16.16 0 0 0-.104-.038zm.09.078-.063.038.01.02q.004.008.003.008l.001-.01a.04.04 0 0 1 .01-.018l.053.053.052.052a.11.11 0 0 0 .03-.099.2.2 0 0 0-.032-.082zm.014.09-.068-.03a7 7 0 0 1-.204.396l.065.036.065.035q.155-.286.21-.406zm-.207.402-.066-.035q-.132.254-.458.506l.045.059.045.059q.346-.266.5-.555zm-.479.53-.046-.058q-.118.095-.372.21l.03.068.03.067q.263-.117.404-.23zm-.388.22-.029-.068q-.241.1-.536.191l.022.07.021.072q.3-.092.55-.197zm-.543.194-.019-.072a5 5 0 0 1-.61.115l.008.073.009.074q.328-.04.63-.119zm-.621.116-.005-.074a3 3 0 0 1-.378 0l-.005.074-.005.074q.186.013.398 0zm-.388 0-.046-.057a4 4 0 0 1-.394.28l.039.062.04.063q.21-.132.407-.29zm-.401.285-.039-.063a6 6 0 0 1-.665.358l.031.067.031.067a7 7 0 0 0 .68-.366zm-.673.362-.029-.068a4.4 4.4 0 0 1-.636.216l.018.072.018.072a4.5 4.5 0 0 0 .658-.224zm-.647.22L41 30.733q-.291.075-.512.075v.149a2.2 2.2 0 0 0 .55-.08zm-.53.078-.012-.073q-.298.048-.48-.023l-.025.07-.026.069c.154.058.34.065.555.03zm-.517-.026.03-.067a.7.7 0 0 1-.28-.234l-.06.042-.062.042q.13.185.34.284zm-.31-.259.062-.039a.9.9 0 0 1-.119-.37l-.073.008-.074.008q.027.247.14.432zm-.13-.401.074-.004q-.013-.237.025-.503l-.073-.01-.074-.01a2.7 2.7 0 0 0-.026.53zm.026-.517.072.016q.06-.268.315-.717l-.064-.037-.064-.037q-.262.457-.331.758zm.323-.738.064.038q.267-.446.822-1.13l-.058-.046-.057-.047q-.558.688-.834 1.147zm.828-1.138.057.047q.195-.233.44-.53l-.057-.048-.057-.047q-.245.298-.44.53zm.44-.53.056.048q.257-.295.58-.645l-.054-.05-.054-.05q-.324.35-.584.648zm.582-.647.053.051c.399-.416.652-.66.766-.741l-.043-.06-.043-.06c-.128.09-.392.346-.787.759zm.776-.75.033.066a.7.7 0 0 1 .151-.046l-.016-.072-.016-.072a1 1 0 0 0-.185.057zm.168-.052.008.073a.8.8 0 0 1 .187 0l.012-.073.012-.073a1 1 0 0 0-.226 0zm.207 0-.023.07.014.006q0 .001-.009-.01a.04.04 0 0 1-.003-.028q.003-.01 0-.005l.06.044.06.045c.02-.028.04-.074.016-.123-.02-.04-.062-.06-.091-.07zm.039.077-.06-.044q-.22.3-.583.817l.06.042.062.043q.36-.517.58-.814zm-.582.815-.062-.041q-.348.516-.878 1.253l.06.043.06.043q.531-.738.881-1.256zm-.88 1.255-.062-.04q-.182.286-.312.507l.064.038.064.037q.127-.219.309-.502zm-.31.505-.063-.04q-.13.21-.234.39l.064.038.064.036q.103-.18.232-.385zm-.233.388-.064-.038-.181.311.064.037.064.037.18-.31zm-.181.31-.065-.036q-.132.238-.237.514l.069.027.07.026q.1-.267.228-.495zm-.233.505-.07-.025a1.5 1.5 0 0 0-.095.503h.149q0-.204.086-.454zm-.09.478-.074.005a.3.3 0 0 0 .092.209.36.36 0 0 0 .223.08l.004-.074.004-.074c-.067-.004-.108-.02-.132-.042-.023-.021-.04-.054-.044-.108zm.245.22-.005.074q.182.014.386-.041l-.019-.072-.019-.071a1 1 0 0 1-.337.036zm.362-.039.024.07q.2-.066.388-.174l-.037-.064-.036-.064q-.175.099-.362.162zm.375-.168.035.065q.2-.105.373-.239l-.045-.059-.045-.058a2.5 2.5 0 0 1-.352.226zm.363-.233.048.057a2.5 2.5 0 0 0 .306-.307l-.057-.047-.057-.048q-.124.15-.288.289zm.297-.297.05-.056c-.217-.19-.334-.384-.365-.577l-.073.012-.073.012c.038.237.18.459.412.664zm-.388-.621.073-.012a1.1 1.1 0 0 1 .06-.582l-.068-.027-.07-.027q-.123.316-.068.66zm.065-.621.068.03q.123-.283.37-.52l-.05-.053-.051-.054q-.27.256-.405.567zm.388-.543.05.053q.252-.238.538-.375l-.032-.066-.032-.067a2.2 2.2 0 0 0-.575.401zm.556-.388.031.067q.3-.137.58-.149l-.003-.074-.003-.074q-.314.015-.636.162zm.608-.156.003.074a.67.67 0 0 1 .468.139l.047-.057.046-.058a.82.82 0 0 0-.567-.172zm.518.156-.048.056a.53.53 0 0 1 .181.33l.073-.011.074-.012a.68.68 0 0 0-.233-.42zm.206.375-.073.012q.037.209-.061.508l.07.023.07.023q.109-.322.068-.578zm-.064.543-.071-.022a2.3 2.3 0 0 1-.326.626l.06.043.061.042q.25-.356.347-.667zm-.337.647-.061-.041a3.8 3.8 0 0 1-.533.621l.051.054.052.053q.341-.328.553-.646zm-.543.634v.074h.104v-.148h-.104zm-.685-.272-.033.066a.1.1 0 0 0 .078.002.2.2 0 0 0 .047-.026q.045-.03.112-.09l-.05-.056-.049-.055a1 1 0 0 1-.11.087l-.002.001h.002l.007-.002q.009-.002.03.007zm.155-.104.052.053q.132-.132.289-.315l-.056-.048-.057-.048q-.153.18-.28.306zm.285-.31.054.05a4 4 0 0 0 .33-.408l-.061-.043-.06-.043a4 4 0 0 1-.318.394zm.323-.401.059.045q.171-.224.267-.428l-.067-.03-.068-.032q-.085.184-.25.4zm.259-.414.065.035a.7.7 0 0 0 .099-.378l-.074.007-.074.007a.55.55 0 0 1-.082.294zm.09-.336h.074a.26.26 0 0 0-.06-.175.3.3 0 0 0-.165-.091l-.017.072-.017.072c.046.01.072.027.087.044q.023.022.024.078zm-.168-.194.022-.07c-.164-.052-.362-.013-.584.094l.032.066.032.067c.209-.1.364-.121.476-.087zm-.53.09-.03-.067q-.345.151-.576.505l.062.04.062.041q.21-.32.511-.45zm-.544.479-.058-.045c-.182.236-.264.488-.235.751l.073-.008.074-.008c-.023-.219.042-.433.205-.645zm-.22.698-.073.008q.02.197.12.34.102.141.274.212l.029-.068.028-.068a.47.47 0 0 1-.21-.163.56.56 0 0 1-.094-.269zm11.606-.129-.052-.052-.007.007-.005.008zm-1.177.802-.018-.072zm-1.448-.103.04-.063-.05-.031-.042.04zm-.776.66-.045-.06zm-.79.517.035.065h.001zm-.763.323-.022-.07zm-.957-2.587.062.041.012-.018v-.023zm.026-.039.052.053-.074-.123zm-.543.181.022.07h.002zm-.557.143.014.072zm-.478.026-.01.073zm-.259-.195.07-.026-.05-.13-.08.114zm-.88 1.216-.059-.044zm-.918 1.203.014.073.027-.005.017-.022zm-.194.013v-.074h-.007zm-.285 0 .007-.074h-.007zm-.245-.026.018-.072-.01-.001zm.051-.22.058.047zm.414-.53.059.045zm.595-.789.06.045v-.002zm.66-.931-.06-.044v.001zm.686-.932.059.044zm.595-.828-.06-.043zm.44-.594.058.044.002-.001zm.18-.246-.052-.053zm.195-.04-.006-.073zm.31-.012v.074h.004zm.272.052.07-.024-.002-.004zm-.544.84-.059-.044zm-.802 1.1-.06-.044-.043.06.059.043zm.156.246.06.044.021-.03-.01-.036zm.258.388.004.074h.005zm.53-.104.02.072zm.505-.155.026.07.02-.008.013-.017zm1.746-1.668-.042-.061zm2.29 1.901.061.042zm-.297.414.057.046.002-.002zm-.337.388-.054-.05-.063.067.08.047zm1.126.065.02.07h.002zm.944-.634-.052-.052-.01.008-.005.012zm-1.656-.621-.043.06.065.047.042-.07zm-1.487-1.307.045.06v-.001zm-1.488 1.592-.061-.042zm1.966.996.053.051.056-.058-.062-.05zm-.09-1.152-.045-.06-.003.004zm3.026.647-.064-.037c-.211.366-.584.624-1.131.767l.018.072.02.072c.573-.15.985-.427 1.222-.837zm-1.177.802-.019-.072a2.6 2.6 0 0 1-.653.101v.149q.297 0 .691-.106zm-.672.104v-.075q-.435 0-.736-.195l-.04.063-.04.062q.345.22.816.219zm-.776-.207-.052-.054q-.372.36-.769.654l.044.06.045.059q.404-.3.783-.666zm-.776.66-.046-.06a6 6 0 0 1-.78.512l.036.065.036.065q.405-.223.799-.524zm-.79.517-.034-.066a4.3 4.3 0 0 1-.75.318l.021.071.022.07q.383-.117.776-.328zm-.763.323-.022-.07a2.3 2.3 0 0 1-.663.113v.148q.324 0 .707-.12zm-.685.117v-.075c-.309 0-.526-.075-.667-.211-.14-.137-.217-.347-.217-.646h-.148c0 .323.083.578.262.752.178.173.44.254.77.254zm-.958-.932h.074c0-.479.22-1.055.673-1.73l-.061-.042-.061-.041c-.461.686-.699 1.292-.699 1.813zm.686-1.772h.074q0 .015-.004.02l-.002.005q0-.001.01-.011l-.052-.053-.053-.052a.2.2 0 0 0-.028.034.1.1 0 0 0-.02.057zm.026-.039-.022-.07q-.247.078-.546.181l.025.07.024.07q.297-.104.541-.18zm-.543.181-.023-.07a5 5 0 0 1-.547.14l.013.073.014.072a5 5 0 0 0 .565-.144zm-.557.143-.014-.073a1.5 1.5 0 0 1-.455.025l-.01.073-.008.074q.221.027.501-.027zm-.478.026.01-.074a.27.27 0 0 1-.128-.047.2.2 0 0 1-.072-.1l-.069.026-.07.027a.37.37 0 0 0 .319.24zm-.259-.195-.06-.042q-.428.608-.879 1.214l.06.044.059.045q.453-.609.88-1.218zm-.88 1.216-.06-.044q-.438.594-.916 1.202l.058.045.058.046q.48-.608.92-1.205zm-.918 1.203-.015-.072a1 1 0 0 1-.18.011v.148q.133 0 .21-.014zm-.194.013-.007-.073q-.135.012-.271 0l-.007.073-.006.074q.148.015.298 0zm-.285 0v-.074a1 1 0 0 1-.227-.023l-.018.071-.018.072q.114.029.263.028zm-.245-.026.009-.073a.3.3 0 0 1-.054-.012l.005.005q.01.01.01.029h-.148c0 .053.038.084.067.098a.3.3 0 0 0 .101.027zm-.104-.051h-.074a.076.076 0 0 0 .083.077.1.1 0 0 0 .045-.019.3.3 0 0 0 .04-.037q.04-.045.12-.143l-.059-.046-.057-.047a3 3 0 0 1-.128.15l-.005.005.006-.004a.1.1 0 0 1 .025-.007.07.07 0 0 1 .078.07zm.155-.168.058.046q.156-.195.415-.532l-.059-.045-.059-.045q-.258.335-.412.53zm.414-.53.06.043a65 65 0 0 1 .594-.788l-.059-.045-.059-.045q-.336.44-.595.79zm.595-.79.06.043q.324-.453.66-.932l-.06-.042-.06-.043q-.338.48-.66.931zm.66-.931.06.043q.348-.479.685-.93l-.06-.045-.059-.044q-.336.453-.686.932zm.686-.932.06.044q.336-.465.595-.829l-.06-.043-.06-.043q-.26.363-.595.828zm.595-.828.06.044q.27-.375.438-.594l-.059-.044-.058-.046q-.17.222-.441.597zm.44-.594.06.043.163-.224.01-.013-.052-.052-.053-.053-.023.028-.036.049-.13.178zm.18-.246.053.052c-.007.007-.012.008-.005.005l.029-.007q.041-.009.123-.015l-.005-.074-.006-.074q-.086.007-.142.017l-.05.014a.13.13 0 0 0-.049.03zm.195-.04.005.075q.18-.013.305-.013v-.148q-.133 0-.316.013zm.31-.012.004.074a.8.8 0 0 1 .173.005.1.1 0 0 1 .032.01c.003.002-.002 0-.006-.01l.069-.027.068-.028a.13.13 0 0 0-.059-.064.3.3 0 0 0-.076-.026 1 1 0 0 0-.209-.008zm.272.052-.07.023c-.006-.017 0-.026-.004-.014l-.017.04q-.028.055-.094.16-.134.206-.418.587l.06.044.059.045q.285-.383.423-.596.069-.107.103-.175a.4.4 0 0 0 .026-.063.13.13 0 0 0 .002-.075zm-.544.84-.06-.043-.802 1.1.06.043.06.044.802-1.1zm-.802 1.1-.044.06c.053.039.097.105.129.208l.07-.022.071-.022a.54.54 0 0 0-.181-.283zm.156.246-.06-.044a.7.7 0 0 0-.122.23.2.2 0 0 0-.002.107q.016.056.062.09l.044-.06.044-.059q-.006-.004-.006-.01a.1.1 0 0 1 .002-.033.6.6 0 0 1 .097-.177zm-.078.323-.044.06c.09.067.224.088.384.079l-.004-.074-.004-.074c-.15.008-.24-.014-.288-.05zm.336.065.008.073q.24-.026.541-.105l-.018-.072-.019-.071q-.294.076-.52.101zm.53-.104.02.072q.3-.079.511-.157l-.026-.07-.026-.07q-.202.076-.497.154zm.505-.155.06.045a7.6 7.6 0 0 1 1.729-1.653l-.043-.06-.042-.061a7.8 7.8 0 0 0-1.763 1.685zm1.746-1.668.043.06c.762-.53 1.42-.789 1.975-.789v-.148c-.6 0-1.287.277-2.06.816zm2.018-.802v.073c.309 0 .526.075.667.212.14.137.217.347.217.646h.148c0-.323-.083-.578-.262-.752-.178-.173-.44-.254-.77-.254zm.958.93h-.074c0 .48-.22 1.056-.673 1.732l.061.041.062.041c.46-.686.698-1.292.698-1.813zm-.686 1.773-.061-.042q-.141.205-.296.412l.06.044.059.044a13 13 0 0 0 .3-.416zm-.297.414-.058-.046a7 7 0 0 1-.333.383l.054.051.054.05a7 7 0 0 0 .34-.392zm-.337.388-.037.064q.298.177.593.178v-.148q-.247.002-.518-.158zm.556.168v.074q.236 0 .59-.106l-.02-.071-.021-.071q-.344.101-.549.1zm.57-.103.021.07c.506-.157.846-.376.99-.672l-.067-.032-.067-.032c-.115.239-.405.442-.9.595zm.944-.634.052.052c.053-.052.095-.069.129-.069v-.148a.33.33 0 0 0-.233.113zm.181-.09v.073c.038 0 .052.01.057.013.003.004.011.013.011.043h.148a.2.2 0 0 0-.06-.152.23.23 0 0 0-.156-.052zm.142.129h-.074c0 .02-.007.041-.03.064l.053.052.052.052a.24.24 0 0 0 .073-.168zm-1.979-.66.064.038c.322-.54.489-1.01.489-1.41h-.148c0 .36-.152.804-.468 1.334zm.479-1.371h.074c0-.208-.046-.378-.152-.496-.106-.12-.262-.173-.453-.173v.148c.163 0 .273.045.343.124.071.08.114.208.114.397zm-.53-.595v-.074c-.414 0-.91.233-1.482.675l.046.058.045.059c.566-.437 1.028-.644 1.39-.644zm-1.436.66-.046-.06a7 7 0 0 0-1.503 1.609l.061.041.061.042a6.9 6.9 0 0 1 1.472-1.574zm-1.488 1.59-.061-.041c-.451.66-.686 1.23-.686 1.71h.148c0-.434.215-.976.66-1.627zm-.673 1.67h-.074c0 .207.048.377.155.495.11.12.268.173.463.173v-.148c-.168 0-.281-.045-.353-.124-.073-.08-.117-.208-.117-.397zm.544.594v.074c.61 0 1.328-.443 2.148-1.29l-.053-.051-.053-.052c-.818.844-1.497 1.245-2.042 1.245zm2.095-1.267.047-.058c-.221-.18-.322-.372-.322-.576h-.148c0 .261.132.492.376.691zm-.35-.634h.075c0-.174.074-.326.233-.461l-.048-.057-.048-.056c-.187.158-.285.35-.285.574zm.26-.518.044.06q.29-.219.654-.219v-.148q-.413 0-.743.248zm.698-.232v.073c.164 0 .28.033.358.09l.043-.06.044-.06c-.113-.082-.264-.118-.445-.118zm11.17.763-.053-.053-.019.019-.002.026zm-1.061.931.045.059zm-3.027 1.1-.044.06zm-.31-.583.073-.005zm1.073-1.733-.047-.057zm.31-1.798-.04-.062zm-1.901 1.824.055.05zm-1.177 1.449-.059-.046zm-.815 1.009.048.056zm-.401.142-.015-.073-.003.001zm-.505.065-.008.073h.003zm-.13-.078.074-.015-.003-.008zm2.083-2.678-.057-.046zm.815-.996.058.047.002-.002zm-1.578-.336.046.058zm-1.59 1.578-.06-.043h-.002zm-1.76 2.367.016.073.026-.006.016-.021zm-.298-.038.025-.07h-.001zm-.18-.143.072.013v-.003zm1.823-2.626.06.044zm1.733-2.276-.046-.058zm.324-.052v.074h.004zm.272.052.06.042.018-.026-.006-.03zm-.66.944-.06-.043.104.103zm2.483-1.009.013-.073zm.22 1.294-.063-.038.109.096zm2.6.646.056.05v-.001zm-1.694 2.484-.073-.011v.003zm.065.194-.053.053.005.004zm.258.039-.01-.074zm1.617-.945.046.059zm1.151-.995.057.048.001-.002zm.337-.04.072-.017-.001-.003zm-.078.208-.073-.008c0-.008.003-.006-.008.01a1 1 0 0 1-.045.054 3 3 0 0 1-.194.186q-.263.23-.785.63l.044.059.046.059q.525-.402.792-.637.135-.117.207-.197a1 1 0 0 0 .058-.072.2.2 0 0 0 .032-.077zm-1.06.931-.045-.059q-.852.652-1.437.974c-.393.217-.686.317-.886.317v.149c.24 0 .561-.118.958-.336q.599-.331 1.455-.986zm-2.368 1.306v-.073q-.352 0-.616-.193l-.043.06-.044.06q.306.22.703.22zm-.66-.206.044-.06a.67.67 0 0 1-.28-.528l-.074.005-.074.005a.82.82 0 0 0 .341.637zm-.31-.583.074-.006c-.04-.478.291-1.034 1.047-1.67l-.047-.057-.048-.057c-.761.64-1.146 1.24-1.1 1.797zm1.074-1.733.047.057q.915-.758 1.376-1.279.231-.26.35-.465a.77.77 0 0 0 .125-.37h-.148a.63.63 0 0 1-.104.295 3 3 0 0 1-.334.442q-.45.509-1.36 1.263zm1.824-2.057h.074a.3.3 0 0 0-.113-.252.5.5 0 0 0-.298-.08v.148c.105 0 .17.02.207.049.034.026.056.066.056.135zm-.337-.258v-.074q-.217.002-.518.135a5 5 0 0 0-.7.394l.041.062.04.062a5 5 0 0 1 .679-.382c.192-.085.344-.123.458-.123zm-1.177.517-.04-.062q-.675.451-1.916 1.836l.055.05.055.05q1.241-1.383 1.887-1.812zm-1.901 1.824-.055-.05q-.378.418-1.181 1.453l.059.046.058.045q.802-1.034 1.174-1.444zm-1.177 1.449-.059-.046q-.355.46-.559.71-.1.125-.164.2-.064.074-.082.089l.049.056.048.055a1 1 0 0 0 .098-.104q.065-.076.167-.202.204-.254.56-.713zm-.815 1.009-.049-.056a.4.4 0 0 1-.122.06 2 2 0 0 1-.245.066l.015.072.015.073q.158-.034.265-.071a.5.5 0 0 0 .169-.088zm-.401.142-.018-.072q-.306.075-.482.063l-.005.074-.005.074q.21.012.528-.067zm-.505.065.008-.074a.2.2 0 0 1-.06-.016l-.005-.003-.072.015-.073.015c.02.095.112.127.194.136zm-.13-.078.071-.023q.005.016.003.025l-.001.01q0 .003 0 0l.018-.032q.027-.046.09-.133.126-.175.386-.51.52-.668 1.574-1.968l-.058-.047-.057-.046q-1.054 1.3-1.576 1.97-.26.335-.389.515-.065.089-.096.142a1 1 0 0 0-.035.071.1.1 0 0 0 0 .05zm2.083-2.678.058.047q.4-.492.815-.996l-.058-.047-.057-.047-.815.997zm.815-.996.06.045q.235-.314.356-.555a1 1 0 0 0 .124-.421h-.148a.85.85 0 0 1-.109.355 3.6 3.6 0 0 1-.342.532zm.466-.931h.074a.35.35 0 0 0-.118-.28.5.5 0 0 0-.318-.092v.148c.112 0 .183.024.225.058.038.032.063.082.063.166zm-.362-.297v-.075c-.203 0-.45.081-.733.232a7 7 0 0 0-.995.677l.046.058.046.058a6.7 6.7 0 0 1 .972-.662c.276-.147.496-.215.664-.215zm-1.682.892-.046-.058q-1.04.819-1.605 1.593l.06.043.06.044q.548-.753 1.577-1.564zm-1.59 1.578-.061-.042a58 58 0 0 1-1.757 2.364l.058.045.058.046a58 58 0 0 0 1.762-2.37zm-1.76 2.367-.016-.072a.5.5 0 0 1-.257-.036l-.025.07-.024.07a.63.63 0 0 0 .338.04zm-.298-.038.024-.07a.4.4 0 0 1-.12-.057c-.02-.015-.01-.016-.012-.003l-.073-.013-.073-.012c-.01.064.026.113.066.145q.062.046.165.08zm-.18-.143.073.01q-.001 0 .005-.017l.021-.045q.03-.057.087-.15a12 12 0 0 1 .343-.515q.454-.655 1.354-1.864l-.06-.045-.06-.044q-.898 1.21-1.356 1.868-.228.33-.347.522-.06.096-.093.16a.4.4 0 0 0-.041.111zm1.823-2.626.06.044q.789-1.074 1.221-1.642.218-.284.344-.441c.087-.108.137-.165.156-.18l-.047-.057-.048-.057a2 2 0 0 0-.177.201q-.128.16-.345.445-.434.57-1.224 1.643zm1.733-2.276.047.057a.2.2 0 0 1 .078-.023q.073-.012.199-.012v-.148a1.5 1.5 0 0 0-.222.014.3.3 0 0 0-.148.054zm.324-.052.004.074a1 1 0 0 1 .18.005.1.1 0 0 1 .027.009s-.009-.006-.012-.022l.073-.014.072-.015a.12.12 0 0 0-.056-.076.2.2 0 0 0-.077-.027 1 1 0 0 0-.215-.008zm.272.052-.061-.043q-.116.168-.66.944l.06.043.062.043.66-.945zm-.66.944.044.06q.7-.515 1.24-.77c.358-.17.659-.25.902-.25v-.149q-.412.002-.966.266-.555.263-1.264.783zm2.186-1.035v.074q.135 0 .285.025l.013-.073.012-.073a2 2 0 0 0-.31-.027zm.297.026-.012.073a.44.44 0 0 1 .284.153c.06.078.094.19.094.343h.148a.7.7 0 0 0-.125-.433.58.58 0 0 0-.376-.209zm.44.57h-.074q.002.324-.21.686l.064.038.064.037q.229-.389.23-.762zm-.22.724.046.058q.838-.65 1.45-.973c.41-.216.739-.318.988-.318v-.148c-.285 0-.639.115-1.056.335q-.63.33-1.473.987zm2.484-1.307v.074c.237 0 .4.051.505.14.102.088.158.223.158.42h.148c0-.226-.066-.408-.21-.532-.142-.121-.346-.176-.601-.176zm.737.634h-.074c0 .38-.194.803-.602 1.27l.056.05.055.048c.42-.48.64-.937.64-1.368zm-.62 1.32-.056-.05q-.798.908-1.225 1.534c-.283.415-.45.746-.487.988l.073.011.073.011c.032-.206.181-.513.463-.926q.42-.615 1.214-1.52zm-1.695 2.483-.074-.008a.3.3 0 0 0 .086.254l.053-.052.052-.052a.15.15 0 0 1-.044-.134zm.065.194-.048.057c.077.064.19.073.317.055l-.01-.073-.011-.073c-.116.016-.174 0-.201-.023zm.258.039.01.073c.179-.023.406-.119.678-.278q.41-.24.975-.681l-.046-.059-.045-.058a9 9 0 0 1-.959.67c-.267.156-.473.24-.622.26zm1.617-.945.046.059q.932-.736 1.162-1.007l-.056-.047-.057-.048q-.209.247-1.14.985zm1.151-.995.058.046c.062-.077.116-.102.162-.102v-.148c-.108 0-.2.061-.277.157zm.22-.13v.074q.026.001.03.007c.003.003.01.01.016.03l.07-.02.072-.02a.2.2 0 0 0-.068-.107.2.2 0 0 0-.12-.038zm.117.09-.072.019c.009.034 0 .078-.058.136l.052.053.053.052c.08-.08.122-.174.097-.277zm5.728.311-.052-.052-.067.067.081.049zm-1.06.97.044.06.003-.003zm-2.368 1.177.01-.073zm-.698-.827.074-.002-.003-.156-.12.101zm-.932.595-.03-.068h-.002zm-.957.232.01-.073zm-.673-1.073.073.016v-.003zm1.216-1.98-.057-.046zm1.734-2.004.035.065.004-.003zm.246-.065v.074h.005zm-.311.905.06.043h.001zm-.918 1.346.062.04zm-.712 1.138-.064-.036-.001.002zm-.297.867.073.009v-.002zm.465.362-.029-.068-.004.002zm2.549-2.432.059.045v-.002zm1.565-2.121-.04-.063-.01.007-.01.01zm.246-.065v.074h.005zm-.31.905.06.043zm-.92 1.346.063.04.001-.002zm-.995 2.03.073.013v-.003zm2.03-.685.047.057.003-.002zm.893-.854-.058-.046.096.11zm.207.233-.038.064a.07.07 0 0 1-.032-.063c.001-.011.005-.017.003-.013a.3.3 0 0 1-.03.038q-.055.06-.186.181-.263.24-.825.706l.047.057.048.057q.563-.465.83-.71.134-.122.196-.192a.4.4 0 0 0 .05-.065.1.1 0 0 0 .014-.044.08.08 0 0 0-.039-.08zm-1.06.97-.045-.06q-.85.633-1.434.922c-.392.195-.682.27-.879.242l-.01.073-.01.074c.243.033.568-.059.965-.256q.6-.3 1.457-.935zm-2.368 1.177.01-.073q-.322-.044-.47-.227-.156-.178-.164-.529l-.074.002h-.074c.004.258.067.468.198.623.132.156.323.246.564.278zm-.698-.827-.048-.057q-.42.356-.915.584l.031.068.031.067a4.1 4.1 0 0 0 .949-.606zm-.932.595-.032-.067c-.392.188-.695.257-.914.226l-.011.073-.01.074c.263.037.599-.048 1-.24zm-.957.232.01-.073c-.22-.029-.376-.107-.477-.23-.102-.122-.157-.298-.157-.537h-.148c0 .26.06.475.191.632.132.159.326.25.572.282zm-.699-.84h.075q0-.11.024-.217l-.073-.016-.072-.016a1 1 0 0 0-.027.249zm.026-.233.073.013q.053-.296.353-.786t.848-1.16l-.058-.046-.057-.047q-.552.675-.86 1.175t-.371.837zm1.216-1.98.058.047a74 74 0 0 1 1.214-1.456q.217-.25.344-.385a2 2 0 0 1 .104-.105.3.3 0 0 1 .049-.04l-.035-.065-.035-.066a.4.4 0 0 0-.08.063q-.045.042-.11.111-.132.138-.349.39-.434.503-1.217 1.46zm1.734-2.004.039.062a.4.4 0 0 1 .207-.053v-.148a.53.53 0 0 0-.286.076zm.246-.065.005.074c.052-.004.076.002.085.007l.003.002v.008h.149a.151.151 0 0 0-.081-.14.3.3 0 0 0-.167-.025zm.168.09h-.074l-.004.016-.02.048q-.027.06-.086.16a10 10 0 0 1-.356.55l.061.041.061.042q.24-.35.362-.557.06-.103.093-.174a.3.3 0 0 0 .037-.125zm-.479.815-.06-.042a57 57 0 0 0-.921 1.348l.063.04.062.04q.154-.244.917-1.343zm-.918 1.346-.063-.04q-.594.931-.713 1.142l.064.036.065.036q.114-.203.709-1.134zm-.712 1.138-.065-.034q-.264.498-.306.893l.074.008.073.007q.036-.355.29-.84zm-.297.867-.074-.01c-.018.148-.009.274.04.365.055.1.15.146.266.146v-.148c-.073 0-.112-.026-.135-.069-.028-.05-.04-.138-.024-.275zm.232.427v.074a.6.6 0 0 0 .266-.073l-.033-.066-.033-.066a.46.46 0 0 1-.2.057zm.233-.065.03.068c.709-.301 1.568-1.126 2.578-2.455l-.06-.045-.058-.045c-1.009 1.328-1.848 2.124-2.519 2.409zm2.549-2.432.06.043a82 82 0 0 1 1.564-2.12l-.06-.044-.058-.045a82 82 0 0 0-1.567 2.123zm1.565-2.121.04.062a.4.4 0 0 1 .206-.053v-.148a.53.53 0 0 0-.285.076zm.246-.065.005.074c.052-.004.076.002.086.007l.002.002v.008h.149a.151.151 0 0 0-.081-.14.3.3 0 0 0-.167-.025zm.168.09h-.074l-.004.016-.02.048q-.027.06-.086.16a10 10 0 0 1-.356.55l.061.041.061.042q.24-.35.362-.557.06-.103.093-.174a.3.3 0 0 0 .037-.125zm-.479.815-.06-.042q-.764 1.085-.922 1.35l.064.038.063.038q.152-.254.916-1.341zm-.918 1.346-.062-.04q-.462.713-.713 1.226-.252.512-.295.835l.074.01.073.009q.035-.284.281-.789.246-.501.704-1.211zm-.996 2.03-.073-.012c-.023.135-.018.253.03.34.054.095.15.135.263.135v-.148c-.077 0-.114-.025-.133-.06-.024-.042-.035-.118-.014-.242zm.22.389v.074c.185 0 .433-.1.736-.279q.46-.273 1.121-.812l-.046-.057-.047-.057a10 10 0 0 1-1.104.799c-.3.178-.518.258-.66.258zm1.81-1.074.05.055q.555-.491.781-.706c.073-.07.125-.123.148-.153a.1.1 0 0 0 .019-.033.1.1 0 0 0 .003-.049.08.08 0 0 0-.06-.055.1.1 0 0 0-.037.001l-.018.007-.03.015.037.064.038.064.014-.008-.003.001a.1.1 0 0 1-.028.001.07.07 0 0 1-.056-.052c-.006-.022 0-.039.001-.041q.006-.012.002-.005-.021.028-.132.136-.222.21-.778.703zm.893-.854.058.047c.019-.024.044-.037.084-.037v-.148c-.08 0-.15.03-.2.092zm.142-.064v.074c.044 0 .062.009.07.015.004.004.012.012.012.04h.148a.2.2 0 0 0-.066-.154.25.25 0 0 0-.164-.05zm.156.129h-.074c0 .023-.014.06-.07.116l.053.052.052.053c.066-.066.113-.14.113-.221z" mask="url(#a)"/><mask id="b" width="28" height="12" x="44.238" y="31.104" fill="#000" maskUnits="userSpaceOnUse"><path fill="#fff" d="M44.238 31.104h28v12h-28z"/><path d="M53.176 31.678q.543.194.854.893.323.685.323 1.668 0 2.562-1.798 4.916-1.229 1.604-2.742 2.56-1.5.945-2.807.945-.945 0-1.63-.517-.97-.724-.97-2.29 0-2.147 1.591-4.294 2.096-2.846 4.217-3.558.207-.065.285 0 .129.09-.207.207-.557.182-1.475.906a9.8 9.8 0 0 0-2.264 2.445q-1.15 1.772-1.151 3.673 0 1.863 1.112 2.471.517.285 1.165.285 2.211 0 4.488-2.898 1.85-2.355 1.85-4.85 0-.894-.272-1.501-.259-.621-.711-.764a1.5 1.5 0 0 0-.517-.09q-1.294 0-2.678 2.057-.737 1.112-.737 2.056 0 .57.297.738.18.09.388.09.855 0 1.604-1.164.207-.31.31-.246.17.078 0 .375-.258.48-.853.919-.673.504-1.28.504-.337 0-.609-.168-.57-.336-.569-1.255 0-.84.466-1.642a5.7 5.7 0 0 1 1.681-1.837q1.048-.738 2.005-.738.337 0 .634.104m6.618 8.356q-.22.35-1.358 1.23-1.126.879-2.122.879a.76.76 0 0 1-.517-.181.62.62 0 0 1-.207-.492q0-.271.155-.44.453-.453.453-.685a.3.3 0 0 0-.052-.168q-.104-.13-.362-.156-.44.207-.737.246a.38.38 0 0 1-.298-.065.28.28 0 0 1-.09-.232q.038-.195.465-.233.13-.013.375-.013a5 5 0 0 0 1.41-.776q1.281-.996 1.281-1.488 0-.18-.233-.181-.53 0-1.552.711-.466.311-1.332 1.126-.92.854-1.281 1.332-.608.84-1.28 1.682a.56.56 0 0 1-.298-.039q-.195-.064-.181-.142.026-.208 1.824-2.626.621-.84 2.444-3.467 1.527-2.186 2.484-3.415.75-.957 1.371-.957.427 0 .427.453 0 .53-.595 1.5a8.5 8.5 0 0 1-1.164 1.514q-1.177 1.19-2.303 1.694-.285.401-1.435 2.005.323-.27.633-.543.44-.363.867-.608 1.086-.647 1.915-.647.62 0 .62.414 0 .738-1.772 1.915a8 8 0 0 1-1.1.62q.48.09.596.337a.7.7 0 0 1 .052.271q0 .182-.104.414-.09.168-.168.324-.105.22-.104.323 0 .195.298.181.711-.039 1.979-1.086.401-.298.724-.673.117-.142.246-.142.105 0 .104.103 0 .078-.078.181m.233-8.033q-.453 0-2.005 2.38l-1.1 1.643q.764-.387 1.708-1.32.582-.568 1.06-1.357.48-.789.48-1.152 0-.194-.143-.194m1.15 9.392q-.026-.518.996-1.85l-.543.18a8 8 0 0 1-.582.156 2 2 0 0 1-.492.039q-.207-.026-.271-.207-.427.607-.88 1.216-.44.596-.919 1.203a.4.4 0 0 1-.142 0 1 1 0 0 1-.155-.039.5.5 0 0 1-.13-.065q-.051-.039-.051-.077.012-.195 1.824-2.626.789-1.086 1.216-1.643.44-.569.517-.634.052-.052.324-.052.245-.012.271.052.026.078-.543.841l-.802 1.1q.103.077.155.245-.194.26-.078.337.117.064.363.051.258-.026.569-.116t.504-.168l.233-.285q.673-.906 1.5-1.992a.45.45 0 0 1 .246-.065q.17-.012.169.091 0 .117-.479.815a34 34 0 0 0-.918 1.345q-.92 1.424-.996 2.031-.066.388.22.388.49 0 1.81-1.074 1.177-.943.958-.814a.17.17 0 0 1 .142-.065q.155 0 .155.13 0 .077-.09.167.065.04-1.126.932-1.707 1.267-2.367 1.177-.686-.09-.608-.724m10.227-1.359q.143.013-1.048.906-1.707 1.267-2.367 1.177-.699-.09-.699-.802 0-.168.052-.35-1.036 1.191-1.798 1.152-.802-.04-.802-.983 0-.88.828-1.928a7.3 7.3 0 0 1 1.966-1.733q1.049-.608 1.772-.608.31 0 .492.142.18.143.142.44.299-.297.362-.35a.35.35 0 0 1 .181-.064.4.4 0 0 1 .207 0q.078.013.04.078-.427.608-1.45 2.134-.918 1.424-.996 2.031-.065.388.22.388.492 0 1.811-1.074 1.177-.944.88-.789a.17.17 0 0 1 .142-.064q.156 0 .065.297m-1.915-2.044a.7.7 0 0 0 .156-.452q0-.388-.376-.388-.401 0-1.021.4-.673.428-1.294 1.139-1.397 1.578-1.397 2.613 0 .44.297.44.337 0 1.061-.699a10 10 0 0 0 1.1-1.242q.62-.828 1.474-1.81"/></mask><path fill="#000" d="M53.176 31.678q.543.194.854.893.323.685.323 1.668 0 2.562-1.798 4.916-1.229 1.604-2.742 2.56-1.5.945-2.807.945-.945 0-1.63-.517-.97-.724-.97-2.29 0-2.147 1.591-4.294 2.096-2.846 4.217-3.558.207-.065.285 0 .129.09-.207.207-.557.182-1.475.906a9.8 9.8 0 0 0-2.264 2.445q-1.15 1.772-1.151 3.673 0 1.863 1.112 2.471.517.285 1.165.285 2.211 0 4.488-2.898 1.85-2.355 1.85-4.85 0-.894-.272-1.501-.259-.621-.711-.764a1.5 1.5 0 0 0-.517-.09q-1.294 0-2.678 2.057-.737 1.112-.737 2.056 0 .57.297.738.18.09.388.09.855 0 1.604-1.164.207-.31.31-.246.17.078 0 .375-.258.48-.853.919-.673.504-1.28.504-.337 0-.609-.168-.57-.336-.569-1.255 0-.84.466-1.642a5.7 5.7 0 0 1 1.681-1.837q1.048-.738 2.005-.738.337 0 .634.104m6.618 8.356q-.22.35-1.358 1.23-1.126.879-2.122.879a.76.76 0 0 1-.517-.181.62.62 0 0 1-.207-.492q0-.271.155-.44.453-.453.453-.685a.3.3 0 0 0-.052-.168q-.104-.13-.362-.156-.44.207-.737.246a.38.38 0 0 1-.298-.065.28.28 0 0 1-.09-.232q.038-.195.465-.233.13-.013.375-.013a5 5 0 0 0 1.41-.776q1.281-.996 1.281-1.488 0-.18-.233-.181-.53 0-1.552.711-.466.311-1.332 1.126-.92.854-1.281 1.332-.608.84-1.28 1.682a.56.56 0 0 1-.298-.039q-.195-.064-.181-.142.026-.208 1.824-2.626.621-.84 2.444-3.467 1.527-2.186 2.484-3.415.75-.957 1.371-.957.427 0 .427.453 0 .53-.595 1.5a8.5 8.5 0 0 1-1.164 1.514q-1.177 1.19-2.303 1.694-.285.401-1.435 2.005.323-.27.633-.543.44-.363.867-.608 1.086-.647 1.915-.647.62 0 .62.414 0 .738-1.772 1.915a8 8 0 0 1-1.1.62q.48.09.596.337a.7.7 0 0 1 .052.271q0 .182-.104.414-.09.168-.168.324-.105.22-.104.323 0 .195.298.181.711-.039 1.979-1.086.401-.298.724-.673.117-.142.246-.142.105 0 .104.103 0 .078-.078.181m.233-8.033q-.453 0-2.005 2.38l-1.1 1.643q.764-.387 1.708-1.32.582-.568 1.06-1.357.48-.789.48-1.152 0-.194-.143-.194m1.15 9.392q-.026-.518.996-1.85l-.543.18a8 8 0 0 1-.582.156 2 2 0 0 1-.492.039q-.207-.026-.271-.207-.427.607-.88 1.216-.44.596-.919 1.203a.4.4 0 0 1-.142 0 1 1 0 0 1-.155-.039.5.5 0 0 1-.13-.065q-.051-.039-.051-.077.012-.195 1.824-2.626.789-1.086 1.216-1.643.44-.569.517-.634.052-.052.324-.052.245-.012.271.052.026.078-.543.841l-.802 1.1q.103.077.155.245-.194.26-.078.337.117.064.363.051.258-.026.569-.116t.504-.168l.233-.285q.673-.906 1.5-1.992a.45.45 0 0 1 .246-.065q.17-.012.169.091 0 .117-.479.815a34 34 0 0 0-.918 1.345q-.92 1.424-.996 2.031-.066.388.22.388.49 0 1.81-1.074 1.177-.943.958-.814a.17.17 0 0 1 .142-.065q.155 0 .155.13 0 .077-.09.167.065.04-1.126.932-1.707 1.267-2.367 1.177-.686-.09-.608-.724m10.227-1.359q.143.013-1.048.906-1.707 1.267-2.367 1.177-.699-.09-.699-.802 0-.168.052-.35-1.036 1.191-1.798 1.152-.802-.04-.802-.983 0-.88.828-1.928a7.3 7.3 0 0 1 1.966-1.733q1.049-.608 1.772-.608.31 0 .492.142.18.143.142.44.299-.297.362-.35a.35.35 0 0 1 .181-.064.4.4 0 0 1 .207 0q.078.013.04.078-.427.608-1.45 2.134-.918 1.424-.996 2.031-.065.388.22.388.492 0 1.811-1.074 1.177-.944.88-.789a.17.17 0 0 1 .142-.064q.156 0 .065.297m-1.915-2.044a.7.7 0 0 0 .156-.452q0-.388-.376-.388-.401 0-1.021.4-.673.428-1.294 1.139-1.397 1.578-1.397 2.613 0 .44.297.44.337 0 1.061-.699a10 10 0 0 0 1.1-1.242q.62-.828 1.474-1.81"/><path fill="#000" d="m53.176 31.678.025-.07zm.854.893-.068.03.001.001zm-1.475 6.584.06.045zm-2.742 2.56.04.064zm-4.437.428.045-.06zm.621-6.584.06.044zM50.214 32l-.022-.07h-.002zm.285 0-.048.057.005.004zm-.207.207.023.07zm-1.475.906.045.059v-.001zm-2.264 2.445-.062-.04zm-.038 6.144.035-.065zm5.652-2.613.058.046zm1.578-6.351-.068.028v.002zm-.711-.764-.026.07.004.001zm-3.195 1.967-.061-.042zm-.44 2.794-.036.064.003.002zm1.992-1.074-.061-.041-.001.001zm.31-.246-.039.064.009.004zm0 .375-.064-.036v.001zm-.853.919-.044-.06zm-1.889.336.04-.063h-.002zm-.103-2.897.064.037zm4.32-2.471-.025.07c.338.12.61.4.811.852l.068-.03.068-.03c-.213-.477-.51-.794-.897-.932zm.854.893-.067.031q.316.667.316 1.637h.149q0-.995-.331-1.7zm.323 1.668h-.074q.002 2.533-1.783 4.87l.06.046.058.045q1.812-2.371 1.814-4.96zm-1.798 4.916-.058-.045q-1.222 1.594-2.724 2.543l.04.063.04.063q1.525-.966 2.761-2.58zm-2.742 2.56-.04-.062c-.992.625-1.914.933-2.767.933v.148c.89 0 1.838-.321 2.846-.955zm-2.807.945v-.074q-.922 0-1.585-.502l-.045.059-.044.059q.706.532 1.674.532zm-1.63-.517.044-.06c-.622-.465-.94-1.202-.94-2.23h-.148c0 1.06.329 1.848 1 2.35zm-.97-2.29h.074q-.002-2.118 1.577-4.25l-.06-.044-.06-.044c-1.067 1.44-1.605 2.887-1.605 4.338zm1.591-4.294.06.044c1.392-1.892 2.787-3.064 4.18-3.532l-.023-.07-.023-.07c-1.435.481-2.852 1.68-4.254 3.584zM50.214 32l.022.071a.5.5 0 0 1 .153-.029c.037 0 .054.008.062.015l.048-.057.047-.057a.24.24 0 0 0-.157-.05.7.7 0 0 0-.197.037zm.285 0-.043.061c.015.01.007.01.005-.004-.002-.016.008-.021-.002-.012a.3.3 0 0 1-.061.04 1 1 0 0 1-.13.052l.024.07.024.07q.087-.03.148-.06a.4.4 0 0 0 .1-.067.13.13 0 0 0 .044-.113.15.15 0 0 0-.067-.097zm-.207.207-.023-.07c-.384.125-.884.434-1.498.918l.046.058.046.058q.915-.721 1.452-.893zm-1.475.906-.045-.059a9.9 9.9 0 0 0-2.28 2.463l.061.04.062.041a9.8 9.8 0 0 1 2.247-2.426zm-2.264 2.445-.062-.04q-1.162 1.788-1.163 3.713h.148q0-1.876 1.14-3.633zm-1.151 3.673h-.074c0 1.255.375 2.112 1.15 2.536l.036-.065.036-.065c-.708-.387-1.074-1.177-1.074-2.406zm1.112 2.471-.035.065q.535.294 1.2.294v-.149a2.3 2.3 0 0 1-1.129-.275zm1.165.285v.074c1.509 0 3.024-.988 4.546-2.926l-.058-.046-.058-.046c-1.513 1.926-2.99 2.87-4.43 2.87zm4.488-2.898.058.046q1.864-2.37 1.866-4.897h-.148q.002 2.467-1.834 4.805zm1.85-4.85h.074q.001-.905-.278-1.532l-.068.03-.067.03q.264.59.265 1.471zm-.272-1.501.069-.029c-.177-.425-.428-.701-.758-.805l-.022.07-.022.071c.273.086.497.319.665.721zm-.711-.764.026-.069a1.6 1.6 0 0 0-.543-.095v.148q.258 0 .491.086zm-.517-.09v-.074c-.903 0-1.815.715-2.74 2.09l.062.04.061.042c.921-1.368 1.794-2.024 2.617-2.024zm-2.678 2.057-.062-.041c-.496.749-.75 1.448-.75 2.097h.149c0-.61.238-1.281.725-2.015zm-.737 2.056h-.074c0 .388.1.67.335.802l.036-.064.036-.065c-.162-.092-.26-.301-.26-.673zm.297.738-.033.066a.9.9 0 0 0 .421.098v-.148a.8.8 0 0 1-.355-.083zm.388.09v.074c.607 0 1.161-.414 1.666-1.198l-.062-.04-.062-.04c-.495.769-1.01 1.13-1.542 1.13zm1.604-1.164.062.041a1 1 0 0 1 .165-.2.1.1 0 0 1 .042-.023h.003l.039-.064.039-.062c-.076-.048-.156-.013-.215.033a1 1 0 0 0-.196.234zm.31-.246-.03.068a.1.1 0 0 1 .031.024q.009.012.01.04c0 .044-.02.111-.075.207l.065.036.064.037a.6.6 0 0 0 .094-.28.2.2 0 0 0-.033-.119.2.2 0 0 0-.094-.08zm0 .375-.065-.035q-.246.46-.832.894l.044.06.044.06q.605-.447.875-.943zm-.853.919-.044-.06c-.441.33-.853.49-1.237.49v.148c.427 0 .869-.177 1.325-.519zm-1.28.504v-.074q-.317 0-.57-.157l-.039.063-.039.063q.291.18.647.18zm-.609-.168.038-.064c-.349-.206-.533-.593-.533-1.19h-.148c0 .627.195 1.075.606 1.318zm-.569-1.255h.074q0-.818.456-1.605l-.064-.037-.064-.038q-.476.818-.476 1.68zm.466-1.642.064.037a5.6 5.6 0 0 1 1.66-1.814l-.043-.06-.042-.06a5.8 5.8 0 0 0-1.703 1.86zm1.681-1.837.043.06q1.035-.726 1.962-.724V31.5c-.657 0-1.34.254-2.047.751zm2.005-.738v.074q.325 0 .61.1l.024-.07.025-.07a2 2 0 0 0-.659-.108zm7.252 8.46-.06-.044-.003.005zm-1.358 1.23-.045-.06zm-2.639.698.049-.056zm-.052-.932-.052-.052-.002.002zm.401-.853.062-.042-.004-.005zm-.362-.156.007-.073-.02-.002-.019.008zm-.737.246-.01-.073zm-.298-.065-.053.053.008.006zm-.09-.232-.073-.015-.001.007zm.465-.233.007.073zm.375-.013v.074h.013l.012-.004zm1.41-.776.046.058zm-.504-.958.041.062h.001zm-1.332 1.126.05.054zm-1.281 1.332-.06-.044zm-1.28 1.682.015.072.026-.005.016-.02zm-.298-.039.025-.07h-.002zm-.181-.142.073.012v-.003zm1.824-2.626.059.044zm2.444-3.467-.06-.042zm2.484-3.415-.058-.046zm1.203.996-.063-.039zm-1.164 1.514.053.052zm-2.303 1.694-.03-.067-.018.008-.012.016zm-1.435 2.005-.06-.043.107.1zm.633-.543-.047-.057-.001.001zm.867-.608.037.064zm.763 1.682-.04-.062zm-1.1.62-.03-.067-.21.097.227.043zm.596.337.069-.028-.002-.004zm-.052.685.065.036.003-.006zm-.168.324-.066-.033-.001.001zm.194.504.003.074zm1.979-1.086-.044-.06-.003.003zm.724-.673.056.048.002-.001zm-1.5-5.51.061.04zm-1.1 1.642-.061-.04-.158.235.253-.129zm1.708-1.32-.052-.052zm1.164 5.33-.063-.04q-.099.161-.436.467-.337.305-.904.744l.045.058.045.059q.57-.441.913-.75.343-.31.463-.498zm-1.358 1.23-.046-.06c-.742.581-1.434.865-2.076.865v.148c.687 0 1.41-.303 2.167-.895zm-2.122.879v-.074a.68.68 0 0 1-.468-.163l-.049.056-.049.055q.231.2.566.2zm-.517-.181.049-.056a.55.55 0 0 1-.182-.436h-.148q-.001.34.232.547zm-.207-.492h.074a.55.55 0 0 1 .136-.39l-.055-.05-.054-.05a.7.7 0 0 0-.175.49zm.155-.44.053.053q.23-.23.349-.41c.078-.118.125-.229.125-.328h-.148c0 .056-.028.136-.101.247a2.6 2.6 0 0 1-.33.386zm.453-.685h.074a.37.37 0 0 0-.064-.21l-.062.042-.061.04q.039.06.039.128zm-.052-.168.058-.047c-.087-.108-.231-.164-.413-.182l-.007.073-.007.074c.163.016.26.064.311.128zm-.362-.156-.032-.067q-.434.204-.715.24l.01.073.01.074q.314-.042.759-.253zm-.737.246-.01-.073c-.107.015-.184-.005-.242-.05l-.046.059-.045.058a.45.45 0 0 0 .353.08zm-.298-.065.052-.052c-.055-.055-.075-.112-.069-.173l-.073-.007-.074-.008c-.011.112.03.21.112.293zm-.09-.232.072.014c.007-.035.032-.071.097-.103a.9.9 0 0 1 .303-.07l-.007-.074-.006-.074q-.221.019-.357.085c-.09.046-.156.113-.175.207zm.465-.233.008.073q.123-.012.367-.012v-.148q-.247 0-.382.013zm.375-.013.025.07a5.1 5.1 0 0 0 1.43-.788l-.045-.058-.045-.059q-.663.51-1.39.765zm1.41-.776.046.058q.643-.5.971-.88c.215-.25.338-.473.338-.666h-.148c0 .136-.09.324-.302.57q-.314.363-.95.86zm1.281-1.488h.074a.24.24 0 0 0-.087-.194.35.35 0 0 0-.22-.061v.148c.07 0 .11.014.13.03.016.013.029.034.029.077zm-.233-.181v-.074q-.288.002-.684.185a6 6 0 0 0-.91.54l.042.06.042.061q.508-.352.888-.527c.254-.116.46-.17.622-.17zm-1.552.711-.041-.061q-.475.317-1.342 1.133l.05.054.051.054q.866-.814 1.323-1.118zm-1.332 1.126-.05-.054q-.922.855-1.29 1.342l.059.044.059.045q.355-.47 1.272-1.323zm-1.281 1.332-.06-.043q-.606.84-1.279 1.679l.058.046.058.046a43 43 0 0 0 1.283-1.684zm-1.28 1.682-.017-.072a.5.5 0 0 1-.256-.037l-.025.07-.025.07a.63.63 0 0 0 .338.041zm-.298-.039.023-.07a.4.4 0 0 1-.12-.056c-.02-.016-.01-.016-.011-.004l-.073-.012-.073-.012c-.011.064.025.113.066.144q.062.047.164.08zm-.181-.142.073.009q-.002.001.006-.017l.02-.045a2 2 0 0 1 .087-.15 12 12 0 0 1 .343-.515q.456-.655 1.354-1.864l-.06-.044-.059-.044q-.9 1.21-1.356 1.868-.229.329-.348.521-.06.096-.092.16a.4.4 0 0 0-.042.112zm1.824-2.626.06.044q.622-.843 2.445-3.469l-.06-.042-.061-.042a185 185 0 0 1-2.444 3.465zm2.444-3.467.061.042q1.526-2.185 2.481-3.411l-.058-.046-.058-.045q-.96 1.23-2.486 3.418zm2.484-3.415.058.046c.499-.636.936-.93 1.313-.93v-.147c-.45 0-.927.345-1.43.985zm1.371-.957v.074c.13 0 .214.034.267.09s.086.148.086.289h.148c0-.162-.038-.296-.127-.39-.09-.096-.219-.137-.374-.137zm.427.453h-.074c0 .33-.188.816-.584 1.461l.063.04.063.038c.398-.648.606-1.164.606-1.54zm-.595 1.5-.063-.038a8.4 8.4 0 0 1-1.154 1.5l.053.052.053.051a8.5 8.5 0 0 0 1.174-1.526zm-1.164 1.514-.053-.053q-1.17 1.183-2.28 1.68l.03.067.03.068q1.142-.513 2.325-1.71zm-2.303 1.694-.06-.043q-.285.402-1.436 2.005l.06.043.06.043q1.152-1.603 1.437-2.005zm-1.435 2.005.047.057q.324-.272.635-.544l-.049-.056-.048-.056q-.31.271-.633.542zm.633-.543.047.057a6.3 6.3 0 0 1 .857-.6l-.037-.065-.037-.064q-.432.249-.877.615zm.867-.608.038.064c.718-.428 1.343-.637 1.877-.637v-.148c-.571 0-1.223.223-1.953.657zm1.915-.647v.074c.2 0 .338.034.424.091.08.054.122.133.122.25h.149a.42.42 0 0 0-.189-.373c-.121-.08-.294-.116-.506-.116zm.62.414h-.074c0 .217-.131.482-.423.797q-.434.47-1.316 1.056l.041.062.041.061q.89-.59 1.343-1.078c.299-.324.463-.624.463-.898zm-1.772 1.915-.04-.062q-.54.36-1.09.615l.03.067.032.068a8.4 8.4 0 0 0 1.11-.627zm-1.1.62-.013.073c.314.06.48.165.542.295l.067-.031.067-.032c-.094-.197-.324-.316-.648-.377zm.596.337-.069.027a.7.7 0 0 1 .046.244h.149a.8.8 0 0 0-.057-.299zm.052.271h-.075q.002.161-.097.384l.068.03.068.03q.108-.242.11-.444zm-.104.414-.065-.035q-.09.169-.17.326l.067.033.066.033q.077-.154.167-.322zm-.168.324-.067-.032c-.07.147-.11.268-.11.355h.147c0-.05.028-.145.097-.292zm-.104.323h-.074c0 .087.036.16.11.206.068.041.16.054.265.05l-.003-.075-.003-.074c-.094.004-.15-.009-.182-.028-.024-.015-.039-.036-.039-.079zm.298.181.004.074q.38-.023.882-.3a7.6 7.6 0 0 0 1.14-.803l-.047-.057-.047-.057q-.63.521-1.117.787c-.325.179-.598.27-.82.282zm1.979-1.086.044.06q.408-.303.736-.685l-.056-.048-.056-.048q-.319.369-.712.661zm.724-.673.058.047c.07-.085.132-.115.188-.115v-.148c-.117 0-.217.065-.303.17zm.246-.142v.074c.023 0 .027.006.025.004s.005.002.005.025h.148a.18.18 0 0 0-.048-.13.18.18 0 0 0-.13-.047zm.104.103h-.074c0 .028-.015.073-.063.137l.06.044.058.045a.4.4 0 0 0 .093-.226zm.155-7.852v-.074c-.103 0-.22.065-.342.166a3.6 3.6 0 0 0-.442.456q-.506.6-1.283 1.792l.062.04.062.04q.775-1.188 1.272-1.777.248-.295.423-.437c.12-.098.2-.132.248-.132zm-2.005 2.38-.062-.04-1.1 1.642.062.041.062.041 1.1-1.642zm-1.1 1.643.034.066q.777-.396 1.726-1.332l-.052-.053-.052-.053q-.94.926-1.69 1.306zm1.708-1.32.052.054q.59-.577 1.072-1.373l-.063-.038-.064-.039q-.474.783-1.049 1.344zm1.06-1.357.064.038a5 5 0 0 0 .364-.692q.123-.295.125-.498h-.148c0 .107-.035.252-.114.44a5 5 0 0 1-.354.673zm.48-1.152h.073a.3.3 0 0 0-.05-.189.2.2 0 0 0-.166-.079v.148c.029 0 .04.009.047.019.01.014.021.044.021.101zm1.007 9.197.075.01-.001-.013zm.996-1.85.059.046.147-.192-.23.076zm-.543.182.021.07h.002zm-.582.155.014.073h.002zm-.492.039-.01.074h.006zm-.271-.207.07-.025-.049-.135-.082.117zm-.88 1.216-.06-.044zm-.919 1.203.015.072.027-.005.017-.021zm-.142 0-.012.073zm-.155-.039.023-.07zm-.13-.065-.044.06zm-.051-.077-.074-.005v.005zm1.824-2.626.06.044zm1.216-1.643-.059-.045zm.517-.634.048.057.005-.005zm.324-.052v.075h.003zm.271.052.07-.023-.001-.004zm-.543.841-.06-.044zm-.802 1.1-.06-.044-.043.059.058.044zm.155.245.06.045.022-.03-.011-.036zm-.078.337-.04.061.005.003zm.363.051.004.074h.003zm.569-.116.02.071zm.504-.168.028.069.018-.008.012-.015zm.233-.285.057.048.003-.004zm1.5-1.992-.039-.063-.011.008-.008.01zm.246-.065v.075h.006zm-.31.906.06.043.001-.001zm-.918 1.345.062.04.001-.002zm-.996 2.031.073.012v-.002zm2.03-.686-.046-.057zm.958-.814-.058-.047.095.11zm.207.232-.053-.052-.067.067.082.049zm-1.126.932.044.06v-.001zm-2.367 1.177.01-.073zm-.608-.724.074-.004c-.008-.151.062-.376.227-.683q.245-.455.754-1.118l-.059-.045-.059-.045a9 9 0 0 0-.766 1.138c-.167.31-.255.566-.245.76zm.996-1.85-.023-.07-.544.18.024.07.023.071.544-.181zm-.543.18-.022-.07q-.295.09-.577.154l.017.072.016.072a9 9 0 0 0 .587-.156zm-.582.156-.014-.073a2 2 0 0 1-.474.038l-.004.074-.004.074q.231.013.51-.04zm-.492.039.01-.074a.3.3 0 0 1-.136-.05.23.23 0 0 1-.076-.108l-.07.025-.07.025a.37.37 0 0 0 .333.255zm-.271-.207-.061-.043q-.426.608-.878 1.215l.059.044.06.044q.452-.61.88-1.217zm-.88 1.216-.06-.044q-.438.594-.917 1.201l.059.046.058.046q.48-.61.92-1.205zm-.919 1.203-.014-.073a.3.3 0 0 1-.116 0l-.012.073-.012.073q.088.015.169 0zm-.142 0 .012-.073a1 1 0 0 1-.144-.036l-.023.07-.023.07q.082.029.166.042zm-.155-.039.023-.07a.4.4 0 0 1-.108-.054l-.044.06-.045.059a.5.5 0 0 0 .15.075zm-.13-.065.045-.059a.1.1 0 0 1-.022-.02q-.002-.006 0 .002h-.148c0 .06.04.106.081.137zm-.051-.077.074.005.004-.012.02-.044a2 2 0 0 1 .084-.147q.114-.186.341-.514.455-.654 1.36-1.87l-.06-.044-.059-.044a76 76 0 0 0-1.362 1.874q-.23.33-.346.52-.06.096-.091.16l-.026.057a.2.2 0 0 0-.013.054zm1.824-2.626.06.043q.789-1.085 1.214-1.64l-.058-.046-.059-.045q-.428.558-1.217 1.644zm1.216-1.643.058.045q.22-.284.348-.441a2 2 0 0 1 .158-.18l-.047-.058-.047-.057a2 2 0 0 0-.178.201q-.13.16-.35.445zm.517-.634.053.053.012-.006a.3.3 0 0 1 .053-.013q.073-.01.206-.011v-.149q-.14 0-.229.014a.4.4 0 0 0-.08.02.2.2 0 0 0-.067.04zm.324-.052.003.074a.8.8 0 0 1 .173.006.1.1 0 0 1 .032.01c.004.001-.002 0-.006-.01l.07-.028.068-.027a.13.13 0 0 0-.06-.065.3.3 0 0 0-.076-.026 1 1 0 0 0-.208-.008zm.271.052-.07.024c-.006-.017 0-.027-.004-.015l-.017.04q-.027.056-.094.16-.134.207-.418.588l.06.044.06.044q.285-.382.422-.596.069-.107.103-.174a.4.4 0 0 0 .026-.064.13.13 0 0 0 .002-.074zm-.543.841-.06-.044-.802 1.1.06.044.06.043.802-1.1zm-.802 1.1-.045.059c.053.04.098.106.13.208l.07-.022.07-.021a.54.54 0 0 0-.18-.284zm.155.245-.06-.044a.7.7 0 0 0-.128.241.2.2 0 0 0 .001.112.17.17 0 0 0 .068.09l.041-.062.041-.062q-.008-.006-.009-.01-.004-.006.002-.035c.01-.04.04-.101.103-.185zm-.078.337-.036.064c.097.054.235.07.403.061l-.004-.074-.004-.074c-.16.009-.264-.01-.323-.042zm.363.051.007.074q.267-.027.583-.119l-.021-.071-.02-.071q-.307.09-.557.114zm.569-.116.02.071q.314-.09.512-.17l-.028-.07-.027-.068q-.19.075-.498.166zm.504-.168.058.046q.103-.129.232-.283l-.057-.048-.057-.047q-.13.156-.233.285zm.233-.285.06.044q.672-.905 1.5-1.991l-.06-.045-.058-.045a208 208 0 0 0-1.501 1.993zm1.5-1.992.04.063a.4.4 0 0 1 .207-.053v-.149a.53.53 0 0 0-.286.076zm.246-.065.006.074c.052-.004.076.003.085.008l.003.001v.008h.149a.151.151 0 0 0-.081-.14.3.3 0 0 0-.167-.024zm.169.091h-.074l-.004.016-.02.048q-.027.06-.086.16a10 10 0 0 1-.356.55l.061.04.061.043q.24-.351.362-.558.06-.103.093-.174a.3.3 0 0 0 .037-.125zm-.479.815-.06-.043q-.764 1.087-.922 1.35l.064.038.063.038q.152-.254.916-1.34zm-.918 1.345-.063-.04q-.46.714-.712 1.227-.252.511-.295.835l.074.01.073.008q.035-.284.28-.788.248-.502.705-1.212zm-.996 2.031-.073-.012c-.023.135-.019.253.03.34.054.094.15.134.263.134v-.148c-.077 0-.114-.024-.133-.06-.024-.042-.035-.118-.014-.242zm.22.388v.074c.185 0 .433-.099.736-.279q.46-.272 1.121-.811l-.047-.058-.046-.057a10 10 0 0 1-1.104.8c-.3.177-.518.257-.66.257zm1.81-1.074.047.058q.588-.472.83-.677.119-.102.157-.142l.02-.027a.076.076 0 0 0-.056-.116q-.027 0-.034.004l-.016.007-.028.015.038.064.037.063.016-.008h-.002l-.007.002h-.02a.073.073 0 0 1-.055-.105q.005-.008 0 0-.027.028-.147.13-.237.203-.826.675zm.958-.814.058.046q.025-.036.084-.037v-.148c-.08 0-.15.03-.2.092zm.142-.065v.074c.043 0 .062.01.069.015.004.004.012.013.012.04h.148a.2.2 0 0 0-.065-.154.25.25 0 0 0-.164-.05zm.155.13h-.074c0 .022-.014.06-.069.115l.053.052.052.053c.066-.066.112-.14.112-.22zm-.09.167-.038.064a.07.07 0 0 1-.029-.034.1.1 0 0 1-.003-.032c.001-.012.006-.018.004-.014a.3.3 0 0 1-.033.037q-.058.059-.198.175-.279.231-.873.677l.044.059.045.059q.596-.447.879-.681.141-.117.208-.185a.4.4 0 0 0 .053-.062.1.1 0 0 0 .017-.043.08.08 0 0 0-.038-.083zm-1.126.932-.044-.06q-.85.632-1.434.922c-.392.195-.682.269-.879.242l-.01.073-.01.073c.243.034.568-.058.965-.256q.6-.298 1.456-.935zm-2.367 1.177.01-.073c-.219-.03-.363-.1-.448-.201-.084-.1-.12-.243-.096-.442l-.074-.009-.073-.009c-.028.225.01.414.13.555.117.14.303.22.541.252zm9.619-2.083-.071-.021-.026.087.09.008zm-1.048.906.044.06v-.001zm-2.367 1.177.01-.073zm-.647-1.151.071.02-.127-.069zm-1.798 1.15.004-.073zm.026-2.91-.058-.046zm1.966-1.733-.037-.064h-.001zm2.406-.026-.073-.01-.028.217.154-.155zm.543-.414.009.074.006-.001zm.207 0-.023.071.011.002zm.04.078.06.043.003-.005zm-1.45 2.134-.061-.041v.001zm-.996 2.031.073.012v-.002zm2.031-.686-.046-.057zm.88-.789-.058-.046.092.112zm-1.708-1.81.056.048.002-.002zm-1.241-.44.04.062zm-1.294 1.138.056.05v-.001zm-.039 2.354-.051-.053zm1.1-1.242-.06-.044zm3.389.233-.007.074a.06.06 0 0 1-.037-.02.06.06 0 0 1-.014-.051q.004-.011.001-.005l-.012.017a2 2 0 0 1-.17.162q-.26.224-.853.67l.044.059.044.059q.596-.447.861-.676.133-.113.188-.18l.025-.035a.1.1 0 0 0 .017-.042.09.09 0 0 0-.019-.075.1.1 0 0 0-.061-.03zm-1.048.906-.044-.06q-.852.632-1.434.922c-.393.195-.683.269-.88.242l-.01.073-.01.073c.244.034.569-.058.966-.256q.6-.298 1.456-.935zm-2.367 1.177.01-.073c-.221-.03-.377-.105-.478-.221-.101-.117-.157-.283-.157-.508h-.148c0 .249.062.454.193.605.132.151.325.239.57.27zm-.699-.802h.074q0-.156.05-.329l-.072-.02-.071-.02q-.054.19-.055.369zm.052-.35-.056-.048q-.514.59-.95.87c-.293.186-.554.268-.788.256l-.004.074-.004.074c.275.014.567-.083.875-.28q.462-.296.983-.897zm-1.798 1.152.004-.074c-.253-.012-.431-.095-.548-.238-.119-.146-.184-.365-.184-.671h-.148c0 .324.069.582.217.765.15.184.373.278.655.292zm-.802-.983h.074c0-.563.265-1.19.812-1.882l-.058-.046-.058-.046c-.557.706-.844 1.364-.844 1.974zm.828-1.928.058.046a7.2 7.2 0 0 1 1.946-1.716l-.038-.063-.038-.063a7.3 7.3 0 0 0-1.986 1.75zm1.966-1.733.037.064c.694-.403 1.271-.598 1.735-.598v-.148c-.502 0-1.106.21-1.809.618zm1.772-.608v.074c.196 0 .342.045.446.127l.046-.059.046-.058q-.209-.16-.538-.158zm.492.142-.046.059c.094.073.138.19.115.372l.073.01.074.009c.028-.215-.023-.392-.17-.508zm.142.44.053.052q.298-.298.356-.343l-.047-.058-.046-.058a7 7 0 0 0-.368.355zm.362-.35.047.059a.3.3 0 0 1 .143-.05l-.009-.073-.008-.073a.4.4 0 0 0-.219.08zm.181-.064.015.073a.34.34 0 0 1 .169-.003l.023-.07.024-.07a.5.5 0 0 0-.245-.002zm.207 0-.012.073.01.002a.04.04 0 0 1-.015-.016.04.04 0 0 1-.004-.024q0-.005-.003.005l.063.038.064.038c.016-.027.036-.075.012-.123-.023-.047-.071-.06-.102-.066zm.04.078-.061-.043q-.429.61-1.45 2.136l.061.041.062.041a135 135 0 0 1 1.448-2.133zm-1.45 2.134-.062-.04q-.46.714-.712 1.227c-.167.34-.268.62-.295.835l.073.01.074.008q.035-.284.28-.788.248-.502.705-1.212zm-.996 2.031-.073-.012c-.022.135-.018.253.032.34.053.094.148.134.261.134v-.148c-.076 0-.113-.024-.133-.06-.023-.042-.034-.118-.014-.242zm.22.388v.074c.186 0 .434-.099.737-.279q.46-.272 1.121-.811l-.047-.058-.046-.057a10 10 0 0 1-1.104.8c-.3.177-.519.257-.66.257zm1.811-1.074.047.058q.588-.472.811-.672.056-.05.09-.084a.4.4 0 0 0 .052-.062l.01-.023a.078.078 0 0 0-.056-.1.1.1 0 0 0-.034 0 .2.2 0 0 0-.037.011l-.037.018.034.066.034.065.026-.012q.01-.004.003-.002a.1.1 0 0 1-.024-.001.07.07 0 0 1-.05-.087q.003-.01.004-.01l-.007.008-.023.025q-.03.03-.084.078-.217.195-.805.667zm.88-.789.058.047c.019-.024.044-.037.084-.037v-.148c-.08 0-.15.03-.2.092zm.142-.064v.074l.016.002.002.002.004.012a.4.4 0 0 1-.028.186l.07.021.072.022a.55.55 0 0 0 .03-.26.17.17 0 0 0-.058-.099.17.17 0 0 0-.108-.034zm-1.85-1.747.058.047a.78.78 0 0 0 .172-.5h-.148a.63.63 0 0 1-.14.407zm.156-.452h.074c0-.14-.034-.26-.115-.343s-.197-.12-.335-.12v.149c.113 0 .185.029.229.074.044.046.073.121.073.24zm-.376-.388v-.074c-.289 0-.644.143-1.062.413l.04.062.04.062c.411-.265.737-.39.982-.39zm-1.021.4-.04-.062a6 6 0 0 0-1.31 1.152l.056.049.056.049q.615-.705 1.277-1.125zm-1.294 1.139-.055-.05c-.933 1.055-1.416 1.944-1.416 2.663h.148c0-.66.449-1.514 1.379-2.564zm-1.397 2.613h-.074c0 .153.025.28.087.371a.33.33 0 0 0 .285.143v-.148c-.079 0-.128-.027-.162-.078-.038-.055-.062-.147-.062-.288zm.297.44v.074c.135 0 .295-.069.475-.187q.273-.18.638-.532l-.052-.054-.051-.053q-.36.346-.617.515c-.174.115-.303.163-.392.163zm1.061-.699.051.054q.613-.587 1.108-1.251l-.06-.044-.059-.045a10 10 0 0 1-1.091 1.233zm1.1-1.242.059.045q.62-.825 1.471-1.807l-.056-.049-.056-.048a33 33 0 0 0-1.478 1.815z" mask="url(#b)"/></svg>